SplineFontDB: 3.2
FontName: Giphurs-Thin
FullName: Giphurs Thin
FamilyName: Giphurs
Weight: Thin
Copyright: Copyright 2023 The Giphurs Project Authors (https://github.com/Corne2Plum3/Giphurs)
UComments: "2023-01-20: Finally found a name for the font lol+AAoA-2022-06-21: Created with FontForge (http://fontforge.org)"
Version: 000.950
ItalicAngle: 0
UnderlinePosition: -204
UnderlineWidth: 102
Ascent: 1668
Descent: 380
InvalidEm: 0
LayerCount: 4
Layer: 0 0 "Back" 1
Layer: 1 0 "Fore" 0
Layer: 2 0 "Back 3" 1
Layer: 3 0 "Back 8" 1
XUID: [1021 347 -1220005877 17853]
StyleMap: 0x0040
FSType: 0
OS2Version: 0
OS2_WeightWidthSlopeOnly: 0
OS2_UseTypoMetrics: 1
CreationTime: 1655845567
ModificationTime: 1719166419
PfmFamily: 33
TTFWeight: 100
TTFWidth: 5
LineGap: 0
VLineGap: 0
OS2TypoAscent: 2218
OS2TypoAOffset: 0
OS2TypoDescent: -578
OS2TypoDOffset: 0
OS2TypoLinegap: 0
OS2WinAscent: 2218
OS2WinAOffset: 0
OS2WinDescent: 578
OS2WinDOffset: 0
HheadAscent: 2218
HheadAOffset: 0
HheadDescent: -578
HheadDOffset: 0
OS2CapHeight: 1480
OS2XHeight: 1040
OS2Vendor: 'PfEd'
Lookup: 1 0 0 "'c2sc' Capitales vers petites capitales dans Latin lookup 0" { "sous-table 'c2sc' Capitales vers petites capitales dans Latin lookup 0"  } ['c2sc' ('grek' <'dflt' > 'latn' <'dflt' > ) ]
Lookup: 1 0 0 "'c2pc' Capitales vers tr+AOgA-s petites capitales dans Latin lookup 0" { "sous-table 'c2pc' Capitales vers tr+AOgA-s petites capitales dans Latin lookup 0"  } ['c2pc' ('latn' <'dflt' > ) ]
Lookup: 1 0 0 "'smcp' Bas-de-casse vers petites capitales dans Latin lookup 0" { "sous-table 'smcp' Bas-de-casse vers petites capitales dans Latin lookup 0"  } ['smcp' ('grek' <'dflt' > 'latn' <'dflt' > ) ]
Lookup: 1 0 0 "'pcap' Bas-de-casse vers tr+AOgA-s petites capitales dans Latin lookup 0" { "sous-table 'pcap' Bas-de-casse vers tr+AOgA-s petites capitales dans Latin lookup 0"  } ['pcap' ('latn' <'dflt' > ) ]
Lookup: 1 0 0 "Soft dotted i substitutions" { "Soft dotted i substitutions lookups0-1"  } []

StartChar: o
Encoding: 111 111 0
Width: 1156
VWidth: 1000
Flags: HMW
AnchorPoint: "top_center" 578 1040 basechar 0
AnchorPoint: "bottom_center" 578 0 basechar 0
AnchorPoint: "top_right" 974 1040 basechar 0
AnchorPoint: "bottom_right" 667 0 basechar 0
LayerCount: 3
Fore
SplineSet
185 520 m 0
 185 184 410 30 578 30 c 0
 746 30 971 184 971 520 c 0
 971 856 746 1010 578 1010 c 0
 410 1010 185 856 185 520 c 0
140 520 m 0
 140 832 331 1050 578 1050 c 0
 825 1050 1016 832 1016 520 c 0
 1016 208 825 -10 578 -10 c 0
 331 -10 140 208 140 520 c 0
EndSplineSet
Substitution2: "sous-table 'smcp' Bas-de-casse vers petites capitales dans Latin lookup 0" o.sc
Colour: ff00
EndChar

StartChar: n
Encoding: 110 110 1
Width: 1130
VWidth: 1000
Flags: HMW
AnchorPoint: "top_center" 565 1040 basechar 0
AnchorPoint: "bottom_center" 565 0 basechar 0
LayerCount: 3
Fore
SplineSet
905 0 m 1
 905 572 l 2
 905 791 835 1010 565 1010 c 0
 295 1010 225 791 225 572 c 2
 225 0 l 1
 180 0 l 1
 180 1040 l 1
 225 1040 l 1
 225 820 l 1
 262 927 345 1050 575 1050 c 0
 813 1050 950 892 950 572 c 1
 950 0 l 1
 905 0 l 1
EndSplineSet
Substitution2: "sous-table 'smcp' Bas-de-casse vers petites capitales dans Latin lookup 0" n.sc
Colour: ff00
EndChar

StartChar: u
Encoding: 117 117 2
Width: 1130
VWidth: 1000
Flags: HMW
AnchorPoint: "bottom_right" 962 0 basechar 0
AnchorPoint: "top_right" 950 1040 basechar 0
AnchorPoint: "top_center" 565 1040 basechar 0
AnchorPoint: "bottom_center" 565 0 basechar 0
LayerCount: 3
Fore
SplineSet
225 1040 m 1
 225 468 l 2
 225 249 295 30 565 30 c 0
 835 30 905 249 905 468 c 2
 905 1040 l 1
 950 1040 l 1
 950 208 l 1
 950 110 962 0 962 0 c 1
 917 0 l 1
 917 0 905 110 905 220 c 1
 868 113 785 -10 555 -10 c 0
 317 -10 180 148 180 468 c 1
 180 1040 l 1
 225 1040 l 1
EndSplineSet
Substitution2: "sous-table 'smcp' Bas-de-casse vers petites capitales dans Latin lookup 0" u.sc
Substitution2: "'ss05' Simplified u lookups0-1" u.ss05
Colour: ff00
EndChar

StartChar: d
Encoding: 100 100 3
Width: 1152
VWidth: 1000
Flags: HMW
AnchorPoint: "top_right" 972 1480 basechar 0
AnchorPoint: "bottom_cedilla" 560 -20 basechar 0
AnchorPoint: "top_center" 949 1380 basechar 0
AnchorPoint: "bottom_center" 560 0 basechar 0
LayerCount: 3
Fore
SplineSet
935 520 m 1
 935 856 735 1010 560 1010 c 0
 385 1010 185 856 185 520 c 0
 185 184 385 30 560 30 c 0
 735 30 935 184 935 520 c 1
972 208 m 5
 972 110 984 0 984 0 c 5
 939 0 l 5
 939 0 927 110 927 260 c 5
 896 144 770 -10 560 -10 c 0
 313 -10 140 208 140 520 c 0
 140 832 313 1050 560 1050 c 0
 760 1050 896 896 927 780 c 1
 927 1480 l 1
 972 1480 l 1
 972 208 l 5
EndSplineSet
Substitution2: "sous-table 'smcp' Bas-de-casse vers petites capitales dans Latin lookup 0" d.sc
Colour: ff00
EndChar

StartChar: b
Encoding: 98 98 4
Width: 1152
VWidth: 1000
Flags: HMW
AnchorPoint: "top_center" 203 1380 basechar 0
AnchorPoint: "bottom_center" 592 0 basechar 0
LayerCount: 3
Fore
SplineSet
217 520 m 1
 217 184 417 30 592 30 c 0
 767 30 967 184 967 520 c 0
 967 856 767 1010 592 1010 c 0
 417 1010 217 856 217 520 c 1
180 208 m 1
 180 1480 l 1
 225 1480 l 1
 225 780 l 1
 256 896 392 1050 592 1050 c 0
 839 1050 1012 832 1012 520 c 0
 1012 208 839 -10 592 -10 c 0
 382 -10 256 144 225 260 c 1
 225 0 l 1
 180 0 l 1
 180 0 180 110 180 208 c 1
EndSplineSet
Substitution2: "sous-table 'smcp' Bas-de-casse vers petites capitales dans Latin lookup 0" b.sc
Colour: ff00
EndChar

StartChar: p
Encoding: 112 112 5
Width: 1152
VWidth: 1000
Flags: HMW
AnchorPoint: "top_center" 592 1040 basechar 0
AnchorPoint: "bottom_center" 592 0 basechar 0
LayerCount: 3
Fore
SplineSet
217 520 m 1
 217 184 417 30 592 30 c 0
 767 30 967 184 967 520 c 0
 967 856 767 1010 592 1010 c 0
 417 1010 217 856 217 520 c 1
180 832 m 1
 180 930 180 1040 180 1040 c 1
 225 1040 l 1
 225 780 l 1
 256 896 382 1050 592 1050 c 0
 839 1050 1012 832 1012 520 c 0
 1012 208 839 -10 592 -10 c 0
 392 -10 256 144 225 260 c 1
 225 -440 l 1
 180 -440 l 1
 180 832 l 1
EndSplineSet
Substitution2: "sous-table 'smcp' Bas-de-casse vers petites capitales dans Latin lookup 0" p.sc
Colour: ff00
EndChar

StartChar: q
Encoding: 113 113 6
Width: 1152
VWidth: 1000
Flags: HMW
AnchorPoint: "bottom_center" 560 0 basechar 0
AnchorPoint: "top_center" 560 1040 basechar 0
LayerCount: 3
Fore
SplineSet
935 520 m 1
 935 856 735 1010 560 1010 c 0
 385 1010 185 856 185 520 c 0
 185 184 385 30 560 30 c 0
 735 30 935 184 935 520 c 1
972 832 m 1
 972 -440 l 1
 927 -440 l 1
 927 260 l 1
 896 144 760 -10 560 -10 c 0
 313 -10 140 208 140 520 c 0
 140 832 313 1050 560 1050 c 0
 770 1050 896 896 927 780 c 1
 927 1040 l 1
 972 1040 l 1
 972 1040 972 930 972 832 c 1
EndSplineSet
Substitution2: "sous-table 'smcp' Bas-de-casse vers petites capitales dans Latin lookup 0" q.sc
Colour: ff00
EndChar

StartChar: h
Encoding: 104 104 7
Width: 1130
VWidth: 1000
Flags: HMW
AnchorPoint: "bottom_cedilla" 203 -20 basechar 0
AnchorPoint: "top_center" 203 1380 basechar 0
AnchorPoint: "bottom_center" 565 0 basechar 0
LayerCount: 3
Fore
SplineSet
905 0 m 1
 905 572 l 2
 905 791 835 1010 565 1010 c 0
 295 1010 225 791 225 572 c 2
 225 0 l 1
 180 0 l 1
 180 1480 l 1
 225 1480 l 1
 225 820 l 1
 262 927 345 1050 575 1050 c 0
 813 1050 950 892 950 572 c 1
 950 0 l 1
 905 0 l 1
EndSplineSet
Substitution2: "sous-table 'smcp' Bas-de-casse vers petites capitales dans Latin lookup 0" h.sc
Colour: ff00
EndChar

StartChar: m
Encoding: 109 109 8
Width: 1694
VWidth: 1000
Flags: HMW
AnchorPoint: "top_center" 847 1040 basechar 0
AnchorPoint: "bottom_center" 847 0 basechar 0
LayerCount: 3
Fore
SplineSet
824 0 m 1
 824 572 l 2
 824 791 764 1010 524 1010 c 0
 284 1010 224 791 224 572 c 2
 224 0 l 1
 180 0 l 1
 180 1040 l 1
 224 1040 l 1
 224 820 l 1
 251 927 324 1050 534 1050 c 0
 700 1050 814 951 854 751 c 1
 888 950 981 1050 1180 1050 c 0
 1390 1050 1514 892 1514 572 c 2
 1514 0 l 1
 1470 0 l 1
 1470 572 l 2
 1470 791 1400 1010 1160 1010 c 0
 940 1010 870 791 870 572 c 2
 870 0 l 1
 824 0 l 1
EndSplineSet
Substitution2: "sous-table 'smcp' Bas-de-casse vers petites capitales dans Latin lookup 0" m.sc
Colour: ff00
EndChar

StartChar: e
Encoding: 101 101 9
Width: 1156
VWidth: 1000
Flags: HMW
AnchorPoint: "bottom_cedilla" 578 -20 basechar 0
AnchorPoint: "top_center" 578 1040 basechar 0
AnchorPoint: "bottom_center" 578 0 basechar 0
AnchorPoint: "bottom_right" 681 0 basechar 0
LayerCount: 4
Fore
SplineSet
165 540 m 1
 999 540 l 1
 971 500 l 1
 165 500 l 1
 165 540 l 1
952 274 m 1
 991 252 l 1
 917 90 775 -10 578 -10 c 0
 331 -10 140 208 140 520 c 0
 140 832 331 1050 578 1050 c 0
 825 1050 1016 832 1016 520 c 0
 1016 513 1016 507 1016 500 c 1
 971 500 l 1
 971 507 971 513 971 520 c 0
 971 856 746 1010 578 1010 c 0
 410 1010 185 856 185 520 c 0
 185 184 410 30 578 30 c 0
 724 30 876 108 952 274 c 1
EndSplineSet
Substitution2: "sous-table 'smcp' Bas-de-casse vers petites capitales dans Latin lookup 0" e.sc
Colour: ff00
EndChar

StartChar: c
Encoding: 99 99 10
Width: 1101
VWidth: 1000
Flags: HMW
AnchorPoint: "bottom_cedilla" 578 -20 basechar 0
AnchorPoint: "top_center" 578 1040 basechar 0
AnchorPoint: "bottom_center" 578 0 basechar 0
LayerCount: 4
Fore
SplineSet
185 520 m 4
 185 184 410 30 578 30 c 4
 698 30 846 108 922 274 c 5
 961 252 l 5
 887 90 745 -10 578 -10 c 4
 331 -10 140 208 140 520 c 4
 140 832 331 1050 578 1050 c 4
 745 1050 887 950 961 788 c 5
 922 766 l 5
 846 932 698 1010 578 1010 c 4
 410 1010 185 856 185 520 c 4
EndSplineSet
Substitution2: "sous-table 'smcp' Bas-de-casse vers petites capitales dans Latin lookup 0" c.sc
Colour: ff00
EndChar

StartChar: f
Encoding: 102 102 11
Width: 772
VWidth: 1000
Flags: HMW
AnchorPoint: "bottom_center" 336 0 basechar 0
AnchorPoint: "top_center" 478 1380 basechar 0
LayerCount: 3
Fore
SplineSet
688 1415 m 5
 649 1443 595 1450 557 1450 c 4
 467 1450 359 1420 359 1180 c 6
 359 1040 l 1
 665 1040 l 1
 665 1000 l 1
 359 1000 l 1
 359 0 l 1
 314 0 l 1
 314 1000 l 1
 70 1000 l 1
 70 1040 l 1
 314 1040 l 1
 314 1180 l 6
 314 1380 381 1490 557 1490 c 4
 606 1490 662 1476 702 1458 c 5
 688 1415 l 5
EndSplineSet
Substitution2: "sous-table 'smcp' Bas-de-casse vers petites capitales dans Latin lookup 0" f.sc
Substitution2: "'ss06' f ligatures lookups0-1" f.ss06
Colour: ff00
EndChar

StartChar: r
Encoding: 114 114 12
Width: 777
VWidth: 1000
Flags: HMW
AnchorPoint: "top_center" 475 1040 basechar 0
AnchorPoint: "bottom_center" 206 0 basechar 0
LayerCount: 3
Fore
SplineSet
686 972 m 5
 651 994 611 1010 565 1010 c 4
 295 1010 225 791 225 572 c 6
 225 0 l 5
 180 0 l 5
 180 1040 l 5
 225 1040 l 5
 225 820 l 5
 262 927 345 1050 575 1050 c 4
 619 1050 670 1035 707 1014 c 5
 686 972 l 5
EndSplineSet
Substitution2: "sous-table 'smcp' Bas-de-casse vers petites capitales dans Latin lookup 0" r.sc
Colour: ff00
EndChar

StartChar: t
Encoding: 116 116 13
Width: 772
VWidth: 1000
Flags: HMW
AnchorPoint: "bottom_cedilla" 533 -20 basechar 0
AnchorPoint: "bottom_center" 506 0 basechar 0
AnchorPoint: "top_center" 478 1380 basechar 0
LayerCount: 3
Fore
SplineSet
148 1040 m 1
 298 1040 314 1056 314 1206 c 1
 314 1320 l 1
 359 1320 l 1
 359 1040 l 1
 665 1040 l 1
 665 1000 l 1
 359 1000 l 1
 359 300 l 2
 359 60 467 30 557 30 c 0
 595 30 649 37 688 65 c 1
 702 22 l 1
 662 4 606 -10 557 -10 c 0
 381 -10 314 100 314 300 c 2
 314 1000 l 1
 70 1000 l 1
 70 1040 l 1
 148 1040 l 1
EndSplineSet
Substitution2: "sous-table 'smcp' Bas-de-casse vers petites capitales dans Latin lookup 0" t.sc
Substitution2: "'ss06' f ligatures lookups0-1" t.ss06
Colour: ff00
EndChar

StartChar: v
Encoding: 118 118 14
Width: 1050
VWidth: 1000
Flags: HMW
AnchorPoint: "top_center" 525 1040 basechar 0
AnchorPoint: "bottom_center" 525 0 basechar 0
LayerCount: 3
Fore
SplineSet
525 56 m 5
 882 1040 l 1
 930 1040 l 1
 550 0 l 1
 500 0 l 1
 120 1040 l 1
 168 1040 l 1
 525 56 l 5
EndSplineSet
Substitution2: "sous-table 'smcp' Bas-de-casse vers petites capitales dans Latin lookup 0" v.sc
Colour: ff00
EndChar

StartChar: w
Encoding: 119 119 15
Width: 1516
VWidth: 1000
Flags: HMW
AnchorPoint: "top_center" 758 1040 basechar 0
AnchorPoint: "bottom_center" 758 0 basechar 0
LayerCount: 3
Fore
SplineSet
428 0 m 25
 120 1040 l 25
 168 1040 l 25
 451 89 l 29
 734 1040 l 25
 782 1040 l 25
 1065 89 l 29
 1348 1040 l 25
 1396 1040 l 25
 1088 0 l 25
 1042 0 l 25
 757 960 l 25
 474 0 l 25
 428 0 l 25
EndSplineSet
Substitution2: "sous-table 'smcp' Bas-de-casse vers petites capitales dans Latin lookup 0" w.sc
Colour: ff00
EndChar

StartChar: x
Encoding: 120 120 16
Width: 998
Flags: HMW
AnchorPoint: "top_center" 499 1040 basechar 0
AnchorPoint: "bottom_center" 499 0 basechar 0
LayerCount: 3
Fore
SplineSet
460 520 m 5
 120 1040 l 5
 172 1040 l 5
 499 550 l 5
 826 1040 l 5
 878 1040 l 5
 538 520 l 5
 878 0 l 5
 826 0 l 5
 499 490 l 5
 172 0 l 5
 120 0 l 5
 460 520 l 5
EndSplineSet
Substitution2: "sous-table 'smcp' Bas-de-casse vers petites capitales dans Latin lookup 0" x.sc
Colour: ff00
EndChar

StartChar: y
Encoding: 121 121 17
Width: 1098
VWidth: 1000
Flags: HMW
AnchorPoint: "top_center" 573 1040 basechar 0
AnchorPoint: "bottom_center" 330 -360 basechar 0
LayerCount: 3
Fore
SplineSet
483 -312 m 5
 450 -401 381 -450 265 -450 c 4
 216 -450 160 -436 120 -418 c 1
 134 -375 l 1
 173 -403 227 -410 265 -410 c 4
 330 -410 405 -395 441 -296 c 5
 548 0 l 1
 168 1040 l 1
 216 1040 l 1
 573 56 l 1
 930 1040 l 1
 978 1040 l 1
 598 0 l 1
 483 -312 l 5
EndSplineSet
Layer: 2
SplineSet
707 -409 m 1
 1236 1040 l 1
 1284 1040 l 1
 732 -465 l 1
 707 -409 l 1
EndSplineSet
Substitution2: "sous-table 'smcp' Bas-de-casse vers petites capitales dans Latin lookup 0" y.sc
Colour: ff00
EndChar

StartChar: l
Encoding: 108 108 20
Width: 540
Flags: HMW
AnchorPoint: "top_center" 203 1380 basechar 0
AnchorPoint: "bottom_center" 312 0 basechar 0
LayerCount: 3
Fore
SplineSet
489 56 m 5
 500 14 l 5
 475 -3 445 -10 417 -10 c 4
 267 -10 180 60 180 230 c 6
 180 440 l 5
 180 578 l 5
 180 1480 l 5
 225 1480 l 5
 225 578 l 5
 225 440 l 5
 225 230 l 6
 225 40 364 30 417 30 c 4
 431 30 458 36 489 56 c 5
EndSplineSet
Substitution2: "sous-table 'smcp' Bas-de-casse vers petites capitales dans Latin lookup 0" l.sc
Substitution2: "'ss06' f ligatures lookups0-1" l.ss06
Colour: ff00
EndChar

StartChar: k
Encoding: 107 107 21
Width: 1029
Flags: HMW
AnchorPoint: "top_center" 206 1380 basechar 0
AnchorPoint: "bottom_center" 557 0 basechar 0
LayerCount: 3
Fore
SplineSet
451 601 m 1
 482 630 l 1
 929 0 l 1
 877 0 l 1
 451 601 l 1
225 340 m 1
 225 0 l 1
 180 0 l 1
 180 1480 l 1
 225 1480 l 1
 225 398 l 1
 867 1040 l 1
 920 1040 872 1040 925 1040 c 1
 225 340 l 1
EndSplineSet
Substitution2: "sous-table 'smcp' Bas-de-casse vers petites capitales dans Latin lookup 0" k.sc
Colour: ff00
EndChar

StartChar: s
Encoding: 115 115 22
Width: 1002
VWidth: 1000
Flags: HMW
AnchorPoint: "bottom_right" 613 0 basechar 0
AnchorPoint: "bottom_center" 505 0 basechar 0
AnchorPoint: "top_center" 505 1040 basechar 0
LayerCount: 3
Fore
SplineSet
505 1050 m 0
 698 1050 810 953 844 808 c 1
 806 786 l 1
 763 964 621 1010 505 1010 c 0
 389 1010 220 950 220 780 c 0
 220 600 377 580 505 546 c 0
 711 492 862 457 862 261 c 0
 862 85 707 -10 505 -10 c 4
 303 -10 174 108 140 253 c 5
 178 275 l 5
 218 105 373 30 505 30 c 4
 637 30 817 91 817 261 c 0
 817 441 633 466 505 500 c 0
 299 554 175 595 175 780 c 0
 175 935 312 1050 505 1050 c 0
EndSplineSet
Substitution2: "sous-table 'smcp' Bas-de-casse vers petites capitales dans Latin lookup 0" s.sc
Colour: ff00
EndChar

StartChar: a
Encoding: 97 97 23
Width: 1141
Flags: HMW
AnchorPoint: "top_right" 909 1040 basechar 0
AnchorPoint: "bottom_right" 1011 0 basechar 0
AnchorPoint: "top_center" 525 1040 basechar 0
AnchorPoint: "bottom_center" 525 0 basechar 0
LayerCount: 3
Fore
SplineSet
515 -10 m 0
 317 -10 140 100 140 340 c 1
 140 580 327 690 525 690 c 0
 695 690 900 580 900 340 c 1
 900 100 705 -10 515 -10 c 0
865 340 m 0
 865 509 735 650 525 650 c 0
 315 650 185 539 185 340 c 0
 185 141 315 30 525 30 c 0
 735 30 865 171 865 340 c 0
910 230 m 2
 910 109 966 49 1021 30 c 1
 1008 -10 l 1
 916 16 865 99 865 230 c 9
 882 265 l 25
 882 416 l 25
 865 448 l 1
 865 630 l 18
 865 944 671 1010 523 1010 c 0
 325 1010 196 885 196 885 c 1
 171 926 l 1
 171 926 299 1050 523 1050 c 0
 739 1050 910 948 910 598 c 9
 910 230 l 2
EndSplineSet
Substitution2: "sous-table 'smcp' Bas-de-casse vers petites capitales dans Latin lookup 0" a.sc
Substitution2: "'ss04' Simplified a and g lookups0-1" a.ss04
Colour: ff00
EndChar

StartChar: g
Encoding: 103 103 24
Width: 1125
VWidth: 997
Flags: HMW
AnchorPoint: "top_center" 543 1030 basechar 0
AnchorPoint: "bottom_center" 543 -361 basechar 0
LayerCount: 4
Fore
SplineSet
665 1007 m 1
 715 1033 779 1050 864 1050 c 0
 908 1050 959 1035 996 1014 c 1
 975 972 l 1
 940 994 900 1010 854 1010 c 0
 796 1010 748 1000 707 982 c 1
 665 1007 l 1
543 340 m 0
 543 310 l 0
 404 310 233 290 233 175 c 0
 233 60 348 40 543 40 c 4
 543 0 l 4
 312 0 193 45 193 175 c 0
 193 305 332 340 543 340 c 0
996 -166 m 4
 996 -346 861 -450 543 -450 c 4
 225 -450 129 -345 129 -204 c 4
 129 -33 274 40 543 40 c 4
 543 14 l 4
 325 14 174 -49 174 -204 c 4
 174 -359 325 -410 543 -410 c 4
 889 -410 951 -270 951 -170 c 4
 951 -90 897 0 543 0 c 4
 543 40 l 4
 825 40 996 -6 996 -166 c 4
238 680 m 0
 238 460 403 350 543 350 c 0
 683 350 848 460 848 680 c 0
 848 900 683 1010 543 1010 c 0
 403 1010 238 900 238 680 c 0
193 680 m 0
 193 899 350 1050 543 1050 c 0
 736 1050 893 899 893 680 c 0
 893 461 736 310 543 310 c 0
 350 310 193 461 193 680 c 0
EndSplineSet
Layer: 2
SplineSet
540 -460 m 4
 900 -460 1055 -330 1055 -150 c 4
 1055 30 900 160 540 160 c 4
 220 160 70 10 70 -150 c 4
 70 -310 180 -460 540 -460 c 4
540 0 m 4
 788 0 875 -50 875 -150 c 4
 875 -250 788 -300 540 -300 c 4
 292 -300 250 -225 250 -150 c 4
 250 -75 292 0 540 0 c 4
340 680 m 4
 340 560 420 460 540 460 c 4
 660 460 740 560 740 680 c 4
 740 800 660 900 540 900 c 4
 420 900 340 800 340 680 c 4
160 680 m 4
 160 899 321 1060 540 1060 c 4
 759 1060 920 899 920 680 c 4
 920 461 759 300 540 300 c 4
 321 300 160 461 160 680 c 4
EndSplineSet
Layer: 3
SplineSet
624.309570312 967.537109375 m 5
 697.329101562 1023.9375 781.196289062 1060 881 1060 c 4
 949 1060 1004 1049 1055 1028 c 5
 1007 849 l 5
 964 883 912 900 841 900 c 4
 793.765625 900 753.5546875 892.494140625 719.93359375 877.462890625 c 5
 624.309570312 967.537109375 l 5
540 160 m 4
 540 0 l 4
 300 0 160 70 160 230 c 4
 160 390 300 460 540 460 c 4
 540 300 l 4
 382 300 340 270 340 230 c 4
 340 190 382 160 540 160 c 4
EndSplineSet
Substitution2: "sous-table 'smcp' Bas-de-casse vers petites capitales dans Latin lookup 0" g.sc
Substitution2: "'ss04' Simplified a and g lookups0-1" g.ss04
Colour: ff00
EndChar

StartChar: z
Encoding: 122 122 25
Width: 1012
Flags: HMW
AnchorPoint: "top_center" 506 1040 basechar 0
AnchorPoint: "bottom_center" 506 0 basechar 0
LayerCount: 3
Fore
SplineSet
180 1040 m 5
 832 1040 l 5
 832 1008 l 5
 803 1000 l 5
 180 1000 l 5
 180 1040 l 5
832 40 m 5
 832 0 l 5
 180 0 l 5
 180 32 l 5
 209 40 l 5
 832 40 l 5
232 40 m 5
 180 32 l 5
 780 1000 l 5
 832 1008 l 5
 232 40 l 5
EndSplineSet
Substitution2: "sous-table 'smcp' Bas-de-casse vers petites capitales dans Latin lookup 0" z.sc
Colour: ff00
EndChar

StartChar: A
Encoding: 65 65 27
Width: 1310
VWidth: 1000
Flags: HMW
AnchorPoint: "top_left" 540 1480 basechar 0
AnchorPoint: "bottom_right" 1190 0 basechar 0
AnchorPoint: "bottom_ypogegrammeni" 655 -90 basechar 0
AnchorPoint: "top_center" 655 1380 basechar 0
AnchorPoint: "bottom_center" 655 0 basechar 0
LayerCount: 4
Fore
SplineSet
331 541 m 1
 987 541 l 1
 987 499 l 1
 331 499 l 1
 331 541 l 1
656 1408 m 1
 169 0 l 1
 120 0 l 1
 630 1480 l 1
 680 1480 l 1
 1190 0 l 1
 1141 0 l 1
 656 1408 l 1
EndSplineSet
Substitution2: "sous-table 'c2sc' Capitales vers petites capitales dans Latin lookup 0" a.sc
Colour: ffff
EndChar

StartChar: V
Encoding: 86 86 28
Width: 1310
VWidth: 1000
Flags: HMW
AnchorPoint: "top_center" 655 1380 basechar 0
AnchorPoint: "bottom_center" 655 0 basechar 0
LayerCount: 4
Fore
SplineSet
655 72 m 5
 1141 1480 l 1
 1190 1480 l 1
 680 0 l 1
 630 0 l 1
 120 1480 l 1
 169 1480 l 1
 655 72 l 5
EndSplineSet
Layer: 2
SplineSet
922.604492188 1103 m 1
 922.604492188 1166 1106.85253906 1166 1106.85253906 1103 c 1
 1057.79394531 927.541992188 806.15234375 28.5068359375 766.061523438 -54.853515625 c 0
 765.038085938 -63.95703125 761.846679688 -92.33203125 746.390625 -116.556640625 c 0
 737.017578125 -139.883789062 717.344726562 -173.25 687.233398438 -173.25 c 0
 678.235351562 -173.25 667.296875 -169.645507812 656.423828125 -159.977539062 c 1
 645.537109375 -169.655273438 634.59375 -173.25 625.619140625 -173.25 c 0
 595.474609375 -173.25 555.098632812 -144.637695312 546.791015625 -54.853515625 c 1
 524.58203125 -11.2978515625 438.00390625 269.228515625 407.6796875 367.672851562 c 0
 349.349609375 575.646484375 286.88671875 803.340820312 206 1103 c 1
 390.249023438 1103 l 1
 392.640625 1093.91699219 572.1484375 412.703125 656.346679688 123.086914062 c 1
 739.52734375 408.810546875 909.500976562 1054.4609375 909.500976562 1054.4609375 c 1
 909.500976562 1118.3984375 922.604492188 1170.08105469 922.604492188 1103 c 1
732.873046875 -63 m 1
 579.98046875 -63 l 1
 732.873046875 -63 l 1
 732.873046875 -153.131835938 690.379882812 -69.3232421875 690.379882812 -4.419921875 c 1
 692.21484375 -3.6396484375 693.78125 -3.0234375 695.05859375 -2.5830078125 c 1
 691.836914062 -2.9345703125 682.099609375 -3.998046875 658.122070312 -4.400390625 c 1
 658.122070312 -66.3759765625 635.430664062 -70.5185546875 635.430664062 -8.5439453125 c 1
 635.430664062 -71.70703125 579.98046875 -127.208007812 579.98046875 -63 c 1
 732.873046875 -63 l 1
EndSplineSet
Substitution2: "sous-table 'c2sc' Capitales vers petites capitales dans Latin lookup 0" v.sc
Colour: ffff
EndChar

StartChar: H
Encoding: 72 72 29
Width: 1344
Flags: HMW
AnchorPoint: "bottom_ypogegrammeni" 688 -108 basechar 0
AnchorPoint: "bottom_cedilla" 203 -38 basechar 0
AnchorPoint: "top_left" 180 1480 basechar 0
AnchorPoint: "bottom_center" 688 -18 basechar 0
AnchorPoint: "top_center" 688 1362 basechar 0
LayerCount: 4
Fore
SplineSet
180 1480 m 25
 226 1480 l 25
 226 761 l 25
 1118 761 l 25
 1118 1480 l 25
 1164 1480 l 25
 1164 0 l 25
 1118 0 l 25
 1118 719 l 25
 226 719 l 25
 226 0 l 25
 180 0 l 25
 180 1480 l 25
EndSplineSet
Substitution2: "sous-table 'c2sc' Capitales vers petites capitales dans Latin lookup 0" h.sc
Colour: ffff
EndChar

StartChar: O
Encoding: 79 79 30
Width: 1514
Flags: HMW
AnchorPoint: "top_left_O2" 277 1224 basechar 0
AnchorPoint: "top_left_O1" 651 1480 basechar 0
AnchorPoint: "bottom_right" 863 0 basechar 0
AnchorPoint: "bottom_center" 757 0 basechar 0
AnchorPoint: "top_right" 1267 1480 basechar 0
AnchorPoint: "top_center" 757 1380 basechar 0
LayerCount: 4
Fore
SplineSet
186 740 m 0
 186 265 497 32 757 32 c 0
 1017 32 1328 265 1328 740 c 0
 1328 1215 1017 1448 757 1448 c 0
 497 1448 186 1215 186 740 c 0
140 740 m 0
 140 1179 409 1490 757 1490 c 0
 1105 1490 1374 1179 1374 740 c 0
 1374 301 1105 -10 757 -10 c 0
 409 -10 140 301 140 740 c 0
EndSplineSet
Substitution2: "sous-table 'c2sc' Capitales vers petites capitales dans Latin lookup 0" o.sc
Colour: ffff
EndChar

StartChar: E
Encoding: 69 69 31
Width: 1176
Flags: HMW
AnchorPoint: "top_center" 588 1380 basechar 0
AnchorPoint: "bottom_center" 588 0 basechar 0
AnchorPoint: "bottom_right" 996 0 basechar 0
AnchorPoint: "top_left" 180 1480 basechar 0
AnchorPoint: "bottom_cedilla" 588 -20 basechar 0
LayerCount: 4
Fore
SplineSet
913 761 m 17
 913 719 l 9
 226 719 l 17
 226 42 l 1
 996 42 l 1
 996 0 l 1
 180 0 l 25
 180 1480 l 1
 996 1480 l 17
 996 1438 l 1
 226 1438 l 1
 226 761 l 9
 913 761 l 17
EndSplineSet
Substitution2: "sous-table 'c2sc' Capitales vers petites capitales dans Latin lookup 0" e.sc
Colour: ffff
EndChar

StartChar: F
Encoding: 70 70 32
Width: 1176
Flags: HMW
AnchorPoint: "top_center" 588 1380 basechar 0
AnchorPoint: "bottom_center" 203 0 basechar 0
LayerCount: 4
Fore
SplineSet
226 168 m 1
 226 0 l 1
 180 0 l 1
 180 1480 l 1
 996 1480 l 17
 996 1438 l 1
 226 1438 l 1
 226 761 l 9
 913 761 l 17
 913 719 l 9
 226 719 l 17
 226 168 l 1
EndSplineSet
Substitution2: "sous-table 'c2sc' Capitales vers petites capitales dans Latin lookup 0" f.sc
Colour: ffff
EndChar

StartChar: P
Encoding: 80 80 33
Width: 1154
Flags: HMW
AnchorPoint: "top_left" 180 1480 basechar 0
AnchorPoint: "bottom_center" 203 0 basechar 0
AnchorPoint: "top_center" 583 1380 basechar 0
LayerCount: 4
Fore
SplineSet
226 1438 m 25
 226 676 l 25
 595 676 l 17
 820 676 968 857 968 1057 c 0
 968 1257 820 1438 595 1438 c 9
 226 1438 l 25
180 0 m 1
 180 1480 l 1
 595 1480 l 1
 819 1480 1014 1312 1014 1057 c 0
 1014 802 819 634 595 634 c 1
 226 634 l 1
 226 0 l 25
 180 0 l 1
EndSplineSet
Substitution2: "sous-table 'c2sc' Capitales vers petites capitales dans Latin lookup 0" p.sc
Colour: ffff
EndChar

StartChar: N
Encoding: 78 78 34
Width: 1344
Flags: HMW
AnchorPoint: "top_center" 672 1380 basechar 0
AnchorPoint: "bottom_center" 672 0 basechar 0
LayerCount: 4
Fore
SplineSet
226 1480 m 5
 1118 90 l 9
 1118 1480 l 1
 1164 1480 l 25
 1164 0 l 25
 1118 0 l 1
 226 1390 l 1
 226 0 l 1
 180 0 l 25
 180 1480 l 1
 226 1480 l 5
EndSplineSet
Substitution2: "sous-table 'c2sc' Capitales vers petites capitales dans Latin lookup 0" n.sc
Colour: ffff
EndChar

StartChar: L
Encoding: 76 76 35
Width: 1176
Flags: HMW
AnchorPoint: "top_center" 203 1380 basechar 0
AnchorPoint: "bottom_center" 588 0 basechar 0
LayerCount: 4
Fore
SplineSet
226 1480 m 21
 226 42 l 5
 996 42 l 1
 996 0 l 1
 180 0 l 29
 180 1480 l 5
 226 1480 l 21
EndSplineSet
Substitution2: "sous-table 'c2sc' Capitales vers petites capitales dans Latin lookup 0" l.sc
Colour: ffff
EndChar

StartChar: I
Encoding: 73 73 36
Width: 822
Flags: HMW
AnchorPoint: "top_left" 180 1480 basechar 0
AnchorPoint: "bottom_right" 435 0 basechar 0
AnchorPoint: "bottom_center" 411 0 basechar 0
AnchorPoint: "top_center" 411 1380 basechar 0
LayerCount: 4
Fore
SplineSet
180 1480 m 29
 642 1480 l 29
 642 1438 l 29
 435 1438 l 29
 435 42 l 29
 642 42 l 29
 642 0 l 29
 180 0 l 29
 180 42 l 29
 387 42 l 29
 387 1438 l 29
 180 1438 l 29
 180 1480 l 29
EndSplineSet
Substitution2: "sous-table 'c2sc' Capitales vers petites capitales dans Latin lookup 0" i.sc
Substitution2: "'ss03' Simplified G and I lookups0-1" I.ss03
Colour: ffff
EndChar

StartChar: D
Encoding: 68 68 37
Width: 1322
Flags: HMW
AnchorPoint: "top_center" 640 1380 basechar 0
AnchorPoint: "bottom_center" 640 0 basechar 0
AnchorPoint: "bottom_cedilla" 556 -20 basechar 0
LayerCount: 4
Fore
SplineSet
226 1438 m 25
 226 42 l 25
 596 42 l 17
 834 42 1136 240 1136 740 c 0
 1136 1240 834 1438 596 1438 c 9
 226 1438 l 25
596 0 m 1
 347 0 l 25
 180 0 l 1
 180 1480 l 1
 596 1480 l 1
 930 1480 1182 1190 1182 740 c 0
 1182 290 930 0 596 0 c 1
EndSplineSet
Substitution2: "sous-table 'c2sc' Capitales vers petites capitales dans Latin lookup 0" d.sc
Colour: ffff
EndChar

StartChar: B
Encoding: 66 66 38
Width: 1154
Flags: HMW
AnchorPoint: "bottom_center" 553 0 basechar 0
AnchorPoint: "top_center" 553 1380 basechar 0
LayerCount: 4
Fore
SplineSet
595 1480 m 5
 789 1480 957 1362 957 1142 c 4
 957 922 789 804 595 804 c 5
 595 846 l 5
 785 846 911 962 911 1142 c 4
 911 1322 785 1438 595 1438 c 13
 226 1438 l 5
 226 1480 l 29
 595 1480 l 5
226 42 m 29
 595 42 l 21
 820 42 968 223 968 423 c 4
 968 623 820 804 595 804 c 13
 226 804 l 29
 226 42 l 29
180 1480 m 5
 226 1480 l 29
 226 846 l 5
 595 846 l 5
 819 846 1014 678 1014 423 c 4
 1014 168 819 0 595 0 c 5
 180 0 l 5
 180 1480 l 5
EndSplineSet
Layer: 2
SplineSet
594 1606 m 2
 811.716796875 1606 1006 1407.70410156 1006 1110 c 0
 1006 1035.16308594 983.744140625 968.088867188 946.140625 913.037109375 c 0
 916.09375 869.049804688 876.709960938 833.073242188 832.2578125 805.6796875 c 0
 782.221679688 774.846679688 725.641601562 754.653320312 666.668945312 745.553710938 c 2
 594 734.33984375 l 1
 594 903.033203125 l 1
 645.330078125 912.663085938 l 2
 680.407226562 919.244140625 711.764648438 932.581054688 738.016601562 951.91796875 c 0
 785.7265625 987.061523438 816 1042.94335938 816 1112 c 0
 816 1226.90136719 729.776367188 1312 594 1312 c 2
 312 1312 l 1
 312 1201.75 312 1716.25 312 1606 c 1
 594 1606 l 2
EndSplineSet
Substitution2: "sous-table 'c2sc' Capitales vers petites capitales dans Latin lookup 0" b.sc
Colour: ffff
EndChar

StartChar: T
Encoding: 84 84 39
Width: 1344
Flags: HMW
AnchorPoint: "top_center" 672 1380 basechar 0
AnchorPoint: "bottom_center" 672 0 basechar 0
AnchorPoint: "bottom_cedilla" 672 -20 basechar 0
LayerCount: 4
Fore
SplineSet
695 0 m 25
 649 0 l 25
 649 1438 l 29
 180 1438 l 29
 180 1480 l 29
 1164 1480 l 29
 1164 1438 l 29
 695 1438 l 29
 695 0 l 25
EndSplineSet
Substitution2: "sous-table 'c2sc' Capitales vers petites capitales dans Latin lookup 0" t.sc
Colour: ffff
EndChar

StartChar: R
Encoding: 82 82 40
Width: 1130
Flags: HMW
AnchorPoint: "bottom_center" 583 0 basechar 0
AnchorPoint: "top_center" 583 1380 basechar 0
LayerCount: 4
Fore
SplineSet
545 643 m 1
 591 652 l 1
 1030 0 l 1
 976 0 l 1
 545 643 l 1
226 1438 m 25
 226 676 l 25
 595 676 l 17
 820 676 968 857 968 1057 c 0
 968 1257 820 1438 595 1438 c 9
 226 1438 l 25
180 0 m 1
 180 1480 l 1
 595 1480 l 1
 819 1480 1014 1312 1014 1057 c 0
 1014 802 819 634 595 634 c 1
 226 634 l 1
 226 0 l 25
 180 0 l 1
EndSplineSet
Substitution2: "sous-table 'c2sc' Capitales vers petites capitales dans Latin lookup 0" r.sc
Colour: ffff
EndChar

StartChar: C
Encoding: 67 67 41
Width: 1436
Flags: HMW
AnchorPoint: "bottom_cedilla" 757 -20 basechar 0
AnchorPoint: "bottom_center" 757 0 basechar 0
AnchorPoint: "top_center" 757 1380 basechar 0
LayerCount: 4
Fore
SplineSet
1256 1097 m 1
 1149 1332 940 1448 757 1448 c 0
 497 1448 186 1215 186 740 c 0
 186 265 497 32 757 32 c 0
 940 32 1149 148 1256 383 c 1
 1296 360 l 1
 1192 132 992 -10 757 -10 c 0
 409 -10 140 301 140 740 c 0
 140 1179 409 1490 757 1490 c 0
 992 1490 1192 1348 1296 1120 c 1
 1256 1097 l 1
EndSplineSet
Substitution2: "sous-table 'c2sc' Capitales vers petites capitales dans Latin lookup 0" c.sc
Colour: ffff
EndChar

StartChar: G
Encoding: 71 71 42
Width: 1482
Flags: HMW
AnchorPoint: "top_center" 757 1380 basechar 0
AnchorPoint: "bottom_center" 757 0 basechar 0
LayerCount: 4
Fore
SplineSet
1256 1097 m 5
 1149 1332 940 1448 757 1448 c 0
 497 1448 186 1215 186 740 c 0
 186 265 497 32 757 32 c 0
 940 32 1149 148 1256 383 c 1
 1296 360 l 1
 1192 132 992 -10 757 -10 c 0
 409 -10 140 301 140 740 c 0
 140 1179 409 1490 757 1490 c 0
 992 1490 1192 1348 1296 1120 c 1
 1256 1097 l 5
681 740 m 25
 1302 740 l 25
 1302 0 l 25
 1256 0 l 17
 1256 327 l 1
 1256 353 l 1
 1256 698 l 9
 681 698 l 25
 681 740 l 25
EndSplineSet
Substitution2: "sous-table 'c2sc' Capitales vers petites capitales dans Latin lookup 0" g.sc
Substitution2: "'ss03' Simplified G and I lookups0-1" G.ss03
Colour: ffff
EndChar

StartChar: Q
Encoding: 81 81 43
Width: 1514
Flags: HMW
AnchorPoint: "bottom_center" 757 0 basechar 0
AnchorPoint: "top_center" 757 1380 basechar 0
LayerCount: 4
Fore
SplineSet
186 740 m 0
 186 265 497 32 757 32 c 0
 1017 32 1328 265 1328 740 c 0
 1328 1215 1017 1448 757 1448 c 0
 497 1448 186 1215 186 740 c 0
140 740 m 0
 140 1179 409 1490 757 1490 c 0
 1105 1490 1374 1179 1374 740 c 0
 1374 301 1105 -10 757 -10 c 0
 409 -10 140 301 140 740 c 0
1374 16 m 1
 1342 -16 l 1
 826 501 l 1
 858 533 l 1
 1374 16 l 1
EndSplineSet
Substitution2: "sous-table 'c2sc' Capitales vers petites capitales dans Latin lookup 0" q.sc
Colour: ffff
EndChar

StartChar: U
Encoding: 85 85 44
Width: 1344
Flags: HMW
AnchorPoint: "bottom_right" 787 0 basechar 0
AnchorPoint: "bottom_center" 672 0 basechar 0
AnchorPoint: "top_right" 1164 1480 basechar 0
AnchorPoint: "top_center" 672 1380 basechar 0
LayerCount: 4
Fore
SplineSet
226 1480 m 25
 226 528 l 17
 226 178 432 32 672 32 c 0
 912 32 1118 178 1118 528 c 9
 1118 1480 l 25
 1164 1480 l 25
 1164 528 l 17
 1164 168 969 -10 672 -10 c 0
 375 -10 180 168 180 528 c 9
 180 1480 l 25
 226 1480 l 25
EndSplineSet
Substitution2: "sous-table 'c2sc' Capitales vers petites capitales dans Latin lookup 0" u.sc
Colour: ffff
EndChar

StartChar: M
Encoding: 77 77 45
Width: 1512
VWidth: 1000
Flags: HMW
AnchorPoint: "top_center" 756 1380 basechar 0
AnchorPoint: "bottom_center" 756 0 basechar 0
LayerCount: 4
Fore
SplineSet
752 230 m 1
 1286 1480 l 1
 1306 1422 l 1
 770 160 l 1
 733 160 l 1
 206 1422 l 1
 226 1480 l 1
 752 230 l 1
1332 1480 m 1
 1332 0 l 1
 1286 0 l 1
 1286 1426 l 25
 1286 1480 l 1
 1332 1480 l 1
180 1480 m 1
 226 1480 l 1
 226 1414 l 1
 226 0 l 1
 180 0 l 1
 180 1480 l 1
EndSplineSet
Substitution2: "sous-table 'c2sc' Capitales vers petites capitales dans Latin lookup 0" m.sc
Colour: ffff
EndChar

StartChar: Z
Encoding: 90 90 46
Width: 1319
VWidth: 1000
Flags: HMW
AnchorPoint: "top_center" 699 1380 basechar 0
AnchorPoint: "bottom_center" 699 0 basechar 0
LayerCount: 4
Fore
SplineSet
271 0 m 5
 241 38 l 5
 1091 1480 l 5
 1121 1442 l 5
 271 0 l 5
265 42 m 1
 1139 42 l 1
 1139 0 l 1
 813 0 567 0 241 0 c 1
 241 38 l 1
 265 42 l 1
259 1480 m 5
 585 1480 795 1480 1121 1480 c 5
 1121 1442 l 5
 1096 1438 l 5
 259 1438 l 5
 259 1480 l 5
EndSplineSet
Layer: 2
SplineSet
180 900 m 1
 180 900 180 1194.34960938 180 1103 c 1
 899 1103 l 1
 899 1194.34960938 899 900 899 900 c 1
 180 900 l 1
EndSplineSet
Substitution2: "sous-table 'c2sc' Capitales vers petites capitales dans Latin lookup 0" z.sc
Colour: ffff
EndChar

StartChar: X
Encoding: 88 88 47
Width: 1342
VWidth: 1000
Flags: HMW
AnchorPoint: "bottom_center" 671 0 basechar 0
AnchorPoint: "top_center" 671 1380 basechar 0
LayerCount: 4
Fore
SplineSet
669 697 m 5
 174 0 l 5
 120 0 l 5
 642 740 l 5
 120 1480 l 5
 174 1480 l 5
 671 778 l 5
 1168 1480 l 5
 1222 1480 l 5
 700 740 l 5
 1222 0 l 5
 1168 0 l 5
 669 697 l 5
EndSplineSet
Substitution2: "sous-table 'c2sc' Capitales vers petites capitales dans Latin lookup 0" x.sc
Colour: ffff
EndChar

StartChar: Y
Encoding: 89 89 48
Width: 1342
VWidth: 1000
Flags: HMW
AnchorPoint: "top_left" 120 1480 basechar 0
AnchorPoint: "bottom_center" 671 0 basechar 0
AnchorPoint: "top_center" 671 1380 basechar 0
LayerCount: 4
Back
SplineSet
669 617.358398438 m 1
 1079 0 l 1
 1295 0 l 1
 805 740 l 1
 1295 1480 l 1
 1079 1480 l 1
 671 858 l 1
 255 1480 l 1
 39 1480 l 1
 546 740 l 1
 38 0 l 1
 255 0 l 1
 669 617.358398438 l 1
EndSplineSet
Fore
SplineSet
648 0 m 1
 648 740 l 1
 694 740 l 1
 694 0 l 1
 648 0 l 1
685 719 m 1
 659 716 l 1
 120 1480 l 1
 174 1480 l 1
 671 778 l 1
 1168 1480 l 1
 1222 1480 l 1
 685 719 l 1
EndSplineSet
Substitution2: "sous-table 'c2sc' Capitales vers petites capitales dans Latin lookup 0" y.sc
Colour: ffff
EndChar

StartChar: W
Encoding: 87 87 49
Width: 1862
VWidth: 1000
Flags: HMW
AnchorPoint: "top_center" 931 1380 basechar 0
AnchorPoint: "bottom_center" 931 0 basechar 0
LayerCount: 4
Fore
SplineSet
1323 72 m 1
 1693 1480 l 1
 1742 1480 l 1
 1349 0 l 1
 1296 0 l 1
 931 1418 l 1
 566 0 l 1
 513 0 l 1
 120 1480 l 1
 169 1480 l 1
 540 72 l 5
 905 1480 l 1
 957 1480 l 1
 1323 72 l 1
EndSplineSet
Substitution2: "sous-table 'c2sc' Capitales vers petites capitales dans Latin lookup 0" w.sc
Colour: ffff
EndChar

StartChar: J
Encoding: 74 74 50
Width: 1136
VWidth: 1000
Flags: HMW
AnchorPoint: "top_center" 933 1380 basechar 0
AnchorPoint: "bottom_center" 548 0 basechar 0
LayerCount: 4
Fore
SplineSet
187 447 m 5
 186 441 186 438 186 434 c 4
 186 146 380 32 548 32 c 4
 716 32 910 146 910 434 c 13
 910 1480 l 5
 956 1480 l 5
 956 434 l 21
 956 154 786 -10 548 -10 c 4
 310 -10 140 154 140 434 c 4
 187 447 l 5
EndSplineSet
Substitution2: "sous-table 'c2sc' Capitales vers petites capitales dans Latin lookup 0" j.sc
Colour: ffff
EndChar

StartChar: K
Encoding: 75 75 51
Width: 1298
Flags: HMW
AnchorPoint: "top_center" 672 1380 basechar 0
AnchorPoint: "bottom_center" 672 0 basechar 0
LayerCount: 4
Back
SplineSet
1210 0 m 1
 1018 0 l 1
 5 1480 l 1
 197 1480 l 1
 1210 0 l 1
EndSplineSet
Fore
SplineSet
504 807 m 5
 534 841 l 1
 1198 0 l 5
 1144 0 l 5
 504 807 l 5
226 508 m 1
 226 0 l 1
 180 0 l 1
 180 1480 l 1
 226 1480 l 1
 226 568 l 1
 1138 1480 l 1
 1191 1480 1145 1480 1198 1480 c 1
 226 508 l 1
EndSplineSet
Substitution2: "sous-table 'c2sc' Capitales vers petites capitales dans Latin lookup 0" k.sc
Colour: ffff
EndChar

StartChar: S
Encoding: 83 83 52
Width: 1175
VWidth: 1000
Flags: HMW
AnchorPoint: "top_center" 586 1380 basechar 0
AnchorPoint: "bottom_center" 586 0 basechar 0
LayerCount: 4
Fore
SplineSet
586 1448 m 0
 401 1448 223 1364 223 1124 c 0
 223 884 433 816 586 769 c 0
 854 688 1035 616 1035 356 c 0
 1035 96 855 -10 586 -10 c 0
 325 -10 145 143 140 381 c 1
 186 394 l 0
 186 161 361 32 586 32 c 0
 780 32 989 106 989 356 c 0
 989 606 787 660 586 721 c 0
 318 803 177 894 177 1124 c 0
 177 1354 330 1490 586 1490 c 0
 847 1490 1007 1347 1012 1109 c 1
 966 1096 l 0
 966 1329 811 1448 586 1448 c 0
EndSplineSet
Substitution2: "sous-table 'c2sc' Capitales vers petites capitales dans Latin lookup 0" s.sc
Colour: ffff
EndChar

StartChar: eight
Encoding: 56 56 53
Width: 1198
VWidth: 1000
Flags: HMW
LayerCount: 4
Back
SplineSet
322 1094 m 0
 322 1231 424 1332 599 1332 c 0
 774 1332 876 1231 876 1094 c 0
 876 957 774 856 599 856 c 4
 424 856 322 957 322 1094 c 0
132 1098 m 0
 132 875 324 696 599 696 c 4
 874 696 1066 875 1066 1098 c 0
 1066 1321 874 1500 599 1500 c 0
 324 1500 132 1321 132 1098 c 0
279 422 m 4
 279 578 399 696 599 696 c 4
 799 696 921 578 921 422 c 4
 921 266 799 148 599 148 c 4
 399 148 279 266 279 422 c 4
89 418 m 4
 89 175 299 -20 599 -20 c 4
 899 -20 1111 175 1111 418 c 4
 1111 661 899 856 599 856 c 4
 299 856 89 661 89 418 c 4
EndSplineSet
Fore
SplineSet
148 390 m 4
 148 633 347 752 461 776 c 1
 352 790 188 903 188 1126 c 0
 188 1349 357 1490 599 1490 c 0
 841 1490 1010 1349 1010 1126 c 0
 1010 903 846 790 737 776 c 1
 851 752 1050 633 1050 390 c 0
 1050 147 863 -10 599 -10 c 0
 335 -10 148 147 148 390 c 4
234 1122 m 0
 234 927 399 796 599 796 c 0
 799 796 964 927 964 1122 c 0
 964 1327 799 1448 599 1448 c 0
 399 1448 234 1327 234 1122 c 0
599 756 m 0
 413 756 194 627 194 394 c 0
 194 161 374 32 599 32 c 0
 824 32 1004 161 1004 394 c 0
 1004 627 785 756 599 756 c 0
EndSplineSet
Substitution2: "'ss02' Alternative numbers set 2 lookups0-1" eight.cv18
Substitution2: "'ss01' Alternative numbers set 1 lookups0-1" eight.cv08
Substitution2: "sous-table 'sups' Exposant lookups0" eight.superior
Substitution2: "'cv18' Alternative digit 8 2-1" eight.cv18
Substitution2: "'cv08' Alternative digit 8 1-1" eight.cv08
Substitution2: "'dnom' D+AOkA-nominateurs lookups0-1" eight.dnom
Substitution2: "sous-table 'subs' Indice lookups0" eight.subscript
Substitution2: "'numr' Numerators lookups0-1" eight.numr
Substitution2: "'tnum' Tabular Numbers lookups0-1" eight.tnum
Substitution2: "'onum' Oldstyle Figures lookups0-1" eight.onum
Substitution2: "'pnum' Proportional Numbers lookups0-1" eight.pnum
Colour: ffff
EndChar

StartChar: six
Encoding: 54 54 54
Width: 1198
VWidth: 1000
Flags: HMW
LayerCount: 4
Fore
SplineSet
696 1490 m 0
 931 1490 1027 1360 1027 1360 c 1
 1005 1322 l 1
 1005 1322 912 1448 680 1448 c 0
 424 1448 177 1206 177 706 c 0
 177 316 279 222 279 222 c 1
 225 227 l 1
 225 227 131 366 131 706 c 0
 131 1226 379 1490 696 1490 c 0
209 483 m 0
 209 251 358 32 615 32 c 0
 872 32 1021 251 1021 483 c 0
 1021 715 862 934 615 934 c 0
 368 934 209 715 209 483 c 0
163 483 m 13
 173 483 l 21
 173 774 368 976 615 976 c 0
 862 976 1067 774 1067 483 c 0
 1067 192 862 -10 615 -10 c 0
 368 -10 163 192 163 483 c 13
EndSplineSet
Substitution2: "'ss02' Alternative numbers set 2 lookups0-1" six.cv16
Substitution2: "'ss01' Alternative numbers set 1 lookups0-1" six.cv06
Substitution2: "'pnum' Proportional Numbers lookups0-1" six.pnum
Substitution2: "sous-table 'sups' Exposant lookups0" six.superior
Substitution2: "'cv16' Alternative digit 6 2-1" six.cv16
Substitution2: "'cv06' Alternative digit 6 1-1" six.cv06
Substitution2: "'dnom' D+AOkA-nominateurs lookups0-1" six.dnom
Substitution2: "sous-table 'subs' Indice lookups0" six.subscript
Substitution2: "'numr' Numerators lookups0-1" six.numr
Substitution2: "'tnum' Tabular Numbers lookups0-1" six.tnum
Substitution2: "'onum' Oldstyle Figures lookups0-1" six.onum
Colour: ffff
EndChar

StartChar: nine
Encoding: 57 57 55
Width: 1198
VWidth: 1000
Flags: HMW
LayerCount: 4
Fore
SplineSet
502 -10 m 0
 267 -10 171 120 171 120 c 1
 193 158 l 1
 193 158 286 32 518 32 c 0
 774 32 1021 274 1021 774 c 0
 1021 1164 919 1258 919 1258 c 1
 973 1253 l 1
 973 1253 1067 1114 1067 774 c 0
 1067 254 819 -10 502 -10 c 0
989 997 m 0
 989 1229 840 1448 583 1448 c 0
 326 1448 177 1229 177 997 c 0
 177 765 336 546 583 546 c 0
 830 546 989 765 989 997 c 0
1035 997 m 9
 1025 997 l 17
 1025 706 830 504 583 504 c 0
 336 504 131 706 131 997 c 0
 131 1288 336 1490 583 1490 c 0
 830 1490 1035 1288 1035 997 c 9
EndSplineSet
Substitution2: "'ss02' Alternative numbers set 2 lookups0-1" nine.cv19
Substitution2: "'ss01' Alternative numbers set 1 lookups0-1" nine.cv09
Substitution2: "sous-table 'sups' Exposant lookups0" nine.superior
Substitution2: "'cv19' Alternative digit 9 2-1" nine.cv19
Substitution2: "'cv09' Alternative digit 9 1-1" nine.cv09
Substitution2: "'dnom' D+AOkA-nominateurs lookups0-1" nine.dnom
Substitution2: "sous-table 'subs' Indice lookups0" nine.subscript
Substitution2: "'numr' Numerators lookups0-1" nine.numr
Substitution2: "'tnum' Tabular Numbers lookups0-1" nine.tnum
Substitution2: "'onum' Oldstyle Figures lookups0-1" nine.onum
Substitution2: "'pnum' Proportional Numbers lookups0-1" nine.pnum
Colour: ffff
EndChar

StartChar: three
Encoding: 51 51 56
Width: 1198
VWidth: 1000
Flags: HMW
LayerCount: 4
Fore
SplineSet
596 796 m 6
 796 796 949 927 949 1122 c 4
 949 1327 796 1448 596 1448 c 4
 371 1448 216 1319 216 1086 c 4
 170 1099 l 5
 175 1337 335 1490 596 1490 c 4
 838 1490 995 1349 995 1126 c 4
 995 903 843 790 734 776 c 5
 848 752 1047 633 1047 390 c 4
 1047 147 860 -10 596 -10 c 4
 335 -10 156 143 151 381 c 1
 197 394 l 0
 197 161 371 32 596 32 c 4
 821 32 1001 161 1001 394 c 4
 1001 627 782 756 596 756 c 6
 512 756 l 29
 512 796 l 29
 596 796 l 6
EndSplineSet
Substitution2: "'ss02' Alternative numbers set 2 lookups0-1" three.cv13
Substitution2: "'ss01' Alternative numbers set 1 lookups0-1" three.cv03
Substitution2: "'pnum' Proportional Numbers lookups0-1" three.pnum
Substitution2: "sous-table 'sups' Exposant lookups0" three.superior
Substitution2: "'cv13' Alternative digit 3 2-1" three.cv13
Substitution2: "'cv03' Alternative digit 3 1-1" three.cv03
Substitution2: "'onum' Oldstyle Figures lookups0-1" three.onum
Substitution2: "'tnum' Tabular Numbers lookups0-1" three.tnum
Substitution2: "'numr' Numerators lookups0-1" three.numr
Substitution2: "sous-table 'subs' Indice lookups0" three.subscript
Substitution2: "'dnom' D+AOkA-nominateurs lookups0-1" three.dnom
Colour: ffff
EndChar

StartChar: zero
Encoding: 48 48 57
Width: 1198
Flags: HMW
LayerCount: 4
Fore
SplineSet
185 740 m 0
 185 274 359 32 599 32 c 0
 839 32 1013 274 1013 740 c 4
 1013 1206 839 1448 599 1448 c 0
 359 1448 185 1206 185 740 c 0
139 740 m 0
 139 1240 335 1490 599 1490 c 0
 863 1490 1059 1240 1059 740 c 4
 1059 240 863 -10 599 -10 c 0
 335 -10 139 240 139 740 c 0
EndSplineSet
Substitution2: "'ss02' Alternative numbers set 2 lookups0-1" zero.cv20
Substitution2: "'ss01' Alternative numbers set 1 lookups0-1" zero.cv10
Substitution2: "'pnum' Proportional Numbers lookups0-1" zero.pnum
Substitution2: "sous-table 'subs' Indice lookups0" zero.subscript
Substitution2: "'cv20' Alternative digit 0 2-1" zero.cv20
Substitution2: "'cv10' Alternative digit 0 1-1" zero.cv10
Substitution2: "'zero' Slashed Zero lookups0-1" zero.zero
Substitution2: "'onum' Oldstyle Figures lookups0-1" zero.onum
Substitution2: "'tnum' Tabular Numbers lookups0-1" zero.tnum
Substitution2: "'numr' Numerators lookups0-1" zero.numr
Substitution2: "'dnom' D+AOkA-nominateurs lookups0-1" zero.dnom
Substitution2: "sous-table 'sups' Exposant lookups0" zero.superior
Colour: ffff
EndChar

StartChar: two
Encoding: 50 50 58
Width: 1198
VWidth: 1000
Flags: HMW
LayerCount: 4
Fore
SplineSet
217 987 m 5
 170 1000 l 4
 170 1300 353 1490 599 1490 c 4
 845 1490 1028 1320 1028 1040 c 0
 982 1040 l 0
 982 1280 829 1448 599 1448 c 4
 365 1448 216 1258 216 1000 c 4
 216 996 216 993 217 987 c 5
163 0 m 1
 163 116 166 303 599 553 c 0
 876 713 982 824 982 1040 c 1
 1028 1040 l 1
 1028 760 820 627 599 500 c 0
 379 373 209 230 209 0 c 1
 160 0 212 0 163 0 c 1
183 42 m 1
 1035 42 l 1
 1035 0 l 1
 209 0 l 1
 183 42 l 1
EndSplineSet
Substitution2: "'ss02' Alternative numbers set 2 lookups0-1" two.cv12
Substitution2: "'ss01' Alternative numbers set 1 lookups0-1" two.cv02
Substitution2: "'pnum' Proportional Numbers lookups0-1" two.pnum
Substitution2: "sous-table 'sups' Exposant lookups0" two.superior
Substitution2: "'cv12' Alternative digit 2 2-1" two.cv12
Substitution2: "'cv02' Alternative digit 2 1-1" two.cv02
Substitution2: "'dnom' D+AOkA-nominateurs lookups0-1" two.dnom
Substitution2: "sous-table 'subs' Indice lookups0" two.subscript
Substitution2: "'onum' Oldstyle Figures lookups0-1" two.onum
Substitution2: "'tnum' Tabular Numbers lookups0-1" two.tnum
Substitution2: "'numr' Numerators lookups0-1" two.numr
Colour: ffff
EndChar

StartChar: seven
Encoding: 55 55 59
Width: 1198
Flags: HMW
LayerCount: 4
Fore
SplineSet
971 1438 m 5
 1031 1442 l 1
 1031 1442 544 837 480 0 c 1
 428 0 486 0 434 0 c 1
 496 840 971 1438 971 1438 c 5
167 1438 m 1
 167 1480 l 1
 1031 1480 l 1
 1031 1442 l 1
 1001 1438 l 1
 167 1438 l 1
EndSplineSet
Substitution2: "'ss02' Alternative numbers set 2 lookups0-1" seven.cv17
Substitution2: "'ss01' Alternative numbers set 1 lookups0-1" seven.cv07
Substitution2: "'pnum' Proportional Numbers lookups0-1" seven.pnum
Substitution2: "sous-table 'sups' Exposant lookups0" seven.superior
Substitution2: "'cv17' Alternative digit 7 2-1" seven.cv17
Substitution2: "'cv07' Alternative digit 7 1-1" seven.cv07
Substitution2: "'dnom' D+AOkA-nominateurs lookups0-1" seven.dnom
Substitution2: "sous-table 'subs' Indice lookups0" seven.subscript
Substitution2: "'numr' Numerators lookups0-1" seven.numr
Substitution2: "'tnum' Tabular Numbers lookups0-1" seven.tnum
Substitution2: "'onum' Oldstyle Figures lookups0-1" seven.onum
Colour: ffff
EndChar

StartChar: four
Encoding: 52 52 60
Width: 1198
Flags: HMW
LayerCount: 4
Fore
SplineSet
167 425 m 5
 645 1480 l 1
 697 1480 l 1
 215 425 l 1
 739 425 l 1
 739 808 l 1
 785 808 l 1
 785 425 l 1
 1031 425 l 1
 1031 383 l 1
 785 383 l 1
 785 0 l 1
 739 0 l 1
 739 383 l 1
 167 383 l 1
 167 425 l 5
EndSplineSet
Substitution2: "'ss02' Alternative numbers set 2 lookups0-1" four.cv14
Substitution2: "'ss01' Alternative numbers set 1 lookups0-1" four.cv04
Substitution2: "'pnum' Proportional Numbers lookups0-1" four.pnum
Substitution2: "sous-table 'sups' Exposant lookups0" four.superior
Substitution2: "'cv14' Alternative digit 4 2-1" four.cv14
Substitution2: "'cv04' Alternative digit 4 1-1" four.cv04
Substitution2: "'dnom' D+AOkA-nominateurs lookups0-1" four.dnom
Substitution2: "sous-table 'subs' Indice lookups0" four.subscript
Substitution2: "'numr' Numerators lookups0-1" four.numr
Substitution2: "'tnum' Tabular Numbers lookups0-1" four.tnum
Substitution2: "'onum' Oldstyle Figures lookups0-1" four.onum
Colour: ffff
EndChar

StartChar: five
Encoding: 53 53 61
Width: 1198
VWidth: 1000
Flags: HMW
LayerCount: 4
Fore
SplineSet
222 706 m 1
 184 718 l 1
 256 877 371 976 596 976 c 0
 843 976 1048 774 1048 483 c 0
 1048 192 857 -10 596 -10 c 0
 335 -10 155 143 150 381 c 1
 196 394 l 0
 196 161 371 32 596 32 c 0
 853 32 1000 251 1000 483 c 0
 1000 715 843 934 596 934 c 0
 349 934 276 797 222 706 c 1
226 751 m 5
 184 718 l 1
 178 720 l 1
 286 1480 l 1
 336 1480 281 1480 331 1480 c 1
 226 751 l 5
303 1438 m 1
 331 1480 l 1
 988 1480 l 1
 988 1438 l 1
 303 1438 l 1
EndSplineSet
Substitution2: "'ss02' Alternative numbers set 2 lookups0-1" five.cv15
Substitution2: "'ss01' Alternative numbers set 1 lookups0-1" five.cv05
Substitution2: "'pnum' Proportional Numbers lookups0-1" five.pnum
Substitution2: "sous-table 'sups' Exposant lookups0" five.superior
Substitution2: "'cv15' Alternative digit 5 2-1" five.cv15
Substitution2: "'cv05' Alternative digit 5 1-1" five.cv05
Substitution2: "'dnom' D+AOkA-nominateurs lookups0-1" five.dnom
Substitution2: "sous-table 'subs' Indice lookups0" five.subscript
Substitution2: "'numr' Numerators lookups0-1" five.numr
Substitution2: "'tnum' Tabular Numbers lookups0-1" five.tnum
Substitution2: "'onum' Oldstyle Figures lookups0-1" five.onum
Colour: ffff
EndChar

StartChar: one
Encoding: 49 49 62
Width: 1198
Flags: HMW
LayerCount: 4
Fore
SplineSet
640 1084 m 1
 305 1084 l 1
 305 1126 l 1
 449 1126 l 2
 616 1126 640 1154 640 1336 c 2
 640 1480 l 1
 686 1480 l 1
 686 1040 l 1
 686 0 l 1
 640 0 l 1
 640 1084 l 1
EndSplineSet
Substitution2: "'ss09' Bar below digit 1-1" one.ss09
Substitution2: "'ss02' Alternative numbers set 2 lookups0-1" one.cv11
Substitution2: "'ss01' Alternative numbers set 1 lookups0-1" one.cv01
Substitution2: "sous-table 'sups' Exposant lookups0" one.superior
Substitution2: "'cv11' Alternative digit 1 2-1" one.cv11
Substitution2: "'cv01' Alternative digit 1 1-1" one.cv01
Substitution2: "'dnom' D+AOkA-nominateurs lookups0-1" one.dnom
Substitution2: "'pnum' Proportional Numbers lookups0-1" one.pnum
Substitution2: "'onum' Oldstyle Figures lookups0-1" one.onum
Substitution2: "'tnum' Tabular Numbers lookups0-1" one.tnum
Substitution2: "'numr' Numerators lookups0-1" one.numr
Substitution2: "sous-table 'subs' Indice lookups0" one.subscript
Colour: ffff
EndChar

StartChar: period
Encoding: 46 46 63
Width: 488
VWidth: 1000
Flags: HMW
LayerCount: 4
Fore
SplineSet
180 54 m 4
 180 90 208 118 244 118 c 4
 280 118 308 90 308 54 c 4
 308 18 280 -10 244 -10 c 4
 208 -10 180 18 180 54 c 4
EndSplineSet
Colour: ff00
EndChar

StartChar: comma
Encoding: 44 44 64
Width: 523
VWidth: 1000
Flags: HMW
LayerCount: 4
Back
SplineSet
736 -150 m 4xf0
 736 -80 792 -20 862 -20 c 4
 932 -20 990 -80 990 -150 c 4
 990 -220 932 -278 862 -278 c 4
 792 -278 736 -220 736 -150 c 4xf0
EndSplineSet
Fore
SplineSet
180 54 m 4
 180 90 208 118 244 118 c 4
 280 118 308 90 308 54 c 4
 308 18 280 -10 244 -10 c 4
 208 -10 180 18 180 54 c 4
180 -204 m 5
 230 -191 297 -130 297 -40 c 4
 297 40 244 73 244 73 c 5
 244 118 l 5
 306 118 343 40 343 -40 c 4
 343 -150 260 -226 192 -246 c 5
 180 -204 l 5
EndSplineSet
Colour: ff00
EndChar

StartChar: colon
Encoding: 58 58 65
Width: 488
VWidth: 1000
Flags: HMW
LayerCount: 4
Fore
SplineSet
180 930 m 4
 180 966 208 994 244 994 c 4
 280 994 308 966 308 930 c 4
 308 894 280 866 244 866 c 4
 208 866 180 894 180 930 c 4
180 54 m 0
 180 90 208 118 244 118 c 0
 280 118 308 90 308 54 c 0
 308 18 280 -10 244 -10 c 0
 208 -10 180 18 180 54 c 0
EndSplineSet
Colour: ff00
EndChar

StartChar: semicolon
Encoding: 59 59 66
Width: 523
VWidth: 1000
Flags: HMW
LayerCount: 4
Fore
SplineSet
180 54 m 0
 180 90 208 118 244 118 c 0
 280 118 308 90 308 54 c 0
 308 18 280 -10 244 -10 c 0
 208 -10 180 18 180 54 c 0
180 -204 m 1
 230 -191 297 -130 297 -40 c 0
 297 40 244 73 244 73 c 1
 244 118 l 1
 306 118 343 40 343 -40 c 0
 343 -150 260 -226 192 -246 c 1
 180 -204 l 1
180 931 m 0
 180 967 208 995 244 995 c 0
 280 995 308 967 308 931 c 0
 308 895 280 867 244 867 c 0
 208 867 180 895 180 931 c 0
EndSplineSet
Colour: ff00
EndChar

StartChar: slash
Encoding: 47 47 67
Width: 862
VWidth: 1000
Flags: HMW
LayerCount: 4
Fore
SplineSet
772 1640 m 5
 138 -200 l 5
 90 -200 l 1
 724 1640 l 1
 772 1640 l 5
EndSplineSet
Colour: ff00
EndChar

StartChar: parenleft
Encoding: 40 40 68
Width: 801
Flags: HMW
LayerCount: 4
Fore
SplineSet
180 660 m 4
 180 1301 556 1605 688 1660 c 1
 710 1625 l 17
 571 1568 225 1261 225 660 c 0
 225 60 572 -249 711 -306 c 9
 689 -341 l 1
 557 -286 180 20 180 660 c 4
EndSplineSet
Colour: ff00
EndChar

StartChar: exclam
Encoding: 33 33 69
Width: 488
VWidth: 1000
Flags: HMW
LayerCount: 4
Fore
SplineSet
180 54 m 4
 180 90 208 118 244 118 c 0
 280 118 308 90 308 54 c 0
 308 18 280 -10 244 -10 c 0
 208 -10 180 18 180 54 c 4
217 1480 m 1
 271 1480 l 1
 267 452 l 1
 221 452 l 1
 217 1480 l 1
EndSplineSet
Colour: ff00
EndChar

StartChar: question
Encoding: 63 63 70
Width: 1103
VWidth: 1000
Flags: HMW
LayerCount: 4
Fore
SplineSet
548 1450 m 4
 396 1450 186 1334 186 1046 c 0
 186 1042 186 1039 187 1033 c 1
 140 1046 l 0
 140 1326 330 1490 548 1490 c 0
 766 1490 963 1350 963 1080 c 0
 963 810 752 670 548 670 c 0
 548 710 l 0
 695 710 918 812 918 1080 c 0
 918 1348 700 1450 548 1450 c 4
488 54 m 0
 488 90 516 118 552 118 c 0
 588 118 616 90 616 54 c 0
 616 18 588 -10 552 -10 c 0
 516 -10 488 18 488 54 c 0
525 452 m 1
 525 710 l 1
 571 710 l 1
 571 452 l 1
 525 452 l 1
EndSplineSet
Colour: ff00
EndChar

StartChar: quotesingle
Encoding: 39 39 71
Width: 406
Flags: HMW
LayerCount: 4
Fore
SplineSet
183 968 m 25
 180 1480 l 25
 226 1480 l 25
 223 968 l 25
 183 968 l 25
EndSplineSet
Colour: ff00
EndChar

StartChar: quotedbl
Encoding: 34 34 72
Width: 612
Flags: HMW
LayerCount: 4
Fore
SplineSet
389 968 m 25
 386 1480 l 25
 432 1480 l 25
 429 968 l 25
 389 968 l 25
183 968 m 25
 180 1480 l 25
 226 1480 l 25
 223 968 l 25
 183 968 l 25
EndSplineSet
Colour: ff00
EndChar

StartChar: bracketleft
Encoding: 91 91 73
Width: 840
Flags: HMW
LayerCount: 4
Fore
SplineSet
750 1600 m 25
 225 1600 l 25
 225 -280 l 29
 750 -280 l 29
 750 -320 l 25
 180 -320 l 25
 180 1640 l 25
 750 1640 l 25
 750 1600 l 25
EndSplineSet
Colour: ff00
EndChar

StartChar: bracketright
Encoding: 93 93 74
Width: 840
Flags: HMW
LayerCount: 4
Fore
SplineSet
90 1600 m 29
 90 1640 l 29
 660 1640 l 25
 660 -320 l 25
 90 -320 l 25
 90 -280 l 25
 615 -280 l 25
 615 1600 l 25
 90 1600 l 29
EndSplineSet
Colour: ff00
EndChar

StartChar: parenright
Encoding: 41 41 75
Width: 801
Flags: HMW
LayerCount: 4
Fore
SplineSet
621 660 m 4
 621 20 244 -286 112 -341 c 5
 90 -306 l 21
 229 -249 576 60 576 660 c 4
 576 1261 230 1568 91 1625 c 13
 113 1660 l 5
 245 1605 621 1301 621 660 c 4
EndSplineSet
Colour: ff00
EndChar

StartChar: braceleft
Encoding: 123 123 76
Width: 739
VWidth: 1000
Flags: HMW
LayerCount: 4
Fore
SplineSet
417 20 m 2
 417 -160 482 -270 649 -270 c 1
 649 -310 l 1
 455 -310 372 -200 372 20 c 10
 372 350 l 2
 372 530 307 640 140 640 c 1
 140 680 l 1
 334 680 417 570 417 350 c 2
 417 20 l 2
417 1300 m 6
 417 970 l 2
 417 750 334 640 140 640 c 1
 140 680 l 1
 307 680 372 790 372 970 c 2
 372 1300 l 18
 372 1520 455 1630 649 1630 c 1
 649 1590 l 1
 482 1590 417 1480 417 1300 c 6
EndSplineSet
Colour: ff00
EndChar

StartChar: braceright
Encoding: 125 125 77
Width: 739
VWidth: 1000
Flags: HMW
LayerCount: 4
Fore
SplineSet
322 20 m 6
 322 350 l 6
 322 570 405 680 599 680 c 5
 599 640 l 5
 432 640 367 530 367 350 c 6
 367 20 l 22
 367 -200 284 -310 90 -310 c 5
 90 -270 l 5
 257 -270 322 -160 322 20 c 6
322 1300 m 6
 322 1480 257 1590 90 1590 c 5
 90 1630 l 5
 284 1630 367 1520 367 1300 c 14
 367 970 l 6
 367 790 432 680 599 680 c 5
 599 640 l 5
 405 640 322 750 322 970 c 6
 322 1300 l 6
EndSplineSet
Colour: ff00
EndChar

StartChar: backslash
Encoding: 92 92 78
Width: 862
VWidth: 1000
Flags: HMW
LayerCount: 4
Fore
SplineSet
90 1640 m 5
 138 1640 l 1
 772 -200 l 1
 724 -200 l 5
 90 1640 l 5
EndSplineSet
Colour: ff00
EndChar

StartChar: bar
Encoding: 124 124 79
Width: 404
Flags: HMW
LayerCount: 4
Fore
SplineSet
224 1640 m 25
 224 -440 l 25
 180 -440 l 1
 180 1640 l 1
 224 1640 l 25
EndSplineSet
Colour: ff00
EndChar

StartChar: numbersign
Encoding: 35 35 80
Width: 1432
VWidth: 1000
Flags: HMW
LayerCount: 4
Fore
SplineSet
180 500 m 1
 180 540 l 1
 1218 540 l 1
 1218 500 l 1
 180 500 l 1
214 940 m 1
 214 980 l 1
 1252 980 l 1
 1252 940 l 1
 214 940 l 1
985 1480 m 1
 1026 1480 l 5
 856 0 l 5
 806 0 864 0 814 0 c 1
 985 1480 l 1
576 1480 m 1
 618 1480 l 5
 447 0 l 5
 397 0 456 0 406 0 c 1
 576 1480 l 1
EndSplineSet
Colour: ff00
EndChar

StartChar: gravecomb
Encoding: 768 768 83
Width: 0
VWidth: 1000
Flags: HMW
AnchorPoint: "circumflex_left" 697 1092 mark 0
AnchorPoint: "top_center" 642 1040 mark 0
LayerCount: 4
Fore
SplineSet
620 1224 m 5
 422 1480 l 5
 478 1480 l 5
 664 1224 l 5
 620 1224 l 5
EndSplineSet
Colour: ffff00
EndChar

StartChar: acutecomb
Encoding: 769 769 84
Width: 0
VWidth: 1000
Flags: HMW
AnchorPoint: "circumflex_right" 587 1092 mark 0
AnchorPoint: "top_center" 642 1040 mark 0
LayerCount: 4
Fore
SplineSet
664 1224 m 5
 620 1224 l 5
 806 1480 l 5
 862 1480 l 5
 664 1224 l 5
EndSplineSet
Colour: ffff00
EndChar

StartChar: uni0302
Encoding: 770 770 85
Width: 0
VWidth: 1000
Flags: HMW
AnchorPoint: "top_center" 642 1040 mark 0
LayerCount: 4
Fore
SplineSet
812 1224 m 5
 614 1480 l 5
 670 1480 l 5
 856 1224 l 5
 812 1224 l 5
472 1224 m 5
 428 1224 l 5
 614 1480 l 5
 670 1480 l 5
 472 1224 l 5
EndSplineSet
Colour: ffff00
EndChar

StartChar: tildecomb
Encoding: 771 771 86
Width: 0
VWidth: 1000
Flags: HMW
AnchorPoint: "top_center" 642 1040 mark 0
LayerCount: 4
Fore
SplineSet
381 1241 m 5
 341 1252 l 5
 355 1388 415 1490 510 1490 c 4
 650 1490 658 1274 766 1274 c 4
 818 1274 885 1330 895 1480 c 5
 935 1469 l 5
 921 1333 861 1234 766 1234 c 4
 626 1234 618 1450 510 1450 c 4
 458 1450 391 1391 381 1241 c 5
EndSplineSet
Colour: ffff00
EndChar

StartChar: uni0308
Encoding: 776 776 87
Width: 0
VWidth: 1000
Flags: HMW
AnchorPoint: "top_center" 642 1040 mark 0
AnchorPoint: "dieresis_center" 641 1350 basechar 0
LayerCount: 4
Fore
SplineSet
737 1352 m 4
 737 1388 765 1416 801 1416 c 4
 837 1416 865 1388 865 1352 c 4
 865 1316 837 1288 801 1288 c 4
 765 1288 737 1316 737 1352 c 4
417 1352 m 4
 417 1388 445 1416 481 1416 c 4
 517 1416 545 1388 545 1352 c 4
 545 1316 517 1288 481 1288 c 4
 445 1288 417 1316 417 1352 c 4
EndSplineSet
Colour: ff00
EndChar

StartChar: uni030A
Encoding: 778 778 88
Width: 0
VWidth: 997
Flags: HMW
AnchorPoint: "top_center" 642 1040 mark 0
LayerCount: 4
Fore
SplineSet
455 1347 m 4
 455 1451 538 1534 642 1534 c 4
 746 1534 829 1451 829 1347 c 4
 829 1243 746 1160 642 1160 c 4
 538 1160 455 1243 455 1347 c 4
500 1347 m 4
 500 1265 560 1200 642 1200 c 4
 724 1200 784 1265 784 1347 c 4
 784 1429 724 1494 642 1494 c 4
 560 1494 500 1429 500 1347 c 4
EndSplineSet
Colour: ffc71c
EndChar

StartChar: ccedilla
Encoding: 231 231 89
Width: 1101
Flags: HMW
LayerCount: 4
Back
SplineSet
483 -220 m 4
 483 -244 504 -263 536 -263 c 4
 568 -263 589 -244 589 -220 c 4
 589 -196 568 -177 536 -177 c 4
 504 -177 483 -196 483 -220 c 4
356 -220 m 4
 356 -130 436 -60 536 -60 c 4
 636 -60 716 -130 716 -220 c 4
 716 -310 636 -380 536 -380 c 4
 436 -380 356 -310 356 -220 c 4
EndSplineSet
Fore
Refer: 90 807 N 1 0 0 1 -64 0 2
Refer: 10 99 N 1 0 0 1 0 0 3
Substitution2: "sous-table 'smcp' Bas-de-casse vers petites capitales dans Latin lookup 0" ccedilla.sc
Colour: ff
EndChar

StartChar: uni0327
Encoding: 807 807 90
Width: 0
VWidth: 1000
Flags: HMW
AnchorPoint: "bottom_cedilla" 642 -20 mark 0
LayerCount: 4
Fore
SplineSet
523 -291 m 1
 560 -269 l 1
 579 -309 619 -330 657 -330 c 0
 709 -330 766 -290 766 -216 c 0
 766 -142 709 -102 657 -102 c 0
 619 -102 598 -123 579 -163 c 1
 543 -141 l 1
 569 -95 597 -62 657 -62 c 0
 747 -62 811 -136 811 -216 c 0
 811 -296 747 -370 657 -370 c 0
 597 -370 549 -337 523 -291 c 1
621 0 m 1
 663 0 l 1
 580 -136 l 1
 579 -163 l 1
 543 -141 l 1
 621 0 l 1
EndSplineSet
Colour: ffc71c
EndChar

StartChar: dotlessi
Encoding: 305 305 141
Width: 405
Flags: HMW
AnchorPoint: "top_center" 203 1040 basechar 0
AnchorPoint: "bottom_center" 203 0 basechar 0
AnchorPoint: "bottom_right" 225 0 basechar 0
LayerCount: 4
Fore
SplineSet
180 0 m 1
 180 1040 l 1
 225 1040 l 5
 225 0 l 5
 180 0 l 1
EndSplineSet
LCarets2: 1 0
Ligature2: "'liga' Soft Dotted i j" i uni030A
Colour: ff00
EndChar

StartChar: dollar
Encoding: 36 36 142
Width: 1175
VWidth: 1000
Flags: HMW
LayerCount: 4
Fore
SplineSet
586 1448 m 0
 401 1448 223 1364 223 1124 c 0
 223 884 433 816 586 769 c 0
 854 688 1035 616 1035 356 c 0
 1035 96 855 -10 586 -10 c 0
 325 -10 145 143 140 381 c 1
 186 394 l 0
 186 161 361 32 586 32 c 0
 780 32 989 106 989 356 c 0
 989 606 787 660 586 721 c 0
 318 803 177 894 177 1124 c 0
 177 1354 330 1490 586 1490 c 0
 847 1490 1007 1347 1012 1109 c 1
 966 1096 l 0
 966 1329 811 1448 586 1448 c 0
609 1660 m 29
 609 -180 l 29
 563 -180 l 5
 563 1660 l 5
 609 1660 l 29
EndSplineSet
Substitution2: "'ss08' Alternative ampersand, dollar and cent lookups0-1" dollar.ss08
Colour: ffff
EndChar

StartChar: plus
Encoding: 43 43 143
Width: 1198
Flags: HMW
LayerCount: 4
Fore
SplineSet
577 1079 m 1
 621 1079 l 1
 621 241 l 17
 577 241 l 1
 577 1079 l 1
180 640 m 5
 180 680 l 5
 1018 680 l 17
 1018 640 l 1
 180 640 l 5
EndSplineSet
Substitution2: "'ss07' Bigger basic math operators lookups0-1" plus.ss07
Colour: ff00
EndChar

StartChar: hyphen
Encoding: 45 45 144
Width: 1018
Flags: HMW
LayerCount: 4
Fore
SplineSet
180 640 m 1
 180 680 l 5
 838 680 l 21
 838 640 l 1
 180 640 l 1
EndSplineSet
Substitution2: "'ss07' Bigger basic math operators lookups0-1" hyphen.ss07
Colour: ff00
EndChar

StartChar: equal
Encoding: 61 61 145
Width: 1198
Flags: HMW
LayerCount: 4
Fore
SplineSet
1018 820 m 5
 1018 780 l 5
 180 780 l 21
 180 820 l 5
 1018 820 l 5
180 500 m 5
 180 540 l 5
 1018 540 l 21
 1018 500 l 5
 180 500 l 5
EndSplineSet
Colour: ff00
EndChar

StartChar: percent
Encoding: 37 37 146
Width: 1566
VWidth: 1000
Flags: HMW
LayerCount: 4
Fore
SplineSet
185 1180 m 0
 185 1025 295 910 450 910 c 0
 605 910 715 1025 715 1180 c 0
 715 1335 605 1450 450 1450 c 0
 295 1450 185 1335 185 1180 c 0
140 1180 m 0
 140 1358 272 1490 450 1490 c 0
 628 1490 760 1358 760 1180 c 0
 760 1002 628 870 450 870 c 0
 272 870 140 1002 140 1180 c 0
891 300 m 0
 891 145 1001 30 1156 30 c 0
 1311 30 1421 145 1421 300 c 0
 1421 455 1311 570 1156 570 c 0
 1001 570 891 455 891 300 c 0
846 300 m 0
 846 478 978 610 1156 610 c 0
 1334 610 1466 478 1466 300 c 0
 1466 122 1334 -10 1156 -10 c 0
 978 -10 846 122 846 300 c 0
1285 1457 m 5
 358 0 l 1
 321 23 l 1
 1248 1480 l 1
 1285 1457 l 5
EndSplineSet
Colour: ff00
EndChar

StartChar: degree
Encoding: 176 176 147
Width: 900
VWidth: 1000
Flags: HMW
LayerCount: 4
Fore
SplineSet
185 1180 m 4
 185 1025 295 910 450 910 c 4
 605 910 715 1025 715 1180 c 4
 715 1335 605 1450 450 1450 c 4
 295 1450 185 1335 185 1180 c 4
140 1180 m 4
 140 1358 272 1490 450 1490 c 4
 628 1490 760 1358 760 1180 c 4
 760 1002 628 870 450 870 c 4
 272 870 140 1002 140 1180 c 4
EndSplineSet
Colour: ff00
EndChar

StartChar: ampersand
Encoding: 38 38 148
Width: 1435
VWidth: 1000
Flags: HMW
LayerCount: 4
Back
SplineSet
1060 600 m 4
 1060 360 920 140 640 140 c 4
 440 140 320 262 320 418 c 4
 140 418 l 4
 140 175 340 -20 640 -20 c 4
 1060 -20 1223 265 1243 550 c 5
 1060 600 l 4
EndSplineSet
Fore
SplineSet
449 875 m 1
 397 937 322 1032 322 1138 c 0
 322 1357 463 1490 649 1490 c 0
 835 1490 977 1372 977 1172 c 0
 932 1172 l 0
 932 1402 755 1450 649 1450 c 0
 554 1450 367 1398 367 1138 c 0
 367 1068 401 995 478 903 c 9
 1226 0 l 1
 1194 0 1204 0 1172 0 c 1
 449 875 l 1
249 378 m 1
 249 142 432 32 649 32 c 16
 859 32 1123 163 1123 586 c 0
 1169 573 l 1
 1169 185 910 -10 649 -10 c 0
 385 -10 209 135 209 378 c 0
 209 621 389 708 649 858 c 4
 792 940 932 1022 932 1172 c 1
 977 1172 l 1
 977 1012 831 913 649 808 c 0
 407 668 249 601 249 378 c 1
EndSplineSet
Layer: 2
SplineSet
355.7890625 895.231445312 m 5
 300.015625 970.026367188 268 1045.75 268 1148 c 0
 268 1367 440 1500 640 1500 c 0
 840 1500 1012 1367 1012 1148 c 0
 832 1148 l 0
 832 1268 748 1340 640 1340 c 0
 532 1340 448 1288 448 1148 c 0
 448 1068 463.116210938 1031.30761719 500.055664062 984.02734375 c 5
 355.7890625 895.231445312 l 5
832 1148 m 1
 1012 1148 l 1025
EndSplineSet
Layer: 3
SplineSet
499 986 m 1
 356 895 l 1
 1081 0 l 5
 1152.33300781 0 1223.66699219 0 1295 0 c 5
 499 986 l 1
140 418 m 1
 140 661 380.192382812 776 640 926 c 0
 769.904296875 1001 832 1028 832 1148 c 1
 1012 1148 l 1
 1012 948 839.185546875 855 640 740 c 0
 466.794921875 640 320 561 320 418 c 1
 140 418 l 1
EndSplineSet
Substitution2: "'ss08' Alternative ampersand, dollar and cent lookups0-1" ampersand.ss08
Colour: ff00
EndChar

StartChar: asterisk
Encoding: 42 42 149
Width: 1074
Flags: HMW
LayerCount: 4
Back
SplineSet
457 1070 m 21
 537 1070 l 5
 617 1070 l 13
 629 1480 l 29
 445 1480 l 29
 457 1070 l 21
EndSplineSet
Fore
SplineSet
140 1210 m 25
 154 1254 l 25
 543 1125 l 17
 537 1106 l 1
 531 1087 l 9
 140 1210 l 25
316 760 m 25
 278 787 l 25
 521 1117 l 17
 537 1106 l 1
 554 1094 l 9
 316 760 l 25
796 787 m 25
 758 760 l 25
 520 1094 l 17
 537 1106 l 1
 553 1117 l 9
 796 787 l 25
920 1254 m 25
 934 1210 l 25
 543 1087 l 17
 537 1106 l 1
 531 1125 l 9
 920 1254 l 25
514 1516 m 25
 560 1516 l 25
 557 1106 l 17
 537 1106 l 1
 517 1106 l 9
 514 1516 l 25
EndSplineSet
Colour: ff00
EndChar

StartChar: less
Encoding: 60 60 150
Width: 1198
Flags: HMW
LayerCount: 4
Fore
SplineSet
180 637 m 1
 180 683 l 1
 1018 1062 l 1
 1018 1019 l 1
 220 660 l 1
 1018 301 l 1
 1018 258 l 1
 180 637 l 1
EndSplineSet
Colour: ff00
EndChar

StartChar: greater
Encoding: 62 62 151
Width: 1198
Flags: HMW
LayerCount: 4
Fore
SplineSet
1018 637 m 1
 180 258 l 1
 180 301 l 1
 978 660 l 1
 180 1019 l 1
 180 1062 l 1
 1018 683 l 1
 1018 637 l 1
EndSplineSet
Colour: ff00
EndChar

StartChar: at
Encoding: 64 64 152
Width: 2080
VWidth: 1000
Flags: HMW
LayerCount: 4
Back
SplineSet
1277.51367188 580 m 4
 1252.63769531 403 1150.14648438 307 1000.14648438 307 c 4
 850.146484375 307 774.637695312 403 799.513671875 580 c 4
 824.389648438 757 926.741210938 852 1076.74121094 852 c 4
 1226.74121094 852 1302.38964844 757 1277.51367188 580 c 4
1439.51367188 580 m 4
 1404.37890625 330 1227.79980469 148 977.799804688 148 c 4
 727.799804688 148 584.37890625 330 619.513671875 580 c 4
 654.6484375 830 849.227539062 1012 1099.22753906 1012 c 4
 1199.22753906 1012 1269.86816406 956.568359375 1318.48632812 900 c 5
 1325.23242188 948 1331.97851562 996 1331.97851562 996 c 5
 1497.97851562 996 l 5
 1497.97851562 996 1490.67089844 944 1479.14648438 862 c 5
 1439.51367188 580 l 4
EndSplineSet
Fore
SplineSet
1040 1490 m 4
 1560 1490 1940 1180 1940 660 c 0
 1895 660 l 0
 1895 1160 1530 1450 1040 1450 c 0
 550 1450 185 1070 185 580 c 0
 185 90 550 -290 1040 -290 c 0
 1225 -290 1384 -238 1520 -145 c 1
 1544 -185 l 1
 1403 -277 1231 -330 1040 -330 c 0
 520 -330 140 60 140 580 c 0
 140 1100 520 1490 1040 1490 c 4
1076 962 m 0
 876 962 688 817 655 579 c 0
 652 556 650 533 650 512 c 0
 650 304 784 197 965 197 c 0
 1165 197 1354 342 1387 580 c 0
 1390 603 1392 625 1392 646 c 0
 1392 844 1257 962 1076 962 c 0
1082 1002 m 0
 1322 1002 1388 858 1415 780 c 1
 1446 986 l 1
 1491 986 l 1
 1432 580 l 0
 1397 330 1211 157 959 157 c 0
 734 157 605 307 605 507 c 0
 605 530 607 554 610 579 c 0
 645 829 832 1002 1082 1002 c 0
1592 148 m 0
 1423 148 1378 304 1378 448 c 0
 1378 495 1382 541 1387 580 c 1
 1432 580 l 1
 1427 532 1425 489 1425 450 c 0
 1425 268 1485 187 1605 187 c 0
 1775 187 1895 371 1895 660 c 1
 1940 660 l 1
 1940 360 1832 148 1592 148 c 0
EndSplineSet
Colour: ff00
EndChar

StartChar: asciicircum
Encoding: 94 94 153
Width: 1068
VWidth: 1000
Flags: HMW
LayerCount: 4
Fore
SplineSet
881 656 m 1
 535 1430 l 5
 187 656 l 1
 140 656 l 1
 512 1480 l 1
 556 1480 l 1
 928 656 l 1
 881 656 l 1
EndSplineSet
Colour: ff00
EndChar

StartChar: underscore
Encoding: 95 95 154
Width: 1198
Flags: HMW
LayerCount: 4
Fore
SplineSet
0 0 m 1
 1198 0 l 5
 1198 -40 l 5
 0 -40 l 1
 0 0 l 1
EndSplineSet
Colour: ff00
EndChar

StartChar: grave
Encoding: 96 96 155
Width: 482
VWidth: 1000
Flags: HMW
AnchorPoint: "top_center" 340 1040 mark 0
AnchorPoint: "top_left_O2" 529 1224 mark 0
AnchorPoint: "top_left" 542 1480 mark 0
AnchorPoint: "dieresis_center" 340 1140 mark 0
LayerCount: 4
Fore
SplineSet
318 1224 m 1
 120 1480 l 1
 176 1480 l 1
 362 1224 l 1
 318 1224 l 1
EndSplineSet
Colour: ffff00
EndChar

StartChar: asciitilde
Encoding: 126 126 156
Width: 1198
VWidth: 1000
Flags: HMW
LayerCount: 4
Fore
SplineSet
224 517 m 5
 180 530 l 5
 201 725 277 830 420 830 c 4
 612 830 618 522 778 522 c 4
 860 522 959 576 974 795 c 5
 1018 782 l 5
 997 587 921 482 778 482 c 4
 586 482 580 790 420 790 c 4
 338 790 239 736 224 517 c 5
EndSplineSet
Substitution2: "'ss07' Bigger basic math operators lookups0-1" asciitilde.ss07
Colour: ff00
EndChar

StartChar: exclamdown
Encoding: 161 161 157
Width: 488
VWidth: 1000
Flags: HMW
LayerCount: 4
Fore
SplineSet
308 986 m 4
 308 950 280 922 244 922 c 0
 208 922 180 950 180 986 c 0
 180 1022 208 1050 244 1050 c 0
 280 1050 308 1022 308 986 c 4
271 -440 m 1
 217 -440 l 1
 221 588 l 1
 267 588 l 1
 271 -440 l 1
EndSplineSet
Colour: ff00
EndChar

StartChar: cent
Encoding: 162 162 158
Width: 1101
VWidth: 1000
Flags: HMW
LayerCount: 4
Fore
SplineSet
790 1220 m 29
 410 -180 l 29
 367 -180 l 5
 747 1220 l 5
 790 1220 l 29
185 520 m 0
 185 184 410 30 578 30 c 0
 698 30 846 108 922 274 c 1
 961 252 l 1
 887 90 745 -10 578 -10 c 0
 331 -10 140 208 140 520 c 0
 140 832 331 1050 578 1050 c 0
 745 1050 887 950 961 788 c 1
 922 766 l 1
 846 932 698 1010 578 1010 c 0
 410 1010 185 856 185 520 c 0
EndSplineSet
Substitution2: "'ss08' Alternative ampersand, dollar and cent lookups0-1" cent.ss08
Colour: ff00
EndChar

StartChar: sterling
Encoding: 163 163 159
Width: 1276
VWidth: 1000
Flags: HMW
LayerCount: 4
Fore
SplineSet
362 720 m 1
 730 720 l 1
 730 760 l 1
 362 760 l 1
 140 760 l 1
 140 714 140 766 140 720 c 1
 362 720 l 1
276 1040 m 4
 276 1298 427 1448 661 1448 c 0
 895 1448 1044 1268 1044 1010 c 0
 1044 1006 1044 1003 1043 997 c 1
 1090 1010 l 0
 1090 1310 907 1490 661 1490 c 0
 415 1490 231 1340 231 1040 c 0
 231 768 399 654 399 474 c 0
 399 354 250 112 168 37 c 1
 227 18 l 1
 261 72 444 280 444 490 c 0
 444 650 276 800 276 1040 c 4
1123 107 m 1
 1083 76 991 30 901 30 c 0
 744 30 694 128 518 128 c 0
 395 128 247 82 168 37 c 1
 179 -10 l 1
 277 44 414 88 518 88 c 0
 675 88 725 -10 901 -10 c 0
 1007 -10 1096 33 1136 60 c 1
 1123 107 l 1
EndSplineSet
Layer: 2
SplineSet
752 1040 m 4
 752 768 860 700 860 520 c 4
 860 400 806 215 752 104 c 5
 933 65 l 5
 968 155 1040 340 1040 540 c 4
 1040 740 932 800 932 1040 c 4
 752 1040 l 4
EndSplineSet
Colour: ff00
EndChar

StartChar: currency
Encoding: 164 164 160
Width: 1304
Flags: HMW
LayerCount: 4
Fore
SplineSet
954 926 m 17
 922 958 l 9
 1132 1168 l 25
 1164 1136 l 25
 954 926 l 17
350 386 m 17
 382 354 l 9
 172 144 l 25
 140 176 l 25
 350 386 l 17
922 354 m 17
 954 386 l 9
 1164 176 l 25
 1132 144 l 25
 922 354 l 17
382 958 m 17
 350 926 l 9
 140 1136 l 25
 172 1168 l 25
 382 958 l 17
222 656 m 0
 222 897 399 1086 652 1086 c 0
 905 1086 1082 897 1082 656 c 0
 1082 415 905 226 652 226 c 0
 399 226 222 415 222 656 c 0
267 656 m 4
 267 441 437 266 652 266 c 0
 867 266 1037 441 1037 656 c 0
 1037 871 867 1046 652 1046 c 0
 437 1046 267 871 267 656 c 4
EndSplineSet
Colour: ff00
EndChar

StartChar: yen
Encoding: 165 165 161
Width: 1342
VWidth: 1000
Flags: HMW
LayerCount: 4
Fore
SplineSet
263 663 m 1
 263 705 l 1
 1079 705 l 17
 1079 663 l 1
 263 663 l 1
263 375 m 1
 263 417 l 1
 1079 417 l 17
 1079 375 l 1
 263 375 l 1
648 0 m 1
 648 740 l 1
 694 740 l 1
 694 0 l 1
 648 0 l 1
685 719 m 1
 659 716 l 1
 120 1480 l 5
 174 1480 l 1
 671 778 l 1
 1168 1480 l 1
 1222 1480 l 1
 685 719 l 1
EndSplineSet
Colour: ffff
EndChar

StartChar: brokenbar
Encoding: 166 166 162
Width: 405
Flags: HMW
LayerCount: 4
Fore
SplineSet
180 570 m 1
 225 570 l 1
 225 -320 l 9
 180 -320 l 1
 180 570 l 1
225 750 m 1
 180 750 l 1
 180 1640 l 1
 225 1640 l 17
 225 750 l 1
EndSplineSet
Colour: ff00
EndChar

StartChar: section
Encoding: 167 167 163
Width: 1118
Flags: HMW
LayerCount: 4
Fore
SplineSet
559 820 m 4
 365 820 185 751 185 531 c 0
 185 305 371 273 559 223 c 8
 771 166 978 105 978 -131 c 0
 978 -367 828 -460 559 -460 c 0
 338 -460 140 -322 140 -94 c 1
 186 -81 l 0
 186 -314 384 -420 559 -420 c 0
 753 -420 933 -367 933 -131 c 0
 933 59 747 127 559 177 c 0
 347 234 140 265 140 531 c 0
 140 747 290 860 559 860 c 0
 559 820 l 4
559 220 m 0
 753 220 933 289 933 509 c 0
 933 735 760 756 559 817 c 0
 291 899 183 972 183 1182 c 0
 183 1372 343 1490 559 1490 c 0
 780 1490 935 1352 935 1124 c 1
 889 1111 l 0
 889 1344 734 1450 559 1450 c 0
 414 1450 228 1378 228 1182 c 0
 228 962 404 904 559 863 c 0
 829 791 978 745 978 509 c 0
 978 293 828 180 559 180 c 0
 559 220 l 0
EndSplineSet
Colour: ff00
EndChar

StartChar: dieresis
Encoding: 168 168 164
Width: 688
VWidth: 1000
Flags: HMW
LayerCount: 4
Fore
SplineSet
440 1318 m 4
 440 1354 468 1382 504 1382 c 4
 540 1382 568 1354 568 1318 c 4
 568 1282 540 1254 504 1254 c 4
 468 1254 440 1282 440 1318 c 4
120 1318 m 0
 120 1354 148 1382 184 1382 c 0
 220 1382 248 1354 248 1318 c 0
 248 1282 220 1254 184 1254 c 0
 148 1254 120 1282 120 1318 c 0
EndSplineSet
Colour: ff00
EndChar

StartChar: copyright
Encoding: 169 169 165
Width: 1780
Flags: HMW
LayerCount: 4
Fore
SplineSet
170 740 m 4
 170 330 480 20 890 20 c 4
 1300 20 1610 330 1610 740 c 4
 1610 1150 1300 1460 890 1460 c 4
 480 1460 170 1150 170 740 c 4
140 740 m 4
 140 1160 470 1490 890 1490 c 4
 1310 1490 1640 1160 1640 740 c 4
 1640 320 1310 -10 890 -10 c 4
 470 -10 140 320 140 740 c 4
559 740 m 0
 559 1012 739 1145 890 1145 c 0
 997 1145 1118 1079 1180 944 c 1
 1208 960 l 1
 1145 1092 1029 1175 890 1175 c 0
 685 1175 526 995 526 740 c 0
 526 485 685 305 890 305 c 0
 1029 305 1145 388 1208 520 c 1
 1180 536 l 1
 1118 401 997 335 890 335 c 0
 739 335 559 468 559 740 c 0
EndSplineSet
Colour: ff8000
EndChar

StartChar: registered
Encoding: 174 174 166
Width: 1780
Flags: HMW
LayerCount: 4
Fore
SplineSet
170 740 m 0
 170 330 480 20 890 20 c 0
 1300 20 1610 330 1610 740 c 0
 1610 1150 1300 1460 890 1460 c 0
 480 1460 170 1150 170 740 c 0
140 740 m 0
 140 1160 470 1490 890 1490 c 0
 1310 1490 1640 1160 1640 740 c 0
 1640 320 1310 -10 890 -10 c 0
 470 -10 140 320 140 740 c 0
664 311 m 1
 664 1169 l 1
 911 1169 l 1
 1044 1169 1160 1071 1160 923 c 0
 1160 775 1044 677 911 677 c 1
 697 677 l 1
 697 311 l 25
 664 311 l 1
697 1139 m 29
 697 707 l 25
 911 707 l 17
 1041 707 1127 810 1127 923 c 0
 1127 1036 1041 1139 911 1139 c 9
 697 1139 l 29
877 684 m 1
 909 690 l 1
 1168 311 l 1
 1127 311 l 1
 877 684 l 1
EndSplineSet
Colour: ff8000
EndChar

StartChar: questiondown
Encoding: 191 191 167
Width: 1063
VWidth: 1000
Flags: HMW
LayerCount: 4
Fore
SplineSet
535 -410 m 0
 383 -410 165 -308 165 -40 c 0
 165 228 388 330 535 330 c 0
 535 370 l 0
 331 370 120 230 120 -40 c 0
 120 -310 317 -450 535 -450 c 0
 753 -450 943 -286 943 -6 c 0
 896 7 l 1
 897 1 897 -2 897 -6 c 0
 897 -294 687 -410 535 -410 c 0
595 986 m 0
 595 950 567 922 531 922 c 0
 495 922 467 950 467 986 c 0
 467 1022 495 1050 531 1050 c 0
 567 1050 595 1022 595 986 c 0
558 588 m 1
 512 588 l 1
 512 330 l 1
 558 330 l 1
 558 588 l 1
EndSplineSet
Colour: ff00
EndChar

StartChar: acute
Encoding: 180 180 169
Width: 482
VWidth: 1000
Flags: HMW
AnchorPoint: "top_left" 549 1480 mark 0
AnchorPoint: "top_left_O2" 372 1224 mark 0
AnchorPoint: "dieresis_center" 142 1140 mark 0
AnchorPoint: "top_center" 142 1040 mark 0
LayerCount: 4
Fore
SplineSet
164 1224 m 5
 120 1224 l 5
 306 1480 l 5
 362 1480 l 5
 164 1224 l 5
EndSplineSet
Colour: ffff00
EndChar

StartChar: two.superior
Encoding: 178 178 170
Width: 740
Flags: HMW
LayerCount: 4
Fore
SplineSet
111 810 m 1
 111 877 113 987 367 1132 c 0
 530 1225 592 1291 592 1416 c 0
 592 1555 503 1644 370 1644 c 0
 234 1644 148 1533 148 1382 c 0
 148 1380 148 1378 149 1374 c 1
 115 1382 l 1
 115 1561 224 1674 370 1674 c 0
 516 1674 625 1582 625 1416 c 0
 625 1254 502 1173 372 1099 c 0
 253 1031 159 956 145 840 c 1
 630 840 l 1
 630 810 l 1
 143 810 l 1
 120 810 l 1
 111 810 l 1
EndSplineSet
Substitution2: "'tnum' Tabular Numbers lookups0-1" two.superior.tnum
Substitution2: "'pnum' Proportional Numbers lookups0-1" two.superior.pnum
Colour: ff8000
EndChar

StartChar: three.superior
Encoding: 179 179 171
Width: 740
Flags: HMW
LayerCount: 4
Fore
SplineSet
367 1274 m 2
 483 1274 572 1348 572 1459 c 0
 572 1575 483 1644 367 1644 c 0
 237 1644 147 1571 147 1439 c 0
 114 1446 l 1
 117 1585 213 1674 368 1674 c 0
 512 1674 605 1592 605 1462 c 0
 605 1332 513 1267 447 1259 c 1
 518 1245 641 1177 641 1036 c 0
 641 895 528 804 369 804 c 0
 211 804 103 893 100 1032 c 1
 133 1039 l 0
 133 907 236 834 369 834 c 0
 502 834 608 907 608 1039 c 0
 608 1171 478 1244 368 1244 c 2
 319 1244 l 25
 319 1274 l 25
 367 1274 l 2
EndSplineSet
Substitution2: "'tnum' Tabular Numbers lookups0-1" three.superior.tnum
Substitution2: "'pnum' Proportional Numbers lookups0-1" three.superior.pnum
Colour: ff8000
EndChar

StartChar: one.superior
Encoding: 185 185 172
Width: 740
Flags: HMW
LayerCount: 4
Fore
SplineSet
390 1430 m 1
 196 1430 l 1
 196 1461 l 1
 280 1461 l 2
 377 1461 390 1478 390 1584 c 2
 390 1668 l 1
 424 1668 l 1
 424 1413 l 1
 424 810 l 1
 390 810 l 1
 390 1430 l 1
EndSplineSet
Substitution2: "'pnum' Proportional Numbers lookups0-1" one.superior.pnum
Substitution2: "'tnum' Tabular Numbers lookups0-1" one.superior.tnum
Colour: ff8000
EndChar

StartChar: zero.superior
Encoding: 8304 8304 173
Width: 740
Flags: HMW
LayerCount: 4
Fore
SplineSet
130 1239 m 0
 130 972 231 834 370 834 c 0
 509 834 610 972 610 1239 c 0
 610 1506 509 1644 370 1644 c 0
 231 1644 130 1506 130 1239 c 0
97 1239 m 0
 97 1529 213 1674 370 1674 c 0
 527 1674 643 1529 643 1239 c 0
 643 949 527 804 370 804 c 0
 213 804 97 949 97 1239 c 0
EndSplineSet
Substitution2: "'tnum' Tabular Numbers lookups0-1" zero.superior.tnum
Substitution2: "'pnum' Proportional Numbers lookups0-1" zero.superior.pnum
Colour: ff8000
EndChar

StartChar: four.superior
Encoding: 8308 8308 174
Width: 740
Flags: HMW
LayerCount: 4
Fore
SplineSet
434 1668 m 1
 394 1668 l 1
 116 1056 l 1
 116 1032 l 1
 448 1032 l 1
 448 810 l 1
 481 810 l 1
 481 1032 l 1
 624 1032 l 1
 624 1063 l 1
 481 1063 l 1
 481 1279 l 1
 448 1279 l 1
 448 1063 l 1
 158 1063 l 5
 434 1668 l 1
EndSplineSet
Substitution2: "'pnum' Proportional Numbers lookups0-1" four.superior.pnum
Substitution2: "'tnum' Tabular Numbers lookups0-1" four.superior.tnum
Colour: ff8000
EndChar

StartChar: five.superior
Encoding: 8309 8309 175
Width: 740
Flags: HMW
LayerCount: 4
Fore
SplineSet
200 1668 m 5
 216 1668 l 1
 596 1668 l 1
 596 1638 l 1
 214 1638 l 1
 160 1274 l 1
 203 1338 264 1377 370 1377 c 0
 515 1377 636 1259 636 1090 c 0
 636 921 523 804 368 804 c 0
 213 804 107 893 104 1032 c 1
 136 1039 l 1
 136 907 238 834 368 834 c 0
 517 834 602 958 602 1090 c 0
 602 1222 511 1346 368 1346 c 0
 225 1346 183 1269 152 1217 c 1
 124 1225 l 1
 190 1668 l 1
 200 1668 l 5
EndSplineSet
Substitution2: "'pnum' Proportional Numbers lookups0-1" five.superior.pnum
Substitution2: "'tnum' Tabular Numbers lookups0-1" five.superior.tnum
Colour: ff8000
EndChar

StartChar: six.superior
Encoding: 8310 8310 176
Width: 740
Flags: HMW
LayerCount: 4
Fore
SplineSet
127 1157 m 1
 149 1301 254 1377 383 1377 c 0
 528 1377 648 1259 648 1090 c 0
 648 921 528 804 382 804 c 0
 270 804 173 873 134 981 c 0
 116 1022 92 1099 92 1221 c 0
 92 1521 238 1674 425 1674 c 0
 563 1674 620 1594 620 1594 c 1
 602 1567 l 1
 602 1567 552 1644 417 1644 c 0
 282 1644 104 1525 127 1157 c 1
144 1090 m 0
 144 958 231 834 380 834 c 0
 529 834 615 958 615 1090 c 0
 615 1222 523 1346 380 1346 c 0
 237 1346 144 1222 144 1090 c 0
EndSplineSet
Substitution2: "'pnum' Proportional Numbers lookups0-1" six.superior.pnum
Substitution2: "'tnum' Tabular Numbers lookups0-1" six.superior.tnum
Colour: ff8000
EndChar

StartChar: seven.superior
Encoding: 8311 8311 177
Width: 740
Flags: HMW
LayerCount: 4
Fore
SplineSet
116 1638 m 1
 116 1668 l 1
 624 1668 l 1
 624 1641 l 1
 624 1641 341 1292 304 810 c 1
 299 810 276 810 271 810 c 1
 305 1260 547 1590 584 1638 c 1
 116 1638 l 1
EndSplineSet
Substitution2: "'tnum' Tabular Numbers lookups0-1" seven.superior.tnum
Substitution2: "'pnum' Proportional Numbers lookups0-1" seven.superior.pnum
Colour: ff8000
EndChar

StartChar: eight.superior
Encoding: 8312 8312 178
Width: 740
Flags: HMW
LayerCount: 4
Fore
SplineSet
90 1036 m 0
 90 1177 216 1245 288 1259 c 1
 221 1267 119 1332 119 1462 c 0
 119 1592 222 1674 370 1674 c 0
 518 1674 621 1592 621 1462 c 0
 621 1332 520 1267 453 1259 c 1
 525 1245 650 1177 650 1036 c 0
 650 895 534 804 370 804 c 0
 206 804 90 895 90 1036 c 0
152 1459 m 0
 152 1348 251 1274 370 1274 c 0
 489 1274 588 1348 588 1459 c 0
 588 1575 489 1644 370 1644 c 0
 251 1644 152 1575 152 1459 c 0
370 1244 m 0
 257 1244 123 1171 123 1039 c 0
 123 907 233 834 370 834 c 0
 507 834 617 907 617 1039 c 0
 617 1171 483 1244 370 1244 c 0
EndSplineSet
Substitution2: "'tnum' Tabular Numbers lookups0-1" eight.superior.tnum
Substitution2: "'pnum' Proportional Numbers lookups0-1" eight.superior.pnum
Colour: ff8000
EndChar

StartChar: nine.superior
Encoding: 8313 8313 179
Width: 740
Flags: HMW
LayerCount: 4
Fore
SplineSet
613 1321 m 1
 591 1177 486 1101 357 1101 c 0
 212 1101 92 1219 92 1388 c 0
 92 1557 212 1674 358 1674 c 0
 470 1674 567 1605 606 1497 c 0
 624 1456 648 1379 648 1257 c 0
 648 957 502 804 315 804 c 0
 177 804 120 884 120 884 c 1
 138 911 l 1
 138 911 188 834 323 834 c 0
 458 834 636 953 613 1321 c 1
596 1388 m 0
 596 1520 509 1644 360 1644 c 0
 211 1644 125 1520 125 1388 c 0
 125 1256 217 1132 360 1132 c 0
 503 1132 596 1256 596 1388 c 0
EndSplineSet
Substitution2: "'pnum' Proportional Numbers lookups0-1" nine.superior.pnum
Substitution2: "'tnum' Tabular Numbers lookups0-1" nine.superior.tnum
Colour: ff8000
EndChar

StartChar: ordfeminine
Encoding: 170 170 180
Width: 854
Flags: HMW
LayerCount: 4
Fore
SplineSet
140 831 m 5
 140 861 l 5
 714 861 l 5
 714 831 l 5
 140 831 l 5
596 1096 m 1
 556 1024 472 990 389 990 c 0
 270 990 164 1054 164 1193 c 0
 164 1333 276 1397 395 1397 c 0
 468 1397 552 1364 593 1294 c 1
 593 1531 509 1575 394 1575 c 0
 279 1575 205 1499 205 1499 c 1
 188 1528 l 1
 188 1528 264 1605 397 1605 c 0
 515 1605 626 1559 626 1291 c 2
 626 1232 l 1
 626 1213 l 1
 626 1132 l 2
 626 1064 658 1031 690 1020 c 1
 683 990 l 1
 635 1003 605 1039 596 1096 c 1
592 1193 m 0
 592 1287 517 1366 395 1366 c 0
 273 1366 197 1304 197 1193 c 0
 197 1082 273 1020 395 1020 c 0
 517 1020 592 1099 592 1193 c 0
EndSplineSet
Substitution2: "'ss04' Simplified a and g lookups0-1" ordfeminine.ss04
Colour: ff8000
EndChar

StartChar: ordmasculine
Encoding: 186 186 181
Width: 854
Flags: HMW
LayerCount: 4
Fore
SplineSet
427 1605 m 4
 279 1605 165 1479 165 1298 c 4
 165 1117 279 990 427 990 c 4
 575 990 689 1117 689 1298 c 4
 689 1479 575 1605 427 1605 c 4
427 1020 m 4
 330 1020 198 1108 198 1298 c 4
 198 1488 330 1575 427 1575 c 4
 524 1575 656 1488 656 1298 c 4
 656 1108 524 1020 427 1020 c 4
140 831 m 5
 140 861 l 5
 714 861 l 5
 714 831 l 5
 140 831 l 5
EndSplineSet
Colour: ff8000
EndChar

StartChar: guillemotleft
Encoding: 171 171 182
Width: 1030
VWidth: 1000
Flags: HMW
LayerCount: 4
Fore
SplineSet
858 196 m 1
 508 660 l 1
 858 1126 l 1
 910 1126 l 1
 556 660 l 1
 910 196 l 1
 858 196 l 1
470 196 m 1
 120 660 l 1
 470 1126 l 1
 522 1126 l 1
 168 660 l 1
 522 196 l 1
 470 196 l 1
EndSplineSet
Colour: ff00
EndChar

StartChar: logicalnot
Encoding: 172 172 183
Width: 1198
Flags: HMW
LayerCount: 4
Fore
SplineSet
973 720 m 5
 973 340 l 5
 1018 340 l 1
 1018 740 l 1
 973 720 l 5
180 700 m 1
 1000 700 l 1
 1018 740 l 9
 180 740 l 1
 180 700 l 1
EndSplineSet
Colour: ff00
EndChar

StartChar: guillemotright
Encoding: 187 187 184
Width: 1030
VWidth: 1000
Flags: HMW
LayerCount: 4
Fore
SplineSet
172 196 m 5
 522 660 l 1
 172 1126 l 1
 120 1126 l 1
 474 660 l 1
 120 196 l 1
 172 196 l 5
560 196 m 1
 910 660 l 1
 560 1126 l 1
 508 1126 l 1
 862 660 l 1
 508 196 l 1
 560 196 l 1
EndSplineSet
Colour: ff00
EndChar

StartChar: plusminus
Encoding: 177 177 185
Width: 1198
Flags: HMW
LayerCount: 4
Fore
SplineSet
180 0 m 5
 1018 0 l 21
 1018 -40 l 5
 180 -40 l 5
 180 0 l 5
577 1079 m 1
 577 241 l 1
 621 241 l 9
 621 1079 l 1
 577 1079 l 1
180 640 m 1
 1018 640 l 1
 1018 680 l 9
 180 680 l 1
 180 640 l 1
EndSplineSet
Colour: ff00
EndChar

StartChar: paragraph
Encoding: 182 182 186
Width: 1173
VWidth: 1000
Flags: HMW
LayerCount: 4
Fore
SplineSet
1033 1490 m 5
 597 1490 l 1
 597 1450 l 1
 1033 1450 l 5
 1033 1490 l 5
828 1469 m 1
 828 -440 l 1
 873 -440 l 1
 873 1469 l 1
 828 1469 l 1
575 1470 m 1
 575 -440 l 1
 620 -440 l 1
 620 1470 l 1
 609 1470 l 1
 575 1470 l 1
140 1048 m 0
 140 778 327 616 597 616 c 0
 597 1490 l 0
 327 1490 140 1318 140 1048 c 0
EndSplineSet
Colour: ff00
EndChar

StartChar: periodcentered
Encoding: 183 183 187
Width: 488
VWidth: 1000
Flags: HMW
LayerCount: 4
Fore
SplineSet
180 660 m 4
 180 696 208 724 244 724 c 4
 280 724 308 696 308 660 c 4
 308 624 280 596 244 596 c 4
 208 596 180 624 180 660 c 4
EndSplineSet
Colour: ff00
EndChar

StartChar: cedilla
Encoding: 184 184 188
Width: 528
VWidth: 1000
Flags: HMW
LayerCount: 4
Fore
SplineSet
120 -291 m 1
 157 -269 l 1
 176 -309 216 -330 254 -330 c 0
 306 -330 363 -290 363 -216 c 0
 363 -142 306 -102 254 -102 c 0
 216 -102 195 -123 176 -163 c 1
 140 -141 l 1
 166 -95 194 -62 254 -62 c 0
 344 -62 408 -136 408 -216 c 0
 408 -296 344 -370 254 -370 c 0
 194 -370 146 -337 120 -291 c 1
218 0 m 1
 260 0 l 1
 177 -136 l 1
 176 -163 l 1
 140 -141 l 1
 218 0 l 1
EndSplineSet
Colour: ffc71c
EndChar

StartChar: threequarters
Encoding: 190 190 189
Width: 1778
VWidth: 1548
Flags: HMW
LayerCount: 4
Fore
SplineSet
408 1086 m 2
 524 1086 613 1160 613 1271 c 0
 613 1387 524 1456 408 1456 c 0
 278 1456 188 1383 188 1251 c 0
 155 1258 l 1
 158 1397 254 1486 409 1486 c 0
 553 1486 646 1404 646 1274 c 0
 646 1144 554 1079 488 1071 c 1
 559 1057 682 989 682 848 c 0
 682 707 569 616 410 616 c 0
 252 616 144 705 141 844 c 1
 174 851 l 0
 174 719 277 646 410 646 c 0
 543 646 649 719 649 851 c 0
 649 983 519 1056 409 1056 c 2
 360 1056 l 25
 360 1086 l 25
 408 1086 l 2
1432 858 m 1
 1392 858 l 1
 1114 246 l 1
 1114 222 l 1
 1446 222 l 1
 1446 0 l 1
 1479 0 l 1
 1479 222 l 1
 1622 222 l 1
 1622 253 l 1
 1479 253 l 1
 1479 469 l 1
 1446 469 l 1
 1446 253 l 1
 1156 253 l 5
 1432 858 l 1
550 121 m 1
 522 137 l 1
 1228 1359 l 1
 1256 1343 l 1
 550 121 l 1
EndSplineSet
Colour: ff8000
EndChar

StartChar: onequarter
Encoding: 188 188 190
Width: 1778
VWidth: 1548
Flags: HMW
LayerCount: 4
Fore
SplineSet
1432 858 m 1
 1392 858 l 1
 1114 246 l 1
 1114 222 l 1
 1446 222 l 1
 1446 0 l 1
 1479 0 l 1
 1479 222 l 1
 1622 222 l 1
 1622 253 l 1
 1479 253 l 1
 1479 469 l 1
 1446 469 l 1
 1446 253 l 1
 1156 253 l 5
 1432 858 l 1
409 1242 m 1
 215 1242 l 1
 215 1273 l 1
 299 1273 l 2
 396 1273 409 1290 409 1396 c 2
 409 1480 l 1
 443 1480 l 1
 443 1225 l 1
 443 622 l 1
 409 622 l 1
 409 1242 l 1
550 121 m 1
 522 137 l 1
 1228 1359 l 1
 1256 1343 l 1
 550 121 l 1
EndSplineSet
Substitution2: "'ss09' Bar below digit 1-1" onequarter.ss09
Colour: ff8000
EndChar

StartChar: onehalf
Encoding: 189 189 191
Width: 1778
VWidth: 1548
Flags: HMW
LayerCount: 4
Fore
SplineSet
1109 0 m 5
 1109 67 1111 177 1365 322 c 4
 1528 415 1590 481 1590 606 c 4
 1590 745 1501 834 1368 834 c 4
 1232 834 1146 723 1146 572 c 4
 1146 570 1146 568 1147 564 c 5
 1113 572 l 5
 1113 751 1222 864 1368 864 c 4
 1514 864 1623 772 1623 606 c 4
 1623 444 1500 363 1370 289 c 4
 1251 221 1157 146 1143 30 c 5
 1628 30 l 5
 1628 0 l 5
 1141 0 l 5
 1118 0 l 5
 1109 0 l 5
409 1242 m 1
 215 1242 l 1
 215 1273 l 1
 299 1273 l 2
 396 1273 409 1290 409 1396 c 2
 409 1480 l 1
 443 1480 l 1
 443 1225 l 1
 443 622 l 1
 409 622 l 1
 409 1242 l 1
550 121 m 1
 522 137 l 1
 1228 1359 l 1
 1256 1343 l 1
 550 121 l 1
EndSplineSet
Substitution2: "'ss09' Bar below digit 1-1" onehalf.ss09
Colour: ff8000
EndChar

StartChar: uni2156
Encoding: 8534 8534 192
Width: 1778
VWidth: 1548
Flags: HMW
LayerCount: 4
Fore
SplineSet
1124 415 m 5
 1190 858 l 5
 1201 858 l 5
 1216 858 l 5
 1596 858 l 5
 1596 828 l 5
 1214 828 l 5
 1160 464 l 5
 1203 528 1264 567 1370 567 c 4
 1515 567 1636 449 1636 280 c 4
 1636 111 1523 -6 1368 -6 c 4
 1213 -6 1107 83 1104 222 c 5
 1136 229 l 5
 1136 97 1238 24 1368 24 c 4
 1517 24 1602 148 1602 280 c 4
 1602 412 1511 536 1368 536 c 4
 1225 536 1183 459 1152 407 c 5
 1124 415 l 5
150 622 m 1
 150 689 152 799 406 944 c 0
 569 1037 631 1103 631 1228 c 0
 631 1367 542 1456 409 1456 c 0
 273 1456 187 1345 187 1194 c 0
 187 1192 187 1190 188 1186 c 1
 154 1194 l 1
 154 1373 263 1486 409 1486 c 0
 555 1486 664 1394 664 1228 c 0
 664 1066 541 985 411 911 c 0
 292 843 198 768 184 652 c 1
 669 652 l 1
 669 622 l 1
 182 622 l 1
 159 622 l 1
 150 622 l 1
550 121 m 1
 522 137 l 1
 1228 1359 l 1
 1256 1343 l 1
 550 121 l 1
EndSplineSet
Colour: ff8000
EndChar

StartChar: twothirds
Encoding: 8532 8532 193
Width: 1778
VWidth: 1548
Flags: HMW
LayerCount: 4
Fore
SplineSet
1367 464 m 6
 1483 464 1572 538 1572 649 c 4
 1572 765 1483 834 1367 834 c 4
 1237 834 1147 761 1147 629 c 4
 1114 636 l 5
 1117 775 1213 864 1368 864 c 4
 1512 864 1605 782 1605 652 c 4
 1605 522 1513 457 1447 449 c 5
 1518 435 1641 367 1641 226 c 4
 1641 85 1528 -6 1369 -6 c 4
 1211 -6 1103 83 1100 222 c 5
 1133 229 l 4
 1133 97 1236 24 1369 24 c 4
 1502 24 1608 97 1608 229 c 4
 1608 361 1478 434 1368 434 c 6
 1319 434 l 29
 1319 464 l 29
 1367 464 l 6
150 622 m 1
 150 689 152 799 406 944 c 0
 569 1037 631 1103 631 1228 c 0
 631 1367 542 1456 409 1456 c 0
 273 1456 187 1345 187 1194 c 0
 187 1192 187 1190 188 1186 c 1
 154 1194 l 1
 154 1373 263 1486 409 1486 c 0
 555 1486 664 1394 664 1228 c 0
 664 1066 541 985 411 911 c 0
 292 843 198 768 184 652 c 1
 669 652 l 1
 669 622 l 1
 182 622 l 1
 159 622 l 1
 150 622 l 1
550 121 m 1
 522 137 l 1
 1228 1359 l 1
 1256 1343 l 1
 550 121 l 1
EndSplineSet
Colour: ff8000
EndChar

StartChar: uni215F
Encoding: 8543 8543 194
Width: 1758
VWidth: 1548
Flags: HMW
LayerCount: 4
Fore
SplineSet
399 1242 m 1
 205 1242 l 1
 205 1273 l 1
 289 1273 l 2
 386 1273 399 1290 399 1396 c 2
 399 1480 l 1
 433 1480 l 1
 433 1225 l 1
 433 622 l 1
 399 622 l 1
 399 1242 l 1
540 121 m 1
 512 137 l 1
 1218 1359 l 1
 1246 1343 l 1
 540 121 l 1
EndSplineSet
Substitution2: "'ss09' Bar below digit 1-1" uni215F.ss09
Colour: ff8000
EndChar

StartChar: uni2150
Encoding: 8528 8528 195
Width: 1778
VWidth: 1548
Flags: HMW
LayerCount: 4
Fore
SplineSet
1114 828 m 1
 1114 858 l 1
 1622 858 l 1
 1622 831 l 1
 1622 831 1339 482 1302 0 c 1
 1297 0 1274 0 1269 0 c 1
 1303 450 1545 780 1582 828 c 1
 1114 828 l 1
409 1242 m 1
 215 1242 l 1
 215 1273 l 1
 299 1273 l 2
 396 1273 409 1290 409 1396 c 2
 409 1480 l 1
 443 1480 l 1
 443 1225 l 1
 443 622 l 1
 409 622 l 1
 409 1242 l 1
550 121 m 1
 522 137 l 1
 1228 1359 l 1
 1256 1343 l 1
 550 121 l 1
EndSplineSet
Substitution2: "'ss09' Bar below digit 1-1" uni2150.ss09
Colour: ff8000
EndChar

StartChar: uni2151
Encoding: 8529 8529 196
Width: 1778
VWidth: 1548
Flags: HMW
LayerCount: 4
Fore
SplineSet
1623 511 m 5
 1601 367 1496 291 1367 291 c 4
 1222 291 1102 409 1102 578 c 4
 1102 747 1222 864 1368 864 c 4
 1480 864 1577 795 1616 687 c 4
 1634 646 1658 569 1658 447 c 4
 1658 147 1512 -6 1325 -6 c 4
 1187 -6 1130 74 1130 74 c 5
 1148 101 l 5
 1148 101 1198 24 1333 24 c 4
 1468 24 1646 143 1623 511 c 5
1606 578 m 4
 1606 710 1519 834 1370 834 c 4
 1221 834 1135 710 1135 578 c 4
 1135 446 1227 322 1370 322 c 4
 1513 322 1606 446 1606 578 c 4
409 1242 m 1
 215 1242 l 1
 215 1273 l 1
 299 1273 l 2
 396 1273 409 1290 409 1396 c 2
 409 1480 l 1
 443 1480 l 1
 443 1225 l 1
 443 622 l 1
 409 622 l 1
 409 1242 l 1
550 121 m 1
 522 137 l 1
 1228 1359 l 1
 1256 1343 l 1
 550 121 l 1
EndSplineSet
Substitution2: "'ss09' Bar below digit 1-1" uni2151.ss09
Colour: ff8000
EndChar

StartChar: uni2152
Encoding: 8530 8530 197
Width: 2011
VWidth: 1548
Flags: HMW
LayerCount: 4
Fore
SplineSet
1377 429 m 4
 1377 162 1478 24 1617 24 c 4
 1756 24 1857 162 1857 429 c 4
 1857 696 1756 834 1617 834 c 4
 1478 834 1377 696 1377 429 c 4
1345 429 m 4
 1345 719 1460 864 1617 864 c 4
 1774 864 1891 719 1891 429 c 4
 1891 139 1774 -6 1617 -6 c 4
 1460 -6 1345 139 1345 429 c 4
1171 620 m 1
 977 620 l 1
 977 651 l 1
 1061 651 l 2
 1158 651 1171 668 1171 774 c 2
 1171 858 l 1
 1205 858 l 1
 1205 603 l 1
 1205 0 l 1
 1171 0 l 1
 1171 620 l 1
409 1242 m 1
 215 1242 l 1
 215 1273 l 1
 299 1273 l 2
 396 1273 409 1290 409 1396 c 2
 409 1480 l 1
 443 1480 l 1
 443 1225 l 1
 443 622 l 1
 409 622 l 1
 409 1242 l 1
549 121 m 1
 521 137 l 1
 1227 1359 l 1
 1255 1343 l 1
 549 121 l 1
EndSplineSet
Substitution2: "'ss09' Bar below digit 1-1" uni2152.ss09
Substitution2: "'zero' Slashed Zero lookups0-1" uni2152.zero
Colour: ff8000
EndChar

StartChar: onethird
Encoding: 8531 8531 198
Width: 1778
VWidth: 1548
Flags: HMW
LayerCount: 4
Fore
SplineSet
1367 464 m 6
 1483 464 1572 538 1572 649 c 4
 1572 765 1483 834 1367 834 c 4
 1237 834 1147 761 1147 629 c 4
 1114 636 l 5
 1117 775 1213 864 1368 864 c 4
 1512 864 1605 782 1605 652 c 4
 1605 522 1513 457 1447 449 c 5
 1518 435 1641 367 1641 226 c 4
 1641 85 1528 -6 1369 -6 c 4
 1211 -6 1103 83 1100 222 c 5
 1133 229 l 4
 1133 97 1236 24 1369 24 c 4
 1502 24 1608 97 1608 229 c 4
 1608 361 1478 434 1368 434 c 6
 1319 434 l 29
 1319 464 l 29
 1367 464 l 6
409 1242 m 1
 215 1242 l 1
 215 1273 l 1
 299 1273 l 2
 396 1273 409 1290 409 1396 c 2
 409 1480 l 1
 443 1480 l 1
 443 1225 l 1
 443 622 l 1
 409 622 l 1
 409 1242 l 1
550 121 m 1
 522 137 l 1
 1228 1359 l 1
 1256 1343 l 1
 550 121 l 1
EndSplineSet
Substitution2: "'ss09' Bar below digit 1-1" onethird.ss09
Colour: ff8000
EndChar

StartChar: uni2159
Encoding: 8537 8537 199
Width: 1778
VWidth: 1548
Flags: HMW
LayerCount: 4
Fore
SplineSet
1113 347 m 5
 1135 491 1240 567 1369 567 c 4
 1514 567 1634 449 1634 280 c 4
 1634 111 1514 -6 1368 -6 c 4
 1256 -6 1159 63 1120 171 c 4
 1102 212 1078 289 1078 411 c 4
 1078 711 1224 864 1411 864 c 4
 1549 864 1606 784 1606 784 c 5
 1588 757 l 5
 1588 757 1538 834 1403 834 c 4
 1268 834 1090 715 1113 347 c 5
1130 280 m 4
 1130 148 1217 24 1366 24 c 4
 1515 24 1601 148 1601 280 c 4
 1601 412 1509 536 1366 536 c 4
 1223 536 1130 412 1130 280 c 4
409 1242 m 1
 215 1242 l 1
 215 1273 l 1
 299 1273 l 2
 396 1273 409 1290 409 1396 c 2
 409 1480 l 1
 443 1480 l 1
 443 1225 l 1
 443 622 l 1
 409 622 l 1
 409 1242 l 1
550 121 m 1
 522 137 l 1
 1228 1359 l 1
 1256 1343 l 1
 550 121 l 1
EndSplineSet
Substitution2: "'ss09' Bar below digit 1-1" uni2159.ss09
Colour: ff8000
EndChar

StartChar: oneeighth
Encoding: 8539 8539 200
Width: 1778
VWidth: 1548
Flags: HMW
LayerCount: 4
Fore
SplineSet
1088 226 m 4
 1088 367 1214 435 1286 449 c 5
 1219 457 1117 522 1117 652 c 4
 1117 782 1220 864 1368 864 c 4
 1516 864 1619 782 1619 652 c 4
 1619 522 1518 457 1451 449 c 5
 1523 435 1648 367 1648 226 c 4
 1648 85 1532 -6 1368 -6 c 4
 1204 -6 1088 85 1088 226 c 4
1150 649 m 4
 1150 538 1249 464 1368 464 c 4
 1487 464 1586 538 1586 649 c 4
 1586 765 1487 834 1368 834 c 4
 1249 834 1150 765 1150 649 c 4
1368 434 m 4
 1255 434 1121 361 1121 229 c 4
 1121 97 1231 24 1368 24 c 4
 1505 24 1615 97 1615 229 c 4
 1615 361 1481 434 1368 434 c 4
409 1242 m 1
 215 1242 l 1
 215 1273 l 1
 299 1273 l 2
 396 1273 409 1290 409 1396 c 2
 409 1480 l 1
 443 1480 l 1
 443 1225 l 1
 443 622 l 1
 409 622 l 1
 409 1242 l 1
550 121 m 1
 522 137 l 1
 1228 1359 l 1
 1256 1343 l 1
 550 121 l 1
EndSplineSet
Substitution2: "'ss09' Bar below digit 1-1" oneeighth.ss09
Colour: ff8000
EndChar

StartChar: uni2155
Encoding: 8533 8533 201
Width: 1778
VWidth: 1548
Flags: HMW
LayerCount: 4
Fore
SplineSet
1124 415 m 5
 1190 858 l 5
 1201 858 l 5
 1216 858 l 5
 1596 858 l 5
 1596 828 l 5
 1214 828 l 5
 1160 464 l 5
 1203 528 1264 567 1370 567 c 4
 1515 567 1636 449 1636 280 c 4
 1636 111 1523 -6 1368 -6 c 4
 1213 -6 1107 83 1104 222 c 5
 1136 229 l 5
 1136 97 1238 24 1368 24 c 4
 1517 24 1602 148 1602 280 c 4
 1602 412 1511 536 1368 536 c 4
 1225 536 1183 459 1152 407 c 5
 1124 415 l 5
409 1242 m 1
 215 1242 l 1
 215 1273 l 1
 299 1273 l 2
 396 1273 409 1290 409 1396 c 2
 409 1480 l 1
 443 1480 l 1
 443 1225 l 1
 443 622 l 1
 409 622 l 1
 409 1242 l 1
550 121 m 1
 522 137 l 1
 1228 1359 l 1
 1256 1343 l 1
 550 121 l 1
EndSplineSet
Substitution2: "'ss09' Bar below digit 1-1" uni2155.ss09
Colour: ff8000
EndChar

StartChar: uni2157
Encoding: 8535 8535 202
Width: 1778
VWidth: 1548
Flags: HMW
LayerCount: 4
Fore
SplineSet
1124 415 m 5
 1190 858 l 5
 1201 858 l 5
 1216 858 l 5
 1596 858 l 5
 1596 828 l 5
 1214 828 l 5
 1160 464 l 5
 1203 528 1264 567 1370 567 c 4
 1515 567 1636 449 1636 280 c 4
 1636 111 1523 -6 1368 -6 c 4
 1213 -6 1107 83 1104 222 c 5
 1136 229 l 5
 1136 97 1238 24 1368 24 c 4
 1517 24 1602 148 1602 280 c 4
 1602 412 1511 536 1368 536 c 4
 1225 536 1183 459 1152 407 c 5
 1124 415 l 5
408 1086 m 2
 524 1086 613 1160 613 1271 c 0
 613 1387 524 1456 408 1456 c 0
 278 1456 188 1383 188 1251 c 0
 155 1258 l 1
 158 1397 254 1486 409 1486 c 0
 553 1486 646 1404 646 1274 c 0
 646 1144 554 1079 488 1071 c 1
 559 1057 682 989 682 848 c 0
 682 707 569 616 410 616 c 0
 252 616 144 705 141 844 c 1
 174 851 l 0
 174 719 277 646 410 646 c 0
 543 646 649 719 649 851 c 0
 649 983 519 1056 409 1056 c 2
 360 1056 l 25
 360 1086 l 25
 408 1086 l 2
550 121 m 1
 522 137 l 1
 1228 1359 l 1
 1256 1343 l 1
 550 121 l 1
EndSplineSet
Colour: ff8000
EndChar

StartChar: uni2158
Encoding: 8536 8536 203
Width: 1778
VWidth: 1548
Flags: HMW
LayerCount: 4
Fore
SplineSet
1124 415 m 1
 1190 858 l 1
 1201 858 l 1
 1216 858 l 1
 1596 858 l 1
 1596 828 l 1
 1214 828 l 1
 1160 464 l 1
 1203 528 1264 567 1370 567 c 0
 1515 567 1636 449 1636 280 c 0
 1636 111 1523 -6 1368 -6 c 0
 1213 -6 1107 83 1104 222 c 1
 1136 229 l 1
 1136 97 1238 24 1368 24 c 0
 1517 24 1602 148 1602 280 c 0
 1602 412 1511 536 1368 536 c 0
 1225 536 1183 459 1152 407 c 1
 1124 415 l 1
473 1480 m 1
 433 1480 l 1
 155 868 l 1
 155 844 l 1
 487 844 l 1
 487 622 l 1
 520 622 l 1
 520 844 l 1
 663 844 l 1
 663 875 l 1
 520 875 l 1
 520 1091 l 1
 487 1091 l 1
 487 875 l 1
 197 875 l 5
 473 1480 l 1
550 121 m 1
 522 137 l 1
 1228 1359 l 1
 1256 1343 l 1
 550 121 l 1
EndSplineSet
Colour: ff8000
EndChar

StartChar: uni215A
Encoding: 8538 8538 204
Width: 1778
VWidth: 1548
Flags: HMW
LayerCount: 4
Fore
SplineSet
1113 347 m 5
 1135 491 1240 567 1369 567 c 4
 1514 567 1634 449 1634 280 c 4
 1634 111 1514 -6 1368 -6 c 4
 1256 -6 1159 63 1120 171 c 4
 1102 212 1078 289 1078 411 c 4
 1078 711 1224 864 1411 864 c 4
 1549 864 1606 784 1606 784 c 5
 1588 757 l 5
 1588 757 1538 834 1403 834 c 4
 1268 834 1090 715 1113 347 c 5
1130 280 m 4
 1130 148 1217 24 1366 24 c 4
 1515 24 1601 148 1601 280 c 4
 1601 412 1509 536 1366 536 c 4
 1223 536 1130 412 1130 280 c 4
165 1037 m 1
 231 1480 l 1
 241 1480 l 1
 257 1480 l 1
 637 1480 l 1
 637 1450 l 1
 255 1450 l 1
 201 1086 l 1
 244 1150 305 1189 411 1189 c 0
 556 1189 677 1071 677 902 c 0
 677 733 564 616 409 616 c 0
 254 616 148 705 145 844 c 1
 177 851 l 1
 177 719 279 646 409 646 c 0
 558 646 643 770 643 902 c 0
 643 1034 552 1158 409 1158 c 0
 266 1158 224 1081 193 1029 c 1
 165 1037 l 1
550 121 m 1
 522 137 l 1
 1228 1359 l 1
 1256 1343 l 1
 550 121 l 1
EndSplineSet
Colour: ff8000
EndChar

StartChar: threeeighths
Encoding: 8540 8540 205
Width: 1778
VWidth: 1548
Flags: HMW
LayerCount: 4
Fore
SplineSet
1088 226 m 4
 1088 367 1214 435 1286 449 c 5
 1219 457 1117 522 1117 652 c 4
 1117 782 1220 864 1368 864 c 4
 1516 864 1619 782 1619 652 c 4
 1619 522 1518 457 1451 449 c 5
 1523 435 1648 367 1648 226 c 4
 1648 85 1532 -6 1368 -6 c 4
 1204 -6 1088 85 1088 226 c 4
1150 649 m 4
 1150 538 1249 464 1368 464 c 4
 1487 464 1586 538 1586 649 c 4
 1586 765 1487 834 1368 834 c 4
 1249 834 1150 765 1150 649 c 4
1368 434 m 4
 1255 434 1121 361 1121 229 c 4
 1121 97 1231 24 1368 24 c 4
 1505 24 1615 97 1615 229 c 4
 1615 361 1481 434 1368 434 c 4
408 1086 m 2
 524 1086 613 1160 613 1271 c 0
 613 1387 524 1456 408 1456 c 0
 278 1456 188 1383 188 1251 c 0
 155 1258 l 1
 158 1397 254 1486 409 1486 c 0
 553 1486 646 1404 646 1274 c 0
 646 1144 554 1079 488 1071 c 1
 559 1057 682 989 682 848 c 0
 682 707 569 616 410 616 c 0
 252 616 144 705 141 844 c 1
 174 851 l 0
 174 719 277 646 410 646 c 0
 543 646 649 719 649 851 c 0
 649 983 519 1056 409 1056 c 2
 360 1056 l 25
 360 1086 l 25
 408 1086 l 2
550 121 m 1
 522 137 l 1
 1228 1359 l 1
 1256 1343 l 1
 550 121 l 1
EndSplineSet
Colour: ff8000
EndChar

StartChar: fiveeighths
Encoding: 8541 8541 206
Width: 1778
VWidth: 1548
Flags: HMW
LayerCount: 4
Fore
SplineSet
1088 226 m 4
 1088 367 1214 435 1286 449 c 5
 1219 457 1117 522 1117 652 c 4
 1117 782 1220 864 1368 864 c 4
 1516 864 1619 782 1619 652 c 4
 1619 522 1518 457 1451 449 c 5
 1523 435 1648 367 1648 226 c 4
 1648 85 1532 -6 1368 -6 c 4
 1204 -6 1088 85 1088 226 c 4
1150 649 m 4
 1150 538 1249 464 1368 464 c 4
 1487 464 1586 538 1586 649 c 4
 1586 765 1487 834 1368 834 c 4
 1249 834 1150 765 1150 649 c 4
1368 434 m 4
 1255 434 1121 361 1121 229 c 4
 1121 97 1231 24 1368 24 c 4
 1505 24 1615 97 1615 229 c 4
 1615 361 1481 434 1368 434 c 4
165 1037 m 1
 231 1480 l 1
 241 1480 l 1
 257 1480 l 1
 637 1480 l 1
 637 1450 l 1
 255 1450 l 1
 201 1086 l 1
 244 1150 305 1189 411 1189 c 0
 556 1189 677 1071 677 902 c 0
 677 733 564 616 409 616 c 0
 254 616 148 705 145 844 c 1
 177 851 l 1
 177 719 279 646 409 646 c 0
 558 646 643 770 643 902 c 0
 643 1034 552 1158 409 1158 c 0
 266 1158 224 1081 193 1029 c 1
 165 1037 l 1
550 121 m 1
 522 137 l 1
 1228 1359 l 1
 1256 1343 l 1
 550 121 l 1
EndSplineSet
Colour: ff8000
EndChar

StartChar: seveneighths
Encoding: 8542 8542 207
Width: 1778
VWidth: 1548
Flags: HMW
LayerCount: 4
Fore
SplineSet
1088 226 m 4
 1088 367 1214 435 1286 449 c 5
 1219 457 1117 522 1117 652 c 4
 1117 782 1220 864 1368 864 c 4
 1516 864 1619 782 1619 652 c 4
 1619 522 1518 457 1451 449 c 5
 1523 435 1648 367 1648 226 c 4
 1648 85 1532 -6 1368 -6 c 4
 1204 -6 1088 85 1088 226 c 4
1150 649 m 4
 1150 538 1249 464 1368 464 c 4
 1487 464 1586 538 1586 649 c 4
 1586 765 1487 834 1368 834 c 4
 1249 834 1150 765 1150 649 c 4
1368 434 m 4
 1255 434 1121 361 1121 229 c 4
 1121 97 1231 24 1368 24 c 4
 1505 24 1615 97 1615 229 c 4
 1615 361 1481 434 1368 434 c 4
156 1450 m 1
 156 1480 l 1
 664 1480 l 1
 664 1453 l 1
 664 1453 381 1104 344 622 c 1
 339 622 316 622 311 622 c 1
 345 1072 587 1402 624 1450 c 1
 156 1450 l 1
550 121 m 1
 522 137 l 1
 1228 1359 l 1
 1256 1343 l 1
 550 121 l 1
EndSplineSet
Colour: ff8000
EndChar

StartChar: uni2189
Encoding: 8585 8585 208
Width: 1778
VWidth: 1548
Flags: HMW
LayerCount: 4
Fore
SplineSet
169 1051 m 0
 169 784 270 646 409 646 c 0
 548 646 649 784 649 1051 c 0
 649 1318 548 1456 409 1456 c 0
 270 1456 169 1318 169 1051 c 0
136 1051 m 0
 136 1341 252 1486 409 1486 c 0
 566 1486 682 1341 682 1051 c 0
 682 761 566 616 409 616 c 0
 252 616 136 761 136 1051 c 0
1367 464 m 6
 1483 464 1572 538 1572 649 c 4
 1572 765 1483 834 1367 834 c 4
 1237 834 1147 761 1147 629 c 4
 1114 636 l 5
 1117 775 1213 864 1368 864 c 4
 1512 864 1605 782 1605 652 c 4
 1605 522 1513 457 1447 449 c 5
 1518 435 1641 367 1641 226 c 4
 1641 85 1528 -6 1369 -6 c 4
 1211 -6 1103 83 1100 222 c 5
 1133 229 l 4
 1133 97 1236 24 1369 24 c 4
 1502 24 1608 97 1608 229 c 4
 1608 361 1478 434 1368 434 c 6
 1319 434 l 29
 1319 464 l 29
 1367 464 l 6
550 121 m 1
 522 137 l 1
 1228 1359 l 1
 1256 1343 l 1
 550 121 l 1
EndSplineSet
Substitution2: "'zero' Slashed Zero lookups0-1" uni2189.zero
Colour: ff8000
EndChar

StartChar: AE
Encoding: 198 198 209
Width: 2006
Flags: HMW
AnchorPoint: "bottom_center" 1010 0 basechar 0
AnchorPoint: "top_center" 1318 1380 basechar 0
LayerCount: 4
Fore
SplineSet
960 1438 m 1
 960 1480 l 1
 1010 1480 l 1
 1010 1438 l 1
 960 1438 l 1
439 541 m 1
 1031 541 l 1
 1031 499 l 1
 439 499 l 1
 439 541 l 1
120 0 m 1
 960 1480 l 1
 1010 1480 l 1
 175 0 l 1
 120 0 l 1
1743 761 m 17
 1743 719 l 9
 1056 719 l 17
 1056 42 l 1
 1826 42 l 1
 1826 0 l 1
 1010 0 l 25
 1010 1480 l 1
 1826 1480 l 17
 1826 1438 l 1
 1056 1438 l 1
 1056 761 l 9
 1743 761 l 17
EndSplineSet
Colour: ffff
EndChar

StartChar: multiply
Encoding: 215 215 210
Width: 1198
Flags: HMW
LayerCount: 4
Fore
SplineSet
180 1058 m 5
 987 251 l 5
 1018 282 l 13
 211 1089 l 5
 180 1058 l 5
211 251 m 5
 1018 1058 l 5
 987 1089 l 13
 180 282 l 5
 211 251 l 5
EndSplineSet
Substitution2: "'ss07' Bigger basic math operators lookups0-1" multiply.ss07
Colour: ff00
EndChar

StartChar: Eth
Encoding: 208 208 211
Width: 1352
Flags: HMW
LayerCount: 4
Fore
SplineSet
590 719 m 1
 590 761 l 1
 0 761 l 1
 0 715 0 765 0 719 c 1
 590 719 l 1
256 1438 m 25
 626 1438 l 17
 864 1438 1166 1240 1166 740 c 0
 1166 240 864 42 626 42 c 9
 256 42 l 25
 256 1438 l 25
626 0 m 1
 960 0 1212 290 1212 740 c 0
 1212 1190 960 1480 626 1480 c 1
 210 1480 l 1
 210 0 l 1
 377 0 l 25
 626 0 l 1
EndSplineSet
Colour: ffff
EndChar

StartChar: Oslash
Encoding: 216 216 212
Width: 1514
Flags: HMW
AnchorPoint: "bottom_center" 757 0 basechar 0
AnchorPoint: "top_center" 757 1380 basechar 0
LayerCount: 4
Fore
SplineSet
1334 1526 m 5
 1366 1502 l 5
 180 -46 l 5
 148 -22 l 5
 1334 1526 l 5
186 740 m 0
 186 265 497 32 757 32 c 0
 1017 32 1328 265 1328 740 c 0
 1328 1215 1017 1448 757 1448 c 0
 497 1448 186 1215 186 740 c 0
140 740 m 0
 140 1179 409 1490 757 1490 c 0
 1105 1490 1374 1179 1374 740 c 0
 1374 301 1105 -10 757 -10 c 0
 409 -10 140 301 140 740 c 0
EndSplineSet
Substitution2: "sous-table 'c2sc' Capitales vers petites capitales dans Latin lookup 0" oslash.sc
Colour: ffff
EndChar

StartChar: Thorn
Encoding: 222 222 213
Width: 1154
Flags: HMW
LayerCount: 4
Fore
SplineSet
226 1121 m 25
 226 359 l 25
 595 359 l 17
 820 359 968 540 968 740 c 0
 968 940 820 1121 595 1121 c 9
 226 1121 l 25
180 0 m 1
 180 1029 l 1
 180 1480 l 1
 226 1480 l 1
 226 1163 l 1
 595 1163 l 1
 819 1163 1014 995 1014 740 c 0
 1014 485 819 317 595 317 c 1
 226 317 l 1
 226 0 l 25
 180 0 l 1
EndSplineSet
Substitution2: "sous-table 'c2sc' Capitales vers petites capitales dans Latin lookup 0" thorn.sc
Colour: ffff
EndChar

StartChar: thorn
Encoding: 254 254 214
Width: 1152
VWidth: 1000
Flags: HMW
LayerCount: 4
Fore
SplineSet
217 520 m 1
 217 184 417 30 592 30 c 0
 767 30 967 184 967 520 c 0
 967 856 767 1010 592 1010 c 0
 417 1010 217 856 217 520 c 1
180 520 m 1
 180 1480 l 1
 225 1480 l 1
 225 1480 225 800 225 780 c 1
 256 896 392 1050 592 1050 c 0
 839 1050 1012 832 1012 520 c 0
 1012 208 839 -10 592 -10 c 0
 392 -10 256 144 225 260 c 1
 225 -440 l 1
 180 -440 l 1
 180 520 l 1
EndSplineSet
Substitution2: "sous-table 'smcp' Bas-de-casse vers petites capitales dans Latin lookup 0" thorn.sc
Colour: ff00
EndChar

StartChar: ae
Encoding: 230 230 215
Width: 1881
Flags: HMW
AnchorPoint: "top_center" 900 1040 basechar 0
AnchorPoint: "bottom_center" 900 0 basechar 0
LayerCount: 4
Fore
SplineSet
890 540 m 1
 1724 540 l 1
 1696 500 l 1
 890 500 l 1
 890 540 l 1
1677 274 m 1
 1716 252 l 1
 1642 90 1500 -10 1303 -10 c 0
 1056 -10 865 208 865 520 c 0
 865 832 1056 1050 1303 1050 c 0
 1550 1050 1741 832 1741 520 c 0
 1741 513 1741 507 1741 500 c 1
 1696 500 l 1
 1696 507 1696 513 1696 520 c 0
 1696 856 1471 1010 1303 1010 c 0
 1135 1010 910 856 910 520 c 0
 910 184 1135 30 1303 30 c 0
 1449 30 1601 108 1677 274 c 1
515 -10 m 0
 317 -10 140 100 140 340 c 1
 140 580 327 690 525 690 c 0
 695 690 900 580 900 340 c 1
 900 100 705 -10 515 -10 c 0
865 340 m 0
 865 509 735 650 525 650 c 0
 315 650 185 539 185 340 c 0
 185 141 315 30 525 30 c 0
 735 30 865 171 865 340 c 0
910 285 m 25
 865 448 l 1
 865 630 l 18
 865 944 671 1010 523 1010 c 0
 325 1010 196 885 196 885 c 1
 171 926 l 1
 171 926 299 1050 523 1050 c 0
 739 1050 910 948 910 598 c 1
 910 285 l 25
EndSplineSet
Substitution2: "sous-table 'smcp' Bas-de-casse vers petites capitales dans Latin lookup 0" ae.sc
Substitution2: "'ss04' Simplified a and g lookups0-1" ae.ss04
Colour: ff00
EndChar

StartChar: oslash
Encoding: 248 248 216
Width: 1156
VWidth: 1000
Flags: HMW
AnchorPoint: "top_center" 578 1040 basechar 0
AnchorPoint: "bottom_center" 578 0 basechar 0
LayerCount: 4
Fore
SplineSet
987 1086 m 5
 1018 1060 l 5
 169 -46 l 5
 138 -21 l 5
 987 1086 l 5
185 520 m 0
 185 184 410 30 578 30 c 0
 746 30 971 184 971 520 c 0
 971 856 746 1010 578 1010 c 0
 410 1010 185 856 185 520 c 0
140 520 m 0
 140 832 331 1050 578 1050 c 0
 825 1050 1016 832 1016 520 c 0
 1016 208 825 -10 578 -10 c 0
 331 -10 140 208 140 520 c 0
EndSplineSet
Substitution2: "sous-table 'smcp' Bas-de-casse vers petites capitales dans Latin lookup 0" oslash.sc
Colour: ff00
EndChar

StartChar: divide
Encoding: 247 247 217
Width: 1198
Flags: HMW
LayerCount: 4
Fore
SplineSet
540 274 m 0
 540 310 568 338 604 338 c 0
 640 338 668 310 668 274 c 0
 668 238 640 210 604 210 c 0
 568 210 540 238 540 274 c 0
540 1046 m 0
 540 1082 568 1110 604 1110 c 0
 640 1110 668 1082 668 1046 c 0
 668 1010 640 982 604 982 c 0
 568 982 540 1010 540 1046 c 0
160 640 m 1
 160 680 l 1
 1038 680 l 17
 1038 640 l 1
 160 640 l 1
EndSplineSet
Substitution2: "'ss07' Bigger basic math operators lookups0-1" divide.ss07
Colour: ff00
EndChar

StartChar: germandbls
Encoding: 223 223 218
Width: 1186
VWidth: 1000
Flags: HMW
LayerCount: 4
Back
SplineSet
588 856 m 0
 888 856 1125 661 1125 418 c 0
 1125 175 888 -20 588 -20 c 4
 506 -20 430 -6 364 20 c 5
 410 187 l 5
 459 161 518 148 588 148 c 4
 788 148 935 262 935 418 c 0
 935 574 788 688 588 688 c 0
 588 856 l 0
EndSplineSet
Fore
SplineSet
629 30 m 4
 585 30 490 37 447 59 c 5
 435 17 l 5
 478 -4 577 -10 629 -10 c 4
 892 -10 1046 136 1046 391 c 4
 1046 646 846 792 582 792 c 4
 582 752 l 4
 758 752 1001 657 1001 391 c 4
 1001 125 805 30 629 30 c 4
225 1101 m 0
 225 1341 393 1450 573 1450 c 0
 753 1450 922 1341 922 1101 c 0
 922 861 714 792 582 792 c 4
 601 759 l 4
 783 759 967 866 967 1101 c 0
 967 1356 797 1490 573 1490 c 0
 349 1490 180 1356 180 1101 c 0
 180 846 180 0 180 0 c 9
 225 0 l 17
 225 0 225 943 225 1101 c 0
EndSplineSet
Substitution2: "sous-table 'smcp' Bas-de-casse vers petites capitales dans Latin lookup 0" germandbls.sc
Colour: ff00
EndChar

StartChar: eth
Encoding: 240 240 219
Width: 1120
VWidth: 1000
Flags: HMW
LayerCount: 4
Fore
SplineSet
660 1398 m 5
 741 1445 l 5
 721 1480 l 5
 639 1432 l 5
 399 1294 l 5
 419 1259 l 5
 660 1398 l 5
399 1451 m 1
 620 1323 935 1080 935 520 c 0
 980 520 l 0
 980 1000 768 1290 422 1490 c 1
 399 1451 l 1
185 520 m 0
 185 856 385 1010 560 1010 c 0
 735 1010 935 856 935 520 c 1
 935 184 735 30 560 30 c 0
 385 30 185 184 185 520 c 0
140 520 m 0
 140 208 313 -10 560 -10 c 0
 807 -10 980 208 980 520 c 0
 980 520 969 520 959 520 c 1
 959 836 807 1050 560 1050 c 0
 313 1050 140 832 140 520 c 0
EndSplineSet
Colour: ff00
EndChar

StartChar: macron
Encoding: 175 175 220
Width: 776
VWidth: 1000
Flags: HMW
LayerCount: 4
Fore
SplineSet
120 1440 m 5
 120 1480 l 5
 656 1480 l 5
 656 1440 l 5
 120 1440 l 5
EndSplineSet
Colour: ff00
EndChar

StartChar: uni0304
Encoding: 772 772 221
Width: 0
VWidth: 1000
Flags: HMW
AnchorPoint: "top_center" 642 1040 mark 0
LayerCount: 4
Fore
SplineSet
374 1274 m 5
 374 1314 l 5
 910 1314 l 5
 910 1274 l 5
 374 1274 l 5
EndSplineSet
Colour: ffff00
EndChar

StartChar: uni0306
Encoding: 774 774 224
Width: 0
VWidth: 1000
Flags: HMW
AnchorPoint: "top_center" 642 1040 mark 0
LayerCount: 4
Fore
SplineSet
642 1224 m 4
 510 1224 396 1340 396 1480 c 5
 441 1480 l 5
 441 1354 532 1264 642 1264 c 4
 752 1264 843 1354 843 1480 c 5
 888 1480 l 5
 888 1340 774 1224 642 1224 c 4
EndSplineSet
Colour: ffff00
EndChar

StartChar: uni0328
Encoding: 808 808 226
Width: 61
VWidth: 1000
Flags: HMW
AnchorPoint: "bottom_right" 627 0 mark 0
LayerCount: 4
Fore
SplineSet
668 -282 m 1
 689 -316 l 1
 679 -327 612 -370 556 -370 c 0
 468 -370 409 -320 409 -230 c 0
 409 -110 554 -11 602 25 c 0
 627 0 l 0
 532 -78 454 -153 454 -230 c 0
 454 -266 474 -330 556 -330 c 0
 608 -330 662 -290 668 -282 c 1
EndSplineSet
Layer: 2
SplineSet
654 -225 m 1
 712 -326 l 1
 657 -364 614 -380 550 -380 c 0
 450 -380 360 -310 360 -220 c 0
 360 -130 411 -62 519 0 c 0
 687 0 l 0
 579 -78 487 -137 487 -204 c 0
 487 -240 514 -263 550 -263 c 0
 586 -263 620 -250 654 -225 c 1
EndSplineSet
Colour: ffc71c
EndChar

StartChar: uni0307
Encoding: 775 775 229
Width: 0
VWidth: 1000
Flags: HMW
AnchorPoint: "top_center" 642 1040 mark 0
LayerCount: 4
Fore
SplineSet
578 1352 m 4
 578 1388 606 1416 642 1416 c 4
 678 1416 706 1388 706 1352 c 4
 706 1316 678 1288 642 1288 c 4
 606 1288 578 1316 578 1352 c 4
EndSplineSet
Colour: ff00
EndChar

StartChar: uni030C
Encoding: 780 780 230
Width: 0
VWidth: 1000
Flags: HMW
AnchorPoint: "top_center" 642 1040 mark 0
LayerCount: 4
Fore
SplineSet
472 1480 m 1
 670 1224 l 1
 614 1224 l 1
 428 1480 l 1
 472 1480 l 1
812 1480 m 1
 856 1480 l 1
 670 1224 l 1
 614 1224 l 1
 812 1480 l 1
EndSplineSet
Colour: ffff00
EndChar

StartChar: uni0237
Encoding: 567 567 317
Width: 570
Flags: HMW
AnchorPoint: "top_center" 367 1040 basechar 0
AnchorPoint: "bottom_center" 257 -360 basechar 0
LayerCount: 4
Fore
SplineSet
81 -384 m 5
 112 -404 139 -410 153 -410 c 4
 206 -410 345 -400 345 -210 c 6
 345 0 l 5
 345 138 l 1
 345 1040 l 1
 390 1040 l 1
 390 138 l 1
 390 0 l 5
 390 -210 l 6
 390 -380 303 -450 153 -450 c 4
 125 -450 95 -443 70 -426 c 5
 81 -384 l 5
EndSplineSet
Substitution2: "sous-table 'smcp' Bas-de-casse vers petites capitales dans Latin lookup 0" uni0237.sc
Colour: ff00
EndChar

StartChar: oe
Encoding: 339 339 319
Width: 1987
VWidth: 1000
Flags: HMW
LayerCount: 4
Fore
SplineSet
996 540 m 1
 1830 540 l 1
 1802 500 l 1
 996 500 l 1
 996 540 l 1
1783 274 m 1
 1822 252 l 1
 1748 90 1606 -10 1409 -10 c 0
 1162 -10 971 208 971 520 c 0
 971 832 1162 1050 1409 1050 c 0
 1656 1050 1847 832 1847 520 c 0
 1847 513 1847 507 1847 500 c 1
 1802 500 l 1
 1802 507 1802 513 1802 520 c 0
 1802 856 1577 1010 1409 1010 c 0
 1241 1010 1016 856 1016 520 c 0
 1016 184 1241 30 1409 30 c 0
 1555 30 1707 108 1783 274 c 1
185 520 m 0
 185 184 410 30 578 30 c 0
 746 30 971 184 971 520 c 0
 971 856 746 1010 578 1010 c 0
 410 1010 185 856 185 520 c 0
140 520 m 0
 140 832 331 1050 578 1050 c 0
 825 1050 1016 832 1016 520 c 0
 1016 208 825 -10 578 -10 c 0
 331 -10 140 208 140 520 c 0
EndSplineSet
Substitution2: "sous-table 'smcp' Bas-de-casse vers petites capitales dans Latin lookup 0" oe.sc
Colour: ff00
EndChar

StartChar: OE
Encoding: 338 338 320
Width: 2324
Flags: HMW
LayerCount: 4
Fore
SplineSet
186 740 m 0
 186 265 497 32 757 32 c 0
 1017 32 1328 265 1328 740 c 0
 1328 1215 1017 1448 757 1448 c 0
 497 1448 186 1215 186 740 c 0
140 740 m 0
 140 1179 409 1490 757 1490 c 0
 1105 1490 1374 1179 1374 740 c 0
 1374 301 1105 -10 757 -10 c 0
 409 -10 140 301 140 740 c 0
2061 761 m 17
 2061 719 l 9
 1374 719 l 17
 1374 42 l 1
 2144 42 l 1
 2144 0 l 1
 1328 0 l 25
 1328 1480 l 1
 2144 1480 l 17
 2144 1438 l 1
 1374 1438 l 1
 1374 761 l 9
 2061 761 l 17
EndSplineSet
Colour: ffff
EndChar

StartChar: dcaron
Encoding: 271 271 322
Width: 1315
VWidth: 1000
Flags: HMW
LayerCount: 4
Fore
SplineSet
1152 1426 m 4
 1152 1462 1180 1490 1216 1490 c 4
 1252 1490 1280 1462 1280 1426 c 4
 1280 1390 1252 1362 1216 1362 c 4
 1180 1362 1152 1390 1152 1426 c 4
1152 1168 m 5
 1202 1181 1269 1242 1269 1332 c 4
 1269 1412 1216 1445 1216 1445 c 5
 1216 1490 l 5
 1278 1490 1315 1412 1315 1332 c 4
 1315 1222 1232 1146 1164 1126 c 5
 1152 1168 l 5
935 520 m 1
 935 856 735 1010 560 1010 c 0
 385 1010 185 856 185 520 c 0
 185 184 385 30 560 30 c 0
 735 30 935 184 935 520 c 1
972 208 m 1
 972 110 984 0 984 0 c 1
 939 0 l 1
 939 0 927 110 927 260 c 1
 896 144 770 -10 560 -10 c 0
 313 -10 140 208 140 520 c 0
 140 832 313 1050 560 1050 c 0
 760 1050 896 896 927 780 c 1
 927 1480 l 1
 972 1480 l 1
 972 208 l 1
EndSplineSet
Substitution2: "sous-table 'smcp' Bas-de-casse vers petites capitales dans Latin lookup 0" dcaron.sc
Colour: ff00
EndChar

StartChar: dcroat
Encoding: 273 273 323
Width: 1182
VWidth: 1000
Flags: HMW
LayerCount: 4
Fore
SplineSet
1182 1218 m 5
 592 1218 l 5
 592 1264 592 1214 592 1260 c 5
 1182 1260 l 5
 1182 1218 l 5
935 520 m 1
 935 856 735 1010 560 1010 c 0
 385 1010 185 856 185 520 c 0
 185 184 385 30 560 30 c 0
 735 30 935 184 935 520 c 1
972 208 m 1
 972 110 984 0 984 0 c 1
 939 0 l 1
 939 0 927 110 927 260 c 1
 896 144 770 -10 560 -10 c 0
 313 -10 140 208 140 520 c 0
 140 832 313 1050 560 1050 c 0
 760 1050 896 896 927 780 c 1
 927 1480 l 1
 972 1480 l 1
 972 208 l 1
EndSplineSet
Substitution2: "sous-table 'smcp' Bas-de-casse vers petites capitales dans Latin lookup 0" dcroat.sc
Colour: ff00
EndChar

StartChar: Hbar
Encoding: 294 294 324
Width: 1264
Flags: HMW
LayerCount: 4
Fore
SplineSet
1264 1059 m 5
 0 1059 l 5
 0 1105 0 1055 0 1101 c 5
 1264 1101 l 5
 1264 1059 l 5
140 1480 m 25
 186 1480 l 25
 186 761 l 25
 1078 761 l 25
 1078 1480 l 25
 1124 1480 l 25
 1124 0 l 25
 1078 0 l 25
 1078 719 l 25
 186 719 l 25
 186 0 l 25
 140 0 l 25
 140 1480 l 25
EndSplineSet
Substitution2: "sous-table 'c2sc' Capitales vers petites capitales dans Latin lookup 0" hbar.sc
Colour: ffff
EndChar

StartChar: hbar
Encoding: 295 295 325
Width: 1160
VWidth: 1000
Flags: HMW
LayerCount: 4
Fore
SplineSet
590 1218 m 5
 0 1218 l 5
 0 1264 0 1214 0 1260 c 5
 590 1260 l 5
 590 1218 l 5
935 0 m 1
 935 572 l 2
 935 791 865 1010 595 1010 c 0
 325 1010 255 791 255 572 c 2
 255 0 l 1
 210 0 l 1
 210 1480 l 1
 255 1480 l 1
 255 820 l 1
 292 927 375 1050 605 1050 c 0
 843 1050 980 892 980 572 c 1
 980 0 l 1
 935 0 l 1
EndSplineSet
Substitution2: "sous-table 'smcp' Bas-de-casse vers petites capitales dans Latin lookup 0" hbar.sc
Colour: ff00
EndChar

StartChar: Lcaron
Encoding: 317 317 332
Width: 1176
Flags: HMW
LayerCount: 4
Fore
SplineSet
406 1426 m 0
 406 1462 434 1490 470 1490 c 0
 506 1490 534 1462 534 1426 c 0
 534 1390 506 1362 470 1362 c 0
 434 1362 406 1390 406 1426 c 0
406 1168 m 1
 456 1181 523 1242 523 1332 c 0
 523 1412 470 1445 470 1445 c 1
 470 1490 l 1
 532 1490 569 1412 569 1332 c 0
 569 1222 486 1146 418 1126 c 1
 406 1168 l 1
226 1480 m 17
 226 42 l 1
 996 42 l 1
 996 0 l 1
 180 0 l 25
 180 1480 l 1
 226 1480 l 17
EndSplineSet
Substitution2: "sous-table 'c2sc' Capitales vers petites capitales dans Latin lookup 0" lcaron.sc
Colour: ffff
EndChar

StartChar: lcaron
Encoding: 318 318 333
Width: 568
Flags: HMW
LayerCount: 4
Fore
SplineSet
405 1426 m 4
 405 1462 433 1490 469 1490 c 4
 505 1490 533 1462 533 1426 c 4
 533 1390 505 1362 469 1362 c 4
 433 1362 405 1390 405 1426 c 4
405 1168 m 5
 455 1181 522 1242 522 1332 c 4
 522 1412 469 1445 469 1445 c 5
 469 1490 l 5
 531 1490 568 1412 568 1332 c 4
 568 1222 485 1146 417 1126 c 5
 405 1168 l 5
489 56 m 1
 500 14 l 1
 475 -3 445 -10 417 -10 c 0
 267 -10 180 60 180 230 c 2
 180 440 l 1
 180 578 l 1
 180 1480 l 1
 225 1480 l 1
 225 578 l 1
 225 440 l 1
 225 230 l 2
 225 40 364 30 417 30 c 0
 431 30 458 36 489 56 c 1
EndSplineSet
Substitution2: "sous-table 'smcp' Bas-de-casse vers petites capitales dans Latin lookup 0" lcaron.sc
Colour: ff00
EndChar

StartChar: Lslash
Encoding: 321 321 334
Width: 1166
Flags: HMW
LayerCount: 4
Fore
SplineSet
536 950 m 5
 536 902 l 5
 0 592 l 5
 0 640 l 5
 536 950 l 5
256 1480 m 17
 256 42 l 1
 1026 42 l 1
 1026 0 l 1
 210 0 l 25
 210 1480 l 1
 256 1480 l 17
EndSplineSet
Substitution2: "sous-table 'c2sc' Capitales vers petites capitales dans Latin lookup 0" lslash.sc
Colour: ffff
EndChar

StartChar: lslash
Encoding: 322 322 335
Width: 540
Flags: HMW
LayerCount: 4
Fore
SplineSet
435 908 m 5
 435 863 l 5
 -30 594 l 5
 -30 639 l 5
 435 908 l 5
489 56 m 1
 500 14 l 1
 475 -3 445 -10 417 -10 c 0
 267 -10 180 60 180 230 c 2
 180 440 l 1
 180 578 l 1
 180 1480 l 1
 225 1480 l 1
 225 578 l 1
 225 440 l 1
 225 230 l 2
 225 40 364 30 417 30 c 0
 431 30 458 36 489 56 c 1
EndSplineSet
Substitution2: "sous-table 'smcp' Bas-de-casse vers petites capitales dans Latin lookup 0" lslash.sc
Colour: ff00
EndChar

StartChar: Eng
Encoding: 330 330 339
Width: 1344
Flags: HMW
LayerCount: 4
Fore
SplineSet
1164 -210 m 2
 1164 -380 1076 -450 926 -450 c 0
 898 -450 868 -443 843 -426 c 1
 854 -384 l 1
 885 -404 912 -410 926 -410 c 0
 979 -410 1118 -400 1118 -210 c 2
 1118 0 l 1
 1164 0 l 1
 1164 -210 l 2
226 1480 m 1
 1118 90 l 9
 1118 1480 l 1
 1164 1480 l 25
 1164 0 l 25
 1118 0 l 1
 226 1390 l 1
 226 0 l 1
 180 0 l 25
 180 1480 l 1
 226 1480 l 1
EndSplineSet
Substitution2: "sous-table 'c2sc' Capitales vers petites capitales dans Latin lookup 0" eng.sc
Colour: ffff
EndChar

StartChar: eng
Encoding: 331 331 340
Width: 1130
VWidth: 1000
Flags: HMW
LayerCount: 4
Fore
SplineSet
950 -210 m 6
 950 -380 863 -450 713 -450 c 4
 685 -450 655 -443 630 -426 c 5
 641 -384 l 5
 672 -404 699 -410 713 -410 c 4
 766 -410 905 -400 905 -210 c 6
 905 0 l 5
 950 0 l 5
 950 -210 l 6
905 572 m 2
 905 791 835 1010 565 1010 c 0
 295 1010 225 791 225 572 c 2
 225 0 l 1
 180 0 l 1
 180 1040 l 1
 225 1040 l 1
 225 820 l 1
 262 927 345 1050 575 1050 c 0
 813 1050 950 892 950 572 c 1
 950 0 l 5
 905 0 l 5
 905 572 l 2
EndSplineSet
Substitution2: "sous-table 'smcp' Bas-de-casse vers petites capitales dans Latin lookup 0" eng.sc
Colour: ff00
EndChar

StartChar: afii57929
Encoding: 700 700 341
Width: 403
VWidth: 1000
Flags: HMW
LayerCount: 4
Fore
SplineSet
120 1426 m 4
 120 1462 148 1490 184 1490 c 4
 220 1490 248 1462 248 1426 c 4
 248 1390 220 1362 184 1362 c 4
 148 1362 120 1390 120 1426 c 4
120 1168 m 5
 170 1181 237 1242 237 1332 c 4
 237 1412 184 1445 184 1445 c 5
 184 1490 l 5
 246 1490 283 1412 283 1332 c 4
 283 1222 200 1146 132 1126 c 5
 120 1168 l 5
EndSplineSet
Colour: ff00
EndChar

StartChar: uni030B
Encoding: 779 779 342
Width: 0
VWidth: 1000
Flags: HMW
AnchorPoint: "top_center" 642 1040 mark 0
LayerCount: 4
Fore
SplineSet
758 1224 m 5
 714 1224 l 5
 900 1480 l 5
 956 1480 l 5
 758 1224 l 5
516 1224 m 5
 472 1224 l 5
 658 1480 l 5
 714 1480 l 5
 516 1224 l 5
EndSplineSet
Colour: ffff00
EndChar

StartChar: tcaron
Encoding: 357 357 349
Width: 968
VWidth: 1000
Flags: HMW
LayerCount: 4
Fore
SplineSet
805 1426 m 0
 805 1462 833 1490 869 1490 c 0
 905 1490 933 1462 933 1426 c 0
 933 1390 905 1362 869 1362 c 0
 833 1362 805 1390 805 1426 c 0
805 1168 m 1
 855 1181 922 1242 922 1332 c 0
 922 1412 869 1445 869 1445 c 1
 869 1490 l 1
 931 1490 968 1412 968 1332 c 0
 968 1222 885 1146 817 1126 c 1
 805 1168 l 1
148 1040 m 1
 298 1040 314 1056 314 1206 c 1
 314 1320 l 1
 359 1320 l 1
 359 1040 l 1
 665 1040 l 1
 665 1000 l 1
 359 1000 l 1
 359 300 l 2
 359 60 467 30 557 30 c 0
 595 30 649 37 688 65 c 1
 702 22 l 1
 662 4 606 -10 557 -10 c 0
 381 -10 314 100 314 300 c 2
 314 1000 l 1
 70 1000 l 1
 70 1010 70 1030 70 1040 c 1
 148 1040 l 1
EndSplineSet
Substitution2: "sous-table 'smcp' Bas-de-casse vers petites capitales dans Latin lookup 0" tcaron.sc
Colour: ff00
EndChar

StartChar: tbar
Encoding: 359 359 350
Width: 772
VWidth: 1000
Flags: HMW
LayerCount: 4
Fore
SplineSet
70 500 m 1
 70 510 70 530 70 540 c 1
 665 540 l 1
 665 500 l 1
 70 500 l 1
148 1040 m 1
 298 1040 314 1056 314 1206 c 1
 314 1320 l 1
 359 1320 l 1
 359 1040 l 1
 665 1040 l 1
 665 1000 l 1
 359 1000 l 1
 359 300 l 2
 359 60 467 30 557 30 c 0
 595 30 649 37 688 65 c 1
 702 22 l 1
 662 4 606 -10 557 -10 c 0
 381 -10 314 100 314 300 c 2
 314 1000 l 1
 70 1000 l 1
 70 1010 70 1030 70 1040 c 1
 148 1040 l 1
EndSplineSet
Substitution2: "sous-table 'smcp' Bas-de-casse vers petites capitales dans Latin lookup 0" tbar.sc
Colour: ff00
EndChar

StartChar: Tbar
Encoding: 358 358 351
Width: 1344
Flags: HMW
LayerCount: 4
Fore
SplineSet
935 719 m 1
 409 719 l 1
 409 765 409 715 409 761 c 1
 935 761 l 1
 935 719 l 1
695 0 m 25
 649 0 l 25
 649 1438 l 25
 180 1438 l 25
 180 1480 l 25
 1164 1480 l 25
 1164 1438 l 25
 695 1438 l 25
 695 0 l 25
EndSplineSet
Substitution2: "sous-table 'c2sc' Capitales vers petites capitales dans Latin lookup 0" tbar.sc
Colour: ffff
EndChar

StartChar: zero.subscript
Encoding: 8320 8320 353
Width: 740
Flags: HMW
LayerCount: 4
Fore
SplineSet
130 241 m 0
 130 -26 231 -164 370 -164 c 0
 509 -164 610 -26 610 241 c 0
 610 508 509 646 370 646 c 0
 231 646 130 508 130 241 c 0
97 241 m 0
 97 531 213 676 370 676 c 0
 527 676 643 531 643 241 c 0
 643 -49 527 -194 370 -194 c 0
 213 -194 97 -49 97 241 c 0
EndSplineSet
Substitution2: "'tnum' Tabular Numbers lookups0-1" zero.subscript.tnum
Substitution2: "'pnum' Proportional Numbers lookups0-1" zero.subscript.pnum
Colour: ff8000
EndChar

StartChar: four.subscript
Encoding: 8324 8324 354
Width: 740
Flags: HMW
LayerCount: 4
Fore
SplineSet
434 670 m 1
 394 670 l 1
 116 58 l 1
 116 34 l 1
 448 34 l 1
 448 -188 l 1
 481 -188 l 1
 481 34 l 1
 624 34 l 1
 624 65 l 1
 481 65 l 1
 481 281 l 1
 448 281 l 1
 448 65 l 1
 158 65 l 5
 434 670 l 1
EndSplineSet
Substitution2: "'tnum' Tabular Numbers lookups0-1" four.subscript.tnum
Substitution2: "'pnum' Proportional Numbers lookups0-1" four.subscript.pnum
Colour: ff8000
EndChar

StartChar: five.subscript
Encoding: 8325 8325 355
Width: 740
Flags: HMW
LayerCount: 4
Fore
SplineSet
200 670 m 5
 216 670 l 1
 596 670 l 1
 596 640 l 1
 214 640 l 1
 160 276 l 1
 203 340 264 379 370 379 c 0
 515 379 636 261 636 92 c 0
 636 -77 523 -194 368 -194 c 0
 213 -194 107 -105 104 34 c 1
 136 41 l 1
 136 -91 238 -164 368 -164 c 0
 517 -164 602 -40 602 92 c 0
 602 224 511 348 368 348 c 0
 225 348 183 271 152 219 c 1
 124 227 l 1
 190 670 l 1
 200 670 l 5
EndSplineSet
Substitution2: "'tnum' Tabular Numbers lookups0-1" five.subscript.tnum
Substitution2: "'pnum' Proportional Numbers lookups0-1" five.subscript.pnum
Colour: ff8000
EndChar

StartChar: six.subscript
Encoding: 8326 8326 356
Width: 740
Flags: HMW
LayerCount: 4
Fore
SplineSet
127 159 m 1
 149 303 254 379 383 379 c 0
 528 379 648 261 648 92 c 0
 648 -77 528 -194 382 -194 c 0
 270 -194 173 -125 134 -17 c 0
 116 24 92 101 92 223 c 0
 92 523 238 676 425 676 c 0
 563 676 620 596 620 596 c 1
 602 569 l 1
 602 569 552 646 417 646 c 0
 282 646 104 527 127 159 c 1
144 92 m 0
 144 -40 231 -164 380 -164 c 0
 529 -164 615 -40 615 92 c 0
 615 224 523 348 380 348 c 0
 237 348 144 224 144 92 c 0
EndSplineSet
Substitution2: "'tnum' Tabular Numbers lookups0-1" six.subscript.tnum
Substitution2: "'pnum' Proportional Numbers lookups0-1" six.subscript.pnum
Colour: ff8000
EndChar

StartChar: seven.subscript
Encoding: 8327 8327 357
Width: 740
Flags: HMW
LayerCount: 4
Fore
SplineSet
116 640 m 1
 116 670 l 1
 624 670 l 1
 624 643 l 1
 624 643 341 294 304 -188 c 1
 299 -188 276 -188 271 -188 c 1
 305 262 547 592 584 640 c 1
 116 640 l 1
EndSplineSet
Substitution2: "'tnum' Tabular Numbers lookups0-1" seven.subscript.tnum
Substitution2: "'pnum' Proportional Numbers lookups0-1" seven.subscript.pnum
Colour: ff8000
EndChar

StartChar: eight.subscript
Encoding: 8328 8328 358
Width: 740
Flags: HMW
LayerCount: 4
Fore
SplineSet
90 38 m 0
 90 179 216 247 288 261 c 1
 221 269 119 334 119 464 c 0
 119 594 222 676 370 676 c 0
 518 676 621 594 621 464 c 0
 621 334 520 269 453 261 c 1
 525 247 650 179 650 38 c 0
 650 -103 534 -194 370 -194 c 0
 206 -194 90 -103 90 38 c 0
152 461 m 0
 152 350 251 276 370 276 c 0
 489 276 588 350 588 461 c 0
 588 577 489 646 370 646 c 0
 251 646 152 577 152 461 c 0
370 246 m 0
 257 246 123 173 123 41 c 0
 123 -91 233 -164 370 -164 c 0
 507 -164 617 -91 617 41 c 0
 617 173 483 246 370 246 c 0
EndSplineSet
Substitution2: "'tnum' Tabular Numbers lookups0-1" eight.subscript.tnum
Substitution2: "'pnum' Proportional Numbers lookups0-1" eight.subscript.pnum
Colour: ff8000
EndChar

StartChar: nine.subscript
Encoding: 8329 8329 359
Width: 740
Flags: HMW
LayerCount: 4
Fore
SplineSet
613 323 m 1
 591 179 486 103 357 103 c 0
 212 103 92 221 92 390 c 0
 92 559 212 676 358 676 c 0
 470 676 567 607 606 499 c 0
 624 458 648 381 648 259 c 0
 648 -41 502 -194 315 -194 c 0
 177 -194 120 -114 120 -114 c 1
 138 -87 l 1
 138 -87 188 -164 323 -164 c 0
 458 -164 636 -45 613 323 c 1
596 390 m 0
 596 522 509 646 360 646 c 0
 211 646 125 522 125 390 c 0
 125 258 217 134 360 134 c 0
 503 134 596 258 596 390 c 0
EndSplineSet
Substitution2: "'tnum' Tabular Numbers lookups0-1" nine.subscript.tnum
Substitution2: "'pnum' Proportional Numbers lookups0-1" nine.subscript.pnum
Colour: ff8000
EndChar

StartChar: two.subscript
Encoding: 8322 8322 360
Width: 740
Flags: HMW
LayerCount: 4
Fore
SplineSet
111 -188 m 1
 111 -121 113 -11 367 134 c 0
 530 227 592 293 592 418 c 0
 592 557 503 646 370 646 c 0
 234 646 148 535 148 384 c 0
 148 382 148 380 149 376 c 1
 115 384 l 1
 115 563 224 676 370 676 c 0
 516 676 625 584 625 418 c 0
 625 256 502 175 372 101 c 0
 253 33 159 -42 145 -158 c 1
 630 -158 l 1
 630 -188 l 1
 143 -188 l 1
 120 -188 l 1
 111 -188 l 1
EndSplineSet
Substitution2: "'tnum' Tabular Numbers lookups0-1" two.subscript.tnum
Substitution2: "'pnum' Proportional Numbers lookups0-1" two.subscript.pnum
Colour: ff8000
EndChar

StartChar: three.subscript
Encoding: 8323 8323 361
Width: 740
Flags: HMW
LayerCount: 4
Fore
SplineSet
367 276 m 2
 483 276 572 350 572 461 c 0
 572 577 483 646 367 646 c 0
 237 646 147 573 147 441 c 0
 114 448 l 1
 117 587 213 676 368 676 c 0
 512 676 605 594 605 464 c 0
 605 334 513 269 447 261 c 1
 518 247 641 179 641 38 c 0
 641 -103 528 -194 369 -194 c 0
 211 -194 103 -105 100 34 c 1
 133 41 l 0
 133 -91 236 -164 369 -164 c 0
 502 -164 608 -91 608 41 c 0
 608 173 478 246 368 246 c 2
 319 246 l 25
 319 276 l 25
 367 276 l 2
EndSplineSet
Substitution2: "'tnum' Tabular Numbers lookups0-1" three.subscript.tnum
Substitution2: "'pnum' Proportional Numbers lookups0-1" three.subscript.pnum
Colour: ff8000
EndChar

StartChar: one.subscript
Encoding: 8321 8321 362
Width: 740
Flags: HMW
LayerCount: 4
Fore
SplineSet
390 432 m 1
 196 432 l 1
 196 463 l 1
 280 463 l 2
 377 463 390 480 390 586 c 2
 390 670 l 1
 424 670 l 1
 424 415 l 1
 424 -188 l 1
 390 -188 l 1
 390 432 l 1
EndSplineSet
Substitution2: "'tnum' Tabular Numbers lookups0-1" one.subscript.tnum
Substitution2: "'pnum' Proportional Numbers lookups0-1" one.subscript.pnum
Colour: ff8000
EndChar

StartChar: longs
Encoding: 383 383 363
Width: 638
VWidth: 1000
Flags: HMW
AnchorPoint: "bottom_center" 202 0 basechar 0
AnchorPoint: "top_center" 344 1380 basechar 0
LayerCount: 4
Fore
SplineSet
225 1040 m 1
 225 1180 l 2
 225 1420 333 1450 423 1450 c 0
 461 1450 515 1443 554 1415 c 1
 568 1458 l 1
 528 1476 472 1490 423 1490 c 0
 247 1490 180 1380 180 1180 c 2
 180 1040 l 1
 180 0 l 1
 225 0 l 1
 225 1040 l 1
EndSplineSet
Colour: ff00
EndChar

StartChar: uni0180
Encoding: 384 384 364
Width: 1182
VWidth: 1000
Flags: HMW
LayerCount: 4
Fore
SplineSet
590 1218 m 5
 0 1218 l 5
 0 1264 0 1214 0 1260 c 5
 590 1260 l 5
 590 1218 l 5
247 520 m 1
 247 184 447 30 622 30 c 0
 797 30 997 184 997 520 c 0
 997 856 797 1010 622 1010 c 0
 447 1010 247 856 247 520 c 1
210 208 m 1
 210 1480 l 1
 255 1480 l 1
 255 780 l 1
 286 896 422 1050 622 1050 c 0
 869 1050 1042 832 1042 520 c 0
 1042 208 869 -10 622 -10 c 0
 412 -10 286 144 255 260 c 1
 255 0 l 1
 210 0 l 1
 210 0 210 110 210 208 c 1
EndSplineSet
Substitution2: "sous-table 'smcp' Bas-de-casse vers petites capitales dans Latin lookup 0" uni0180.sc
Colour: ff00
EndChar

StartChar: uni0181
Encoding: 385 385 365
Width: 1284
Flags: HMW
LayerCount: 4
Fore
SplineSet
46 1158 m 5
 1 1158 l 5
 0 1162 0 1166 -0 1170 c 4
 0 1348 132 1480 310 1480 c 4
 314 1480 318 1480 322 1479 c 5
 322 1439 l 5
 318 1440 314 1440 310 1440 c 4
 155 1440 45 1325 45 1170 c 4
 45 1166 45 1162 46 1158 c 5
725 1480 m 1
 919 1480 1087 1362 1087 1142 c 0
 1087 922 919 804 725 804 c 1
 725 846 l 1
 915 846 1041 962 1041 1142 c 0
 1041 1322 915 1438 725 1438 c 9
 356 1438 l 1
 356 1480 l 25
 725 1480 l 1
356 42 m 25
 725 42 l 17
 950 42 1098 223 1098 423 c 0
 1098 623 950 804 725 804 c 9
 356 804 l 25
 356 42 l 25
310 0 m 1
 310 1480 l 1
 356 1480 l 25
 356 846 l 1
 725 846 l 1
 949 846 1144 678 1144 423 c 0
 1144 168 949 0 725 0 c 1
 310 0 l 1
EndSplineSet
Colour: ffff
EndChar

StartChar: uni0182
Encoding: 386 386 366
Width: 1154
Flags: HMW
LayerCount: 4
Fore
SplineSet
934 1438 m 13
 226 1438 l 1
 226 1480 l 25
 934 1480 l 5
 934 1438 l 13
226 42 m 25
 595 42 l 17
 806 42 968 208 968 423 c 0
 968 638 806 804 595 804 c 9
 226 804 l 25
 226 42 l 25
180 1480 m 1
 226 1480 l 25
 226 846 l 1
 595 846 l 1
 833 846 1014 664 1014 423 c 0
 1014 182 833 0 595 0 c 1
 180 0 l 1
 180 1480 l 1
EndSplineSet
Substitution2: "sous-table 'c2sc' Capitales vers petites capitales dans Latin lookup 0" uni0183.sc
Colour: ffff
EndChar

StartChar: uni0183
Encoding: 387 387 367
Width: 1152
VWidth: 1000
Flags: HMW
LayerCount: 4
Fore
SplineSet
932 1438 m 5
 225 1438 l 5
 225 1480 l 5
 932 1480 l 5
 932 1438 l 5
217 520 m 1
 217 184 417 30 592 30 c 0
 767 30 967 184 967 520 c 0
 967 856 767 1010 592 1010 c 0
 417 1010 217 856 217 520 c 1
180 208 m 1
 180 1480 l 1
 225 1480 l 5
 225 780 l 1
 256 896 392 1050 592 1050 c 0
 839 1050 1012 832 1012 520 c 0
 1012 208 839 -10 592 -10 c 0
 382 -10 256 144 225 260 c 1
 225 0 l 1
 180 0 l 1
 180 0 180 110 180 208 c 1
EndSplineSet
Substitution2: "sous-table 'smcp' Bas-de-casse vers petites capitales dans Latin lookup 0" uni0183.sc
Colour: ff00
EndChar

StartChar: uni0184
Encoding: 388 388 368
Width: 1144
Flags: HMW
LayerCount: 4
Fore
SplineSet
216 42 m 25
 585 42 l 17
 810 42 958 223 958 423 c 0
 958 623 810 804 585 804 c 9
 216 804 l 25
 216 42 l 25
190 1480 m 5
 216 1480 l 29
 216 846 l 1
 585 846 l 1
 809 846 1004 678 1004 423 c 0
 1004 168 809 0 585 0 c 1
 170 0 l 1
 170 1240 l 5
 0 1325 l 5
 190 1480 l 5
EndSplineSet
Substitution2: "sous-table 'c2sc' Capitales vers petites capitales dans Latin lookup 0" uni0185.sc
Colour: ffff
EndChar

StartChar: uni0185
Encoding: 389 389 369
Width: 1143
VWidth: 1000
Flags: HMW
LayerCount: 4
Fore
SplineSet
208 520 m 1
 208 184 408 30 583 30 c 0
 758 30 958 184 958 520 c 0
 958 856 758 1010 583 1010 c 0
 408 1010 208 856 208 520 c 1
216 1480 m 17
 216 780 l 1
 247 896 383 1050 583 1050 c 0
 830 1050 1003 832 1003 520 c 0
 1003 208 830 -10 583 -10 c 0
 373 -10 247 144 216 260 c 1
 216 0 l 1
 171 0 l 1
 171 0 171 110 171 208 c 1
 171 1240 l 5
 0 1325 l 1
 190 1480 l 1
 216 1480 l 17
EndSplineSet
Substitution2: "sous-table 'smcp' Bas-de-casse vers petites capitales dans Latin lookup 0" uni0185.sc
Colour: ff00
EndChar

StartChar: uni0186
Encoding: 390 390 370
Width: 1436
Flags: HMW
AnchorPoint: "bottom_cedilla" 679 -20 basechar 0
AnchorPoint: "bottom_center" 679 0 basechar 0
AnchorPoint: "top_center" 679 1380 basechar 0
LayerCount: 4
Fore
SplineSet
180 1097 m 1
 287 1332 496 1448 679 1448 c 0
 939 1448 1250 1215 1250 740 c 0
 1250 265 939 32 679 32 c 0
 496 32 287 148 180 383 c 1
 140 360 l 1
 244 132 444 -10 679 -10 c 0
 1027 -10 1296 301 1296 740 c 0
 1296 1179 1027 1490 679 1490 c 0
 444 1490 244 1348 140 1120 c 1
 180 1097 l 1
EndSplineSet
Colour: ffff
EndChar

StartChar: uni0187
Encoding: 391 391 371
Width: 1548
Flags: HMW
LayerCount: 4
Fore
SplineSet
1536 1490 m 4
 1540 1490 1544 1490 1548 1489 c 5
 1548 1449 l 5
 1544 1450 1540 1450 1536 1450 c 4
 1381 1450 1271 1335 1271 1180 c 4
 1271 1176 1271 1172 1272 1168 c 5
 1227 1168 l 5
 1226 1172 1226 1176 1226 1180 c 4
 1226 1358 1358 1490 1536 1490 c 4
1256 1097 m 1
 1149 1332 940 1448 757 1448 c 0
 497 1448 186 1215 186 740 c 0
 186 265 497 32 757 32 c 0
 940 32 1149 148 1256 383 c 1
 1296 360 l 1
 1192 132 992 -10 757 -10 c 0
 409 -10 140 301 140 740 c 0
 140 1179 409 1490 757 1490 c 0
 992 1490 1192 1348 1296 1120 c 1
 1256 1097 l 1
EndSplineSet
Substitution2: "sous-table 'c2sc' Capitales vers petites capitales dans Latin lookup 0" uni0188.sc
Colour: ffff
EndChar

StartChar: uni0188
Encoding: 392 392 372
Width: 1237
VWidth: 1000
Flags: HMW
LayerCount: 4
Fore
SplineSet
1225 1110 m 4
 1229 1110 1233 1110 1237 1109 c 5
 1237 1069 l 5
 1233 1070 1229 1070 1225 1070 c 4
 1070 1070 960 955 960 800 c 4
 960 796 960 792 961 788 c 5
 916 788 l 5
 915 792 915 796 915 800 c 4
 915 978 1047 1110 1225 1110 c 4
185 520 m 0
 185 184 410 30 578 30 c 0
 698 30 846 108 922 274 c 1
 961 252 l 1
 887 90 745 -10 578 -10 c 0
 331 -10 140 208 140 520 c 0
 140 832 331 1050 578 1050 c 0
 745 1050 887 950 961 788 c 5
 922 766 l 1
 846 932 698 1010 578 1010 c 0
 410 1010 185 856 185 520 c 0
EndSplineSet
Substitution2: "sous-table 'smcp' Bas-de-casse vers petites capitales dans Latin lookup 0" uni0188.sc
Colour: ff00
EndChar

StartChar: uni018A
Encoding: 394 394 374
Width: 1452
Flags: HMW
LayerCount: 4
Fore
SplineSet
46 1158 m 1
 1 1158 l 1
 0 1162 0 1166 0 1170 c 0
 0 1348 132 1480 310 1480 c 0
 314 1480 318 1480 322 1479 c 1
 322 1439 l 1
 318 1440 314 1440 310 1440 c 0
 155 1440 45 1325 45 1170 c 0
 45 1166 45 1162 46 1158 c 1
356 1438 m 25
 356 42 l 25
 726 42 l 17
 964 42 1266 240 1266 740 c 0
 1266 1240 964 1438 726 1438 c 9
 356 1438 l 25
726 0 m 1
 477 0 l 25
 310 0 l 1
 310 1480 l 1
 726 1480 l 1
 1060 1480 1312 1190 1312 740 c 0
 1312 290 1060 0 726 0 c 1
EndSplineSet
Colour: ffff
EndChar

StartChar: uni018B
Encoding: 395 395 375
Width: 1154
Flags: HMW
LayerCount: 4
Fore
SplineSet
220 1438 m 13
 928 1438 l 1
 928 1480 l 25
 220 1480 l 5
 220 1438 l 13
928 42 m 25
 559 42 l 17
 334 42 186 223 186 423 c 0
 186 623 334 804 559 804 c 9
 928 804 l 25
 928 42 l 25
974 1480 m 1
 928 1480 l 25
 928 846 l 1
 559 846 l 1
 335 846 140 678 140 423 c 0
 140 168 335 0 559 0 c 1
 974 0 l 1
 974 1480 l 1
EndSplineSet
Substitution2: "sous-table 'c2sc' Capitales vers petites capitales dans Latin lookup 0" uni018C.sc
Colour: ffff
EndChar

StartChar: uni018C
Encoding: 396 396 376
Width: 1152
VWidth: 1000
Flags: HMW
LayerCount: 4
Fore
SplineSet
220 1438 m 1
 927 1438 l 1
 927 1480 l 1
 220 1480 l 1
 220 1438 l 1
935 520 m 1
 935 184 735 30 560 30 c 0
 385 30 185 184 185 520 c 0
 185 856 385 1010 560 1010 c 0
 735 1010 935 856 935 520 c 1
972 208 m 1
 972 1480 l 1
 927 1480 l 1
 927 780 l 1
 896 896 760 1050 560 1050 c 0
 313 1050 140 832 140 520 c 0
 140 208 313 -10 560 -10 c 0
 770 -10 896 144 927 260 c 1
 927 110 939 0 939 0 c 1
 984 0 l 1
 984 0 972 110 972 208 c 1
EndSplineSet
Substitution2: "sous-table 'smcp' Bas-de-casse vers petites capitales dans Latin lookup 0" uni018C.sc
Colour: ff00
EndChar

StartChar: uni018D
Encoding: 397 397 377
Width: 1156
VWidth: 1000
Flags: HMW
LayerCount: 4
Fore
SplineSet
1016 520 m 0
 1016 208 825 10 578 10 c 5
 578 30 l 4
 746 30 971 184 971 520 c 0
 971 856 746 1010 578 1010 c 0
 410 1010 185 856 185 520 c 0
 185 184 410 30 578 30 c 4
 578 -10 l 5
 331 -10 140 208 140 520 c 0
 140 832 331 1050 578 1050 c 0
 825 1050 1016 832 1016 520 c 0
538 -450 m 4
 378 -450 275 -395 219 -358 c 5
 243 -317 l 5
 300 -354 413 -410 548 -410 c 4
 818 -410 906 -290 906 -210 c 4
 906 -130 868 -10 578 -10 c 4
 578 30 l 4
 896 30 951 -110 951 -210 c 4
 951 -310 856 -450 538 -450 c 4
EndSplineSet
Colour: ff00
EndChar

StartChar: uni018E
Encoding: 398 398 378
Width: 1176
Flags: HMW
LayerCount: 4
Fore
SplineSet
263 719 m 21
 263 761 l 13
 950 761 l 21
 950 1438 l 1
 180 1438 l 1
 180 1480 l 1
 996 1480 l 25
 996 0 l 1
 180 0 l 17
 180 42 l 1
 950 42 l 1
 950 719 l 13
 263 719 l 21
EndSplineSet
Substitution2: "sous-table 'c2sc' Capitales vers petites capitales dans Latin lookup 0" uni01DD.sc
Colour: ffff
EndChar

StartChar: uni018F
Encoding: 399 399 379
Width: 1514
Flags: HMW
LayerCount: 4
Fore
SplineSet
140 761 m 1
 140 754 140 747 140 740 c 0
 140 301 409 -10 757 -10 c 0
 1105 -10 1374 301 1374 740 c 0
 1374 1179 1105 1490 757 1490 c 0
 502 1490 292 1348 188 1120 c 1
 228 1097 l 1
 335 1332 554 1448 757 1448 c 0
 1017 1448 1328 1215 1328 740 c 0
 1328 265 1017 32 757 32 c 0
 497 32 186 265 186 740 c 0
 186 747 186 754 186 761 c 5
 140 761 l 1
1350 719 m 21
 1350 761 l 5
 186 761 l 21
 173 719 l 5
 1350 719 l 21
EndSplineSet
Colour: ffff
EndChar

StartChar: uni0190
Encoding: 400 400 380
Width: 1176
VWidth: 1000
Flags: HMW
AnchorPoint: "bottom_center" 591 0 basechar 0
AnchorPoint: "top_center" 591 1380 basechar 0
LayerCount: 4
Fore
SplineSet
591 796 m 2
 391 796 238 927 238 1122 c 0
 238 1327 391 1448 591 1448 c 0
 816 1448 971 1319 971 1086 c 0
 1017 1099 l 1
 1012 1337 852 1490 591 1490 c 0
 349 1490 192 1349 192 1126 c 0
 192 903 344 790 453 776 c 1
 339 752 140 633 140 390 c 0
 140 147 327 -10 591 -10 c 0
 852 -10 1031 143 1036 381 c 1
 990 394 l 0
 990 161 816 32 591 32 c 0
 366 32 186 161 186 394 c 0
 186 627 405 756 591 756 c 2
 675 756 l 25
 675 796 l 25
 591 796 l 2
EndSplineSet
Colour: ffff
EndChar

StartChar: uni0191
Encoding: 401 401 381
Width: 1272
Flags: HMW
LayerCount: 4
Fore
SplineSet
0 -269 m 5
 4 -270 8 -270 12 -270 c 4
 167 -270 276 -155 276 0 c 4
 322 0 l 4
 322 -178 190 -310 12 -310 c 4
 8 -310 4 -310 0 -309 c 5
 0 -269 l 5
322 168 m 1
 322 0 l 5
 276 0 l 5
 276 1480 l 1
 1092 1480 l 17
 1092 1438 l 1
 322 1438 l 1
 322 761 l 9
 1009 761 l 17
 1009 719 l 9
 322 719 l 17
 322 168 l 1
EndSplineSet
Colour: ffff
EndChar

StartChar: florin
Encoding: 402 402 382
Width: 772
VWidth: 1000
Flags: HMW
LayerCount: 4
Fore
SplineSet
37 -269 m 5
 41 -270 45 -270 49 -270 c 4
 204 -270 314 -155 314 0 c 4
 359 0 l 4
 359 -178 227 -310 49 -310 c 4
 45 -310 41 -310 37 -309 c 5
 37 -269 l 5
688 1415 m 1
 649 1443 595 1450 557 1450 c 0
 467 1450 359 1420 359 1180 c 2
 359 1040 l 1
 665 1040 l 1
 665 1000 l 1
 359 1000 l 1
 359 0 l 5
 314 0 l 5
 314 1000 l 1
 70 1000 l 1
 70 1040 l 1
 314 1040 l 1
 314 1180 l 2
 314 1380 381 1490 557 1490 c 0
 606 1490 662 1476 702 1458 c 1
 688 1415 l 1
EndSplineSet
Substitution2: "sous-table 'smcp' Bas-de-casse vers petites capitales dans Latin lookup 0" florin.sc
Colour: ff00
EndChar

StartChar: uni0193
Encoding: 403 403 383
Width: 1548
Flags: HMW
LayerCount: 4
Fore
SplineSet
1536 1490 m 4
 1540 1490 1544 1490 1548 1489 c 5
 1548 1449 l 5
 1544 1450 1540 1450 1536 1450 c 4
 1381 1450 1271 1335 1271 1180 c 4
 1271 1176 1271 1172 1272 1168 c 5
 1227 1168 l 5
 1226 1172 1226 1176 1226 1180 c 4
 1226 1358 1358 1490 1536 1490 c 4
1256 1097 m 1
 1149 1332 940 1448 757 1448 c 0
 497 1448 186 1215 186 740 c 0
 186 265 497 32 757 32 c 0
 940 32 1149 148 1256 383 c 1
 1296 360 l 1
 1192 132 992 -10 757 -10 c 0
 409 -10 140 301 140 740 c 0
 140 1179 409 1490 757 1490 c 0
 992 1490 1192 1348 1296 1120 c 1
 1256 1097 l 1
681 740 m 25
 1302 740 l 25
 1302 0 l 25
 1256 0 l 17
 1256 327 l 1
 1256 353 l 1
 1256 698 l 9
 681 698 l 25
 681 740 l 25
EndSplineSet
Substitution2: "'ss03' Simplified G and I lookups0-1" uni0193.ss03
Colour: ffff
EndChar

StartChar: uni0194
Encoding: 404 404 384
Width: 1350
VWidth: 1000
Flags: HMW
LayerCount: 4
Fore
SplineSet
937 0 m 5
 958 -42 965 -90 965 -140 c 4
 965 -318 832 -460 675 -460 c 4
 518 -460 385 -318 385 -140 c 4
 385 -90 393 -42 413 0 c 5
 639 442 l 5
 140 1480 l 1
 189 1480 l 1
 675 479 l 1
 1161 1480 l 1
 1210 1480 l 1
 711 442 l 5
 937 0 l 5
888 0 m 5
 675 415 l 5
 462 0 l 5
 440 -45 431 -100 431 -140 c 4
 431 -305 556 -418 675 -418 c 4
 794 -418 919 -305 919 -140 c 4
 919 -100 912 -45 888 0 c 5
EndSplineSet
Colour: ffff
EndChar

StartChar: uni0195
Encoding: 405 405 385
Width: 1815
VWidth: 1000
Flags: HMW
LayerCount: 4
Fore
SplineSet
1675 468 m 0
 1675 128 1518 -10 1290 -10 c 0
 1062 -10 905 128 905 468 c 1
 905 572 l 1
 905 791 835 1010 565 1010 c 4
 295 1010 225 791 225 572 c 6
 225 0 l 1
 180 0 l 1
 180 1480 l 1
 225 1480 l 1
 225 820 l 1
 262 927 345 1050 575 1050 c 0
 813 1050 950 892 950 572 c 1
 950 468 l 2
 950 131 1122 32 1290 32 c 0
 1458 32 1630 131 1630 468 c 0
 1630 738 1535 920 1453 1029 c 1
 1491 1051 l 1
 1565 960 1675 768 1675 468 c 0
EndSplineSet
Substitution2: "sous-table 'smcp' Bas-de-casse vers petites capitales dans Latin lookup 0" uni0195.sc
Colour: ff00
EndChar

StartChar: uni0196
Encoding: 406 406 386
Width: 608
VWidth: 1000
Flags: HMW
LayerCount: 4
Fore
SplineSet
423 0 m 0
 247 0 180 110 180 310 c 2
 180 490 l 1
 180 1480 l 1
 225 1480 l 1
 225 490 l 1
 225 310 l 2
 225 70 333 40 423 40 c 0
 461 40 515 47 554 75 c 1
 568 32 l 1
 539 12 472 0 423 0 c 0
EndSplineSet
Colour: ff00
EndChar

StartChar: uni0197
Encoding: 407 407 387
Width: 822
Flags: HMW
LayerCount: 4
Fore
SplineSet
675 719 m 5
 147 719 l 5
 147 765 147 715 147 761 c 5
 675 761 l 5
 675 719 l 5
180 1480 m 25
 642 1480 l 25
 642 1438 l 25
 435 1438 l 25
 435 42 l 25
 642 42 l 25
 642 0 l 25
 180 0 l 25
 180 42 l 25
 387 42 l 25
 387 1438 l 25
 180 1438 l 25
 180 1480 l 25
EndSplineSet
Substitution2: "'ss03' Simplified G and I lookups0-1" uni0197.ss03
Colour: ffff
EndChar

StartChar: uni0198
Encoding: 408 408 388
Width: 1338
Flags: HMW
LayerCount: 4
Fore
SplineSet
504 807 m 1
 534 841 l 1
 1198 0 l 1
 1144 0 l 1
 504 807 l 1
180 1180 m 5
 180 1358 313 1490 491 1490 c 4
 495 1490 499 1490 503 1489 c 5
 503 1449 l 5
 499 1450 495 1450 491 1450 c 4
 336 1450 226 1335 226 1180 c 5
 226 568 l 1
 1138 1480 l 1
 1191 1480 1145 1480 1198 1480 c 1
 226 508 l 1
 226 0 l 1
 180 0 l 1
 180 1180 l 5
EndSplineSet
Substitution2: "sous-table 'c2sc' Capitales vers petites capitales dans Latin lookup 0" uni0199.sc
Colour: ffff
EndChar

StartChar: uni0199
Encoding: 409 409 389
Width: 1069
Flags: HMW
LayerCount: 4
Fore
SplineSet
451 601 m 1
 482 630 l 1
 929 0 l 1
 877 0 l 1
 451 601 l 1
180 1180 m 1
 180 1358 312 1490 490 1490 c 1
 494 1490 498 1490 502 1489 c 1
 502 1449 l 1
 498 1450 494 1450 490 1450 c 1
 335 1450 225 1335 225 1180 c 1
 225 398 l 1
 867 1040 l 1
 920 1040 872 1040 925 1040 c 1
 225 340 l 1
 225 0 l 1
 180 0 l 1
 180 1180 l 1
EndSplineSet
Substitution2: "sous-table 'smcp' Bas-de-casse vers petites capitales dans Latin lookup 0" uni0199.sc
Colour: ff00
EndChar

StartChar: uni019A
Encoding: 410 410 390
Width: 540
Flags: HMW
LayerCount: 4
Fore
SplineSet
465 720 m 1
 -60 720 l 1
 -60 766 -60 714 -60 760 c 5
 465 760 l 5
 465 720 l 1
489 56 m 1
 500 14 l 1
 475 -3 445 -10 417 -10 c 0
 267 -10 180 60 180 230 c 2
 180 440 l 1
 180 578 l 1
 180 1480 l 1
 225 1480 l 1
 225 578 l 1
 225 440 l 1
 225 230 l 2
 225 40 364 30 417 30 c 0
 431 30 458 36 489 56 c 1
EndSplineSet
Substitution2: "sous-table 'smcp' Bas-de-casse vers petites capitales dans Latin lookup 0" uni019A.sc
Colour: ff00
EndChar

StartChar: uni019B
Encoding: 411 411 391
Width: 1102
Flags: HMW
LayerCount: 4
Fore
SplineSet
397 1398 m 5
 478 1445 l 5
 458 1480 l 5
 376 1432 l 5
 136 1294 l 5
 156 1259 l 5
 397 1398 l 5
470 1040 m 1
 355 1352 l 1
 319 1449 247 1490 132 1490 c 0
 104 1490 74 1483 49 1466 c 1
 60 1424 l 1
 91 1444 118 1450 132 1450 c 0
 175 1450 273 1443 313 1336 c 1
 420 1040 l 1
 40 0 l 1
 88 0 l 1
 445 984 l 1
 756 128 l 1
 792 31 864 -10 979 -10 c 0
 1007 -10 1037 -3 1062 14 c 1
 1051 56 l 1
 1020 36 993 30 979 30 c 0
 936 30 838 37 798 144 c 1
 470 1040 l 1
EndSplineSet
Substitution2: "sous-table 'smcp' Bas-de-casse vers petites capitales dans Latin lookup 0" uni019B.sc
Colour: ff00
EndChar

StartChar: uni019C
Encoding: 412 412 392
Width: 1710
VWidth: 1000
Flags: HMW
LayerCount: 4
Fore
SplineSet
1518 208 m 1
 1518 110 1530 0 1530 0 c 1
 1484 0 l 1
 1484 0 1472 110 1472 220 c 1
 1435 113 1382 -10 1162 -10 c 0
 934 -10 826 148 826 468 c 1
 826 1480 l 1
 872 1480 l 1
 872 468 l 2
 872 249 922 32 1172 32 c 0
 1422 32 1472 249 1472 468 c 2
 1472 1480 l 1
 1518 1480 l 1
 1518 208 l 1
872 468 m 1
 872 148 744 -10 516 -10 c 0
 288 -10 180 148 180 468 c 1
 180 1480 l 1
 226 1480 l 1
 226 468 l 2
 226 249 276 32 526 32 c 0
 746 32 826 249 826 468 c 1
 872 468 l 1
EndSplineSet
Colour: ffff
EndChar

StartChar: uni019D
Encoding: 413 413 393
Width: 1440
Flags: HMW
LayerCount: 4
Fore
SplineSet
0 -269 m 5
 4 -270 8 -270 12 -270 c 4
 167 -270 276 -155 276 0 c 4
 322 0 l 4
 322 -178 190 -310 12 -310 c 4
 8 -310 4 -310 0 -309 c 5
 0 -269 l 5
322 1480 m 1
 1214 90 l 9
 1214 1480 l 1
 1260 1480 l 25
 1260 0 l 25
 1214 0 l 1
 322 1390 l 1
 322 0 l 5
 276 0 l 29
 276 1480 l 1
 322 1480 l 1
EndSplineSet
Colour: ffff
EndChar

StartChar: uni019E
Encoding: 414 414 394
Width: 1130
VWidth: 1000
Flags: HMW
LayerCount: 4
Fore
SplineSet
905 -440 m 5
 905 572 l 2
 905 791 835 1010 565 1010 c 0
 295 1010 225 791 225 572 c 2
 225 0 l 1
 180 0 l 1
 180 1040 l 1
 225 1040 l 1
 225 820 l 1
 262 927 345 1050 575 1050 c 0
 813 1050 950 892 950 572 c 1
 950 -440 l 5
 905 -440 l 5
EndSplineSet
Substitution2: "sous-table 'smcp' Bas-de-casse vers petites capitales dans Latin lookup 0" uni019E.sc
Colour: ff00
EndChar

StartChar: uni019F
Encoding: 415 415 395
Width: 1514
Flags: HMW
LayerCount: 4
Fore
SplineSet
1354 719 m 5
 164 719 l 1
 164 761 l 1
 1354 761 l 1
 1354 719 l 5
186 740 m 0
 186 265 497 32 757 32 c 0
 1017 32 1328 265 1328 740 c 0
 1328 1215 1017 1448 757 1448 c 0
 497 1448 186 1215 186 740 c 0
140 740 m 0
 140 1179 409 1490 757 1490 c 0
 1105 1490 1374 1179 1374 740 c 0
 1374 301 1105 -10 757 -10 c 0
 409 -10 140 301 140 740 c 0
EndSplineSet
Colour: ffff
EndChar

StartChar: uni031B
Encoding: 795 795 398
Width: 0
VWidth: 1000
Flags: HMW
AnchorPoint: "top_right" 0 1480 mark 0
LayerCount: 4
Fore
SplineSet
168 1366 m 1
 162 1363 157 1362 150 1362 c 0
 114 1362 86 1390 86 1426 c 0
 86 1462 114 1490 150 1490 c 0
 198 1490 214 1432 214 1396 c 0
 214 1266 151 1162 0 1125 c 5
 0 1165 l 5
 112 1197 168 1277 168 1366 c 1
EndSplineSet
Colour: ffff00
EndChar

StartChar: uni01A2
Encoding: 418 418 399
Width: 1702
Flags: HMW
LayerCount: 4
Fore
SplineSet
1209 1258 m 0
 1209 1216 l 0
 1352 1216 1448 1310 1501 1427 c 1
 1476 1470 l 1
 1434 1364 1323 1258 1209 1258 c 0
1476 -410 m 1
 1522 -410 l 25
 1522 1470 l 25
 1476 1470 l 1
 1476 -410 l 1
1190 253 m 5
 1236 253 l 1
 1236 1227 l 1
 1190 1227 l 5
 1190 253 l 5
1213 303 m 1
 1099 122 918 32 757 32 c 0
 497 32 186 265 186 740 c 0
 186 1215 497 1448 757 1448 c 0
 919 1448 1100 1358 1214 1176 c 1
 1236 1227 l 1
 1124 1392 953 1490 757 1490 c 0
 409 1490 140 1179 140 740 c 0
 140 301 409 -10 757 -10 c 0
 953 -10 1124 88 1236 253 c 1
 1213 303 l 1
EndSplineSet
Substitution2: "sous-table 'c2sc' Capitales vers petites capitales dans Latin lookup 0" uni01A3.sc
Colour: ffff
EndChar

StartChar: uni01A3
Encoding: 419 419 400
Width: 1427
Flags: HMW
LayerCount: 4
Fore
SplineSet
935 833 m 4
 935 791 l 4
 1078 791 1173 885 1226 1002 c 5
 1202 1045 l 5
 1160 939 1049 833 935 833 c 4
1202 -410 m 5
 1247 -410 l 29
 1247 1045 l 29
 1202 1045 l 5
 1202 -410 l 5
917 253 m 1
 962 254 l 1
 962 802 l 1
 917 802 l 1
 917 253 l 1
933 300 m 1
 862 116 704 30 578 30 c 0
 410 30 185 184 185 520 c 0
 185 856 410 1010 578 1010 c 0
 707 1010 869 919 938 726 c 1
 962 786 l 1
 888 949 746 1050 578 1050 c 0
 331 1050 140 832 140 520 c 0
 140 208 331 -10 578 -10 c 0
 746 -10 888 91 962 254 c 1
 933 300 l 1
EndSplineSet
Substitution2: "sous-table 'smcp' Bas-de-casse vers petites capitales dans Latin lookup 0" uni01A3.sc
Colour: ff00
EndChar

StartChar: uni01A4
Encoding: 420 420 401
Width: 1284
Flags: HMW
LayerCount: 4
Fore
SplineSet
46 1158 m 5
 1 1158 l 5
 0 1162 0 1166 0 1170 c 4
 0 1348 132 1480 310 1480 c 4
 314 1480 318 1480 322 1479 c 1
 322 1439 l 1
 318 1440 314 1440 310 1440 c 4
 155 1440 45 1325 45 1170 c 4
 45 1166 45 1162 46 1158 c 5
356 1438 m 25
 356 676 l 25
 725 676 l 17
 950 676 1098 857 1098 1057 c 0
 1098 1257 950 1438 725 1438 c 9
 356 1438 l 25
310 0 m 1
 310 1480 l 5
 725 1480 l 1
 949 1480 1144 1312 1144 1057 c 0
 1144 802 949 634 725 634 c 1
 356 634 l 1
 356 0 l 25
 310 0 l 1
EndSplineSet
Substitution2: "sous-table 'c2sc' Capitales vers petites capitales dans Latin lookup 0" uni01A5.sc
Colour: ffff
EndChar

StartChar: uni01A5
Encoding: 421 421 402
Width: 1152
VWidth: 1000
Flags: HMW
LayerCount: 4
Fore
SplineSet
217 520 m 5
 217 184 417 30 592 30 c 0
 767 30 967 184 967 520 c 0
 967 856 767 1010 592 1010 c 0
 417 1010 217 856 217 520 c 5
180 1180 m 1
 180 1358 312 1490 490 1490 c 1
 494 1490 498 1490 502 1489 c 1
 502 1449 l 1
 498 1450 494 1450 490 1450 c 1
 335 1450 225 1335 225 1180 c 1
 225 1180 225 800 225 780 c 1
 256 896 392 1050 592 1050 c 0
 839 1050 1012 832 1012 520 c 0
 1012 208 839 -10 592 -10 c 0
 392 -10 256 144 225 260 c 1
 225 -440 l 1
 180 -440 l 1
 180 520 l 1
 180 1180 l 1
EndSplineSet
Substitution2: "sous-table 'smcp' Bas-de-casse vers petites capitales dans Latin lookup 0" uni01A5.sc
Colour: ff00
EndChar

StartChar: uni01A6
Encoding: 422 422 403
Width: 1170
Flags: HMW
LayerCount: 4
Fore
SplineSet
545 475 m 1
 591 484 l 1
 1030 -168 l 1
 976 -168 l 1
 545 475 l 1
226 1270 m 25
 226 508 l 25
 595 508 l 17
 820 508 968 689 968 889 c 0
 968 1089 820 1270 595 1270 c 9
 226 1270 l 25
180 0 m 1
 180 1480 l 1
 226 1480 l 5
 226 1312 l 1
 595 1312 l 1
 819 1312 1014 1144 1014 889 c 0
 1014 634 819 466 595 466 c 1
 226 466 l 1
 226 0 l 25
 180 0 l 1
EndSplineSet
Colour: ffff
EndChar

StartChar: uni01A7
Encoding: 423 423 404
Width: 1175
VWidth: 1000
Flags: HMW
AnchorPoint: "top_center" 589 1380 basechar 0
AnchorPoint: "bottom_center" 589 0 basechar 0
LayerCount: 4
Fore
SplineSet
589 1448 m 4
 774 1448 952 1364 952 1124 c 4
 952 884 742 816 589 769 c 4
 321 688 140 616 140 356 c 4
 140 96 320 -10 589 -10 c 4
 850 -10 1030 143 1035 381 c 5
 989 394 l 4
 989 161 814 32 589 32 c 4
 395 32 186 106 186 356 c 4
 186 606 388 660 589 721 c 4
 857 803 998 894 998 1124 c 4
 998 1354 845 1490 589 1490 c 4
 328 1490 168 1347 163 1109 c 5
 209 1096 l 4
 209 1329 364 1448 589 1448 c 4
EndSplineSet
Substitution2: "sous-table 'c2sc' Capitales vers petites capitales dans Latin lookup 0" uni01A8.sc
Colour: ffff
EndChar

StartChar: uni01A8
Encoding: 424 424 405
Width: 1002
VWidth: 1000
Flags: HMW
AnchorPoint: "bottom_right" 389 0 basechar 0
AnchorPoint: "bottom_center" 497 0 basechar 0
AnchorPoint: "top_center" 497 1040 basechar 0
LayerCount: 4
Fore
SplineSet
497 1050 m 0
 304 1050 192 953 158 808 c 1
 196 786 l 1
 239 964 381 1010 497 1010 c 0
 613 1010 782 950 782 780 c 0
 782 600 625 580 497 546 c 0
 291 492 140 457 140 261 c 0
 140 85 295 -10 497 -10 c 0
 699 -10 828 108 862 253 c 1
 824 275 l 1
 784 105 629 30 497 30 c 0
 365 30 185 91 185 261 c 0
 185 441 369 466 497 500 c 0
 703 554 827 595 827 780 c 0
 827 935 690 1050 497 1050 c 0
EndSplineSet
Substitution2: "sous-table 'smcp' Bas-de-casse vers petites capitales dans Latin lookup 0" uni01A8.sc
Colour: ff00
EndChar

StartChar: uni01AA
Encoding: 426 426 407
Width: 1011
VWidth: 1000
Flags: HMW
LayerCount: 4
Fore
SplineSet
140 1264 m 0
 140 1387 234 1488 369 1488 c 0
 504 1488 598 1387 598 1264 c 0
 598 1141 504 1040 369 1040 c 0
 234 1040 140 1141 140 1264 c 0
185 1264 m 0
 185 1154 269 1080 369 1080 c 0
 469 1080 553 1154 553 1264 c 0
 553 1370 469 1448 369 1448 c 0
 269 1448 185 1370 185 1264 c 0
598 300 m 2
 598 60 706 30 796 30 c 0
 834 30 888 37 927 65 c 1
 941 22 l 1
 901 4 845 -10 796 -10 c 0
 620 -10 553 100 553 300 c 2
 553 1174 l 1
 598 1264 l 1
 598 300 l 2
EndSplineSet
Colour: ffff
EndChar

StartChar: uni01AB
Encoding: 427 427 408
Width: 772
VWidth: 1000
Flags: HMW
LayerCount: 4
Fore
SplineSet
580 0 m 4
 580 -178 447 -310 269 -310 c 4
 265 -310 261 -310 257 -309 c 5
 257 -269 l 5
 261 -270 265 -270 269 -270 c 4
 424 -270 534 -155 534 0 c 4
 580 0 l 4
148 1040 m 1
 298 1040 314 1056 314 1206 c 1
 314 1320 l 1
 359 1320 l 1
 359 1040 l 1
 665 1040 l 1
 665 1000 l 1
 359 1000 l 1
 359 300 l 2
 359 60 467 30 557 30 c 0
 595 30 649 37 688 65 c 1
 702 22 l 1
 662 4 606 -10 557 -10 c 0
 381 -10 314 100 314 300 c 2
 314 1000 l 1
 70 1000 l 1
 70 1040 l 1
 148 1040 l 1
EndSplineSet
Substitution2: "sous-table 'smcp' Bas-de-casse vers petites capitales dans Latin lookup 0" uni01AB.sc
Colour: ff00
EndChar

StartChar: uni01AC
Encoding: 428 428 409
Width: 1234
Flags: HMW
LayerCount: 4
Fore
SplineSet
46 1158 m 1
 1 1158 l 1
 0 1162 0 1166 0 1170 c 0
 0 1348 132 1480 310 1480 c 0
 310 1438 l 0
 155 1438 45 1325 45 1170 c 0
 45 1166 45 1162 46 1158 c 1
585 0 m 25
 539 0 l 25
 539 1438 l 25
 310 1438 l 25
 310 1480 l 25
 1054 1480 l 25
 1054 1438 l 25
 585 1438 l 25
 585 0 l 25
EndSplineSet
Substitution2: "sous-table 'c2sc' Capitales vers petites capitales dans Latin lookup 0" uni01AD.sc
Colour: ffff
EndChar

StartChar: uni01AE
Encoding: 430 430 410
Width: 1344
Flags: HMW
LayerCount: 4
Fore
SplineSet
971 -269 m 1
 967 -270 963 -270 959 -270 c 0
 804 -270 695 -155 695 0 c 0
 649 0 l 0
 649 -178 781 -310 959 -310 c 0
 963 -310 967 -310 971 -309 c 1
 971 -269 l 1
649 1438 m 29
 180 1438 l 25
 180 1480 l 25
 1164 1480 l 25
 1164 1438 l 25
 695 1438 l 25
 695 0 l 25
 649 0 l 25
 649 1438 l 29
EndSplineSet
Colour: ffff
EndChar

StartChar: uni01AD
Encoding: 429 429 411
Width: 772
Flags: HMW
LayerCount: 4
Fore
SplineSet
314 1348 m 5
 314 1526 446 1658 624 1658 c 1
 628 1658 632 1658 636 1657 c 1
 636 1617 l 1
 632 1618 628 1618 624 1618 c 1
 469 1618 359 1503 359 1348 c 1
 359 1040 l 1
 665 1040 l 1
 665 1000 l 1
 359 1000 l 1
 359 300 l 2
 359 60 467 30 557 30 c 0
 595 30 649 37 688 65 c 1
 702 22 l 1
 662 4 606 -10 557 -10 c 0
 381 -10 314 100 314 300 c 2
 314 1000 l 1
 70 1000 l 1
 70 1040 l 1
 148 1040 l 1
 298 1040 314 1056 314 1206 c 1
 314 1348 l 5
EndSplineSet
Substitution2: "sous-table 'smcp' Bas-de-casse vers petites capitales dans Latin lookup 0" uni01AD.sc
Colour: ff00
EndChar

StartChar: uni01B1
Encoding: 433 433 414
Width: 1514
Flags: HMW
LayerCount: 4
Fore
SplineSet
1374 1480 m 5
 1374 1438 l 5
 852 1438 l 5
 852 1480 l 5
 1374 1480 l 5
140 1480 m 5
 662 1480 l 5
 662 1438 l 5
 140 1438 l 5
 140 1480 l 5
1374 740 m 4
 1374 301 1105 -10 757 -10 c 4
 757 32 l 4
 1017 32 1328 265 1328 740 c 4
 1328 1158 1087 1389 852 1438 c 5
 993 1438 l 5
 1219 1332 1374 1073 1374 740 c 4
140 740 m 4
 140 1073 295 1332 521 1438 c 5
 662 1438 l 5
 427 1389 186 1158 186 740 c 4
 186 265 497 32 757 32 c 4
 757 -10 l 4
 409 -10 140 301 140 740 c 4
EndSplineSet
Colour: ffff
EndChar

StartChar: uni01B2
Encoding: 434 434 415
Width: 1344
Flags: HMW
LayerCount: 4
Fore
SplineSet
1118 1180 m 13
 1118 528 l 1
 1118 178 912 32 672 32 c 0
 432 32 226 178 226 528 c 9
 226 1480 l 25
 180 1480 l 25
 180 528 l 17
 180 168 375 -10 672 -10 c 0
 969 -10 1164 168 1164 528 c 1
 1164 1180 l 21
 1164 1358 1031 1490 853 1490 c 4
 849 1490 845 1490 841 1489 c 5
 841 1449 l 5
 845 1450 849 1450 853 1450 c 4
 1008 1450 1118 1335 1118 1180 c 13
EndSplineSet
Colour: ffff
EndChar

StartChar: uni01B3
Encoding: 435 435 416
Width: 1495
VWidth: 1000
Flags: HMW
LayerCount: 4
Fore
SplineSet
1475 1402 m 5
 1472 1405 1469 1407 1466 1409 c 4
 1421 1435 1375 1447 1330 1447 c 4
 1239 1447 1158 1397 1101 1308 c 4
 1062 1330 l 4
 1131 1432 1221 1488 1326 1488 c 4
 1379 1488 1434 1474 1486 1444 c 4
 1489 1442 1492 1440 1495 1437 c 5
 1475 1402 l 5
648 0 m 1
 648 740 l 1
 694 740 l 1
 694 0 l 1
 648 0 l 1
685 719 m 1
 659 716 l 1
 120 1480 l 1
 174 1480 l 1
 671 778 l 1
 1062 1330 l 5
 1101 1308 l 5
 685 719 l 1
EndSplineSet
Substitution2: "sous-table 'c2sc' Capitales vers petites capitales dans Latin lookup 0" uni01B4.sc
Colour: ffff
EndChar

StartChar: uni01B4
Encoding: 436 436 417
Width: 1241
VWidth: 1000
Flags: HMW
LayerCount: 4
Fore
SplineSet
1231 996 m 5
 1227 998 1224 1000 1220 1001 c 5
 1195 1008 1169 1011 1145 1011 c 4
 1026 1011 937 933 894 808 c 5
 850 820 l 5
 898 962 1006 1051 1143 1051 c 4
 1171 1051 1200 1047 1230 1039 c 5
 1234 1038 1237 1037 1241 1035 c 5
 1231 996 l 5
483 -312 m 1
 450 -401 381 -450 265 -450 c 0
 216 -450 160 -436 120 -418 c 1
 134 -375 l 1
 173 -403 227 -410 265 -410 c 0
 330 -410 405 -395 441 -296 c 1
 548 0 l 1
 168 1040 l 1
 216 1040 l 1
 573 56 l 1
 850 820 l 5
 894 808 l 5
 598 0 l 1
 483 -312 l 1
EndSplineSet
Substitution2: "sous-table 'smcp' Bas-de-casse vers petites capitales dans Latin lookup 0" uni01B4.sc
Colour: ff00
EndChar

StartChar: uni01B5
Encoding: 437 437 418
Width: 1258
VWidth: 1000
Flags: HMW
LayerCount: 4
Fore
SplineSet
955 719 m 13
 315 719 l 5
 315 729 315 751 315 761 c 13
 955 761 l 5
 955 719 l 13
210 0 m 1
 180 38 l 1
 1030 1480 l 1
 1060 1442 l 1
 210 0 l 1
204 42 m 1
 1078 42 l 1
 1078 0 l 1
 752 0 506 0 180 0 c 1
 180 38 l 1
 204 42 l 1
1035 1438 m 1
 198 1438 l 1
 198 1480 l 1
 524 1480 734 1480 1060 1480 c 1
 1060 1442 l 1
 1035 1438 l 1
EndSplineSet
Substitution2: "sous-table 'c2sc' Capitales vers petites capitales dans Latin lookup 0" uni01B6.sc
Colour: ffff
EndChar

StartChar: uni01B6
Encoding: 438 438 419
Width: 1012
Flags: HMW
LayerCount: 4
Fore
SplineSet
180 1040 m 1
 180 1000 l 1
 803 1000 l 1
 832 1008 l 1
 832 1040 l 1
 180 1040 l 1
832 40 m 1
 209 40 l 1
 180 32 l 1
 180 0 l 1
 832 0 l 1
 832 40 l 1
232 40 m 1
 832 1008 l 1
 780 1000 l 1
 180 32 l 1
 232 40 l 1
186 500 m 1
 826 500 l 17
 826 540 l 1
 186 540 l 17
 186 530 186 510 186 500 c 1
EndSplineSet
Substitution2: "sous-table 'smcp' Bas-de-casse vers petites capitales dans Latin lookup 0" uni01B6.sc
Colour: ff00
EndChar

StartChar: uni01B7
Encoding: 439 439 420
Width: 1176
VWidth: 1000
Flags: HMW
LayerCount: 4
Fore
SplineSet
531 758 m 1
 501 796 l 1
 970 1480 l 1
 1000 1442 l 1
 531 758 l 1
1036 390 m 0
 1036 147 849 -10 585 -10 c 0
 324 -10 145 143 140 381 c 1
 186 394 l 0
 186 161 360 32 585 32 c 0
 810 32 990 157 990 390 c 0
 990 623 771 756 585 756 c 1
 535 756 501 756 501 756 c 25
 501 796 l 1
 501 796 535 802 585 802 c 1
 801 802 1036 633 1036 390 c 0
176 1480 m 5
 1000 1480 l 1
 1000 1442 l 1
 975 1438 l 1
 176 1438 l 5
 176 1480 l 5
EndSplineSet
Colour: ffff
EndChar

StartChar: uni01B8
Encoding: 440 440 421
Width: 1176
VWidth: 1000
Flags: HMW
LayerCount: 4
Fore
SplineSet
645 758 m 1
 675 796 l 1
 206 1480 l 1
 176 1442 l 1
 645 758 l 1
140 390 m 0
 140 147 327 -10 591 -10 c 0
 852 -10 1031 143 1036 381 c 1
 990 394 l 0
 990 161 816 32 591 32 c 0
 366 32 186 157 186 390 c 0
 186 623 405 756 591 756 c 1
 641 756 675 756 675 756 c 25
 675 796 l 1
 675 796 641 802 591 802 c 1
 375 802 140 633 140 390 c 0
1000 1480 m 5
 176 1480 l 1
 176 1442 l 1
 201 1438 l 1
 1000 1438 l 5
 1000 1480 l 5
EndSplineSet
Colour: ffff
EndChar

StartChar: uni01B9
Encoding: 441 441 422
Width: 1176
VWidth: 1000
Flags: HMW
LayerCount: 4
Fore
SplineSet
645 318 m 5
 675 356 l 5
 206 1040 l 5
 176 1002 l 5
 645 318 l 5
140 -50 m 4
 140 -293 327 -450 591 -450 c 4
 852 -450 1031 -297 1036 -59 c 5
 990 -46 l 4
 990 -279 816 -408 591 -408 c 4
 366 -408 186 -283 186 -50 c 4
 186 183 405 316 591 316 c 5
 641 316 675 316 675 316 c 29
 675 356 l 5
 675 356 641 362 591 362 c 5
 375 362 140 193 140 -50 c 4
1000 1040 m 5
 176 1040 l 5
 176 1002 l 5
 201 998 l 5
 1000 998 l 5
 1000 1040 l 5
EndSplineSet
Substitution2: "sous-table 'smcp' Bas-de-casse vers petites capitales dans Latin lookup 0" uni01B9.sc
Colour: ffff
EndChar

StartChar: uni01BA
Encoding: 442 442 423
Width: 1182
VWidth: 1000
Flags: HMW
LayerCount: 4
Fore
SplineSet
591 -76 m 0
 272 -76 185 -174 185 -254 c 0
 185 -334 294 -430 591 -430 c 0
 740 -430 929 -384 986 -347 c 1
 1000 -388 l 1
 944 -425 767 -470 591 -470 c 0
 241 -470 140 -354 140 -254 c 0
 140 -154 241 -36 591 -36 c 0
 888 -36 997 60 997 140 c 0
 997 220 910 316 591 316 c 0
 507 316 l 1
 507 356 l 1
 591 362 l 1
 941 362 1042 240 1042 140 c 0
 1042 40 941 -76 591 -76 c 0
537 318 m 1
 507 356 l 1
 948 1000 l 5
 1006 1004 l 1
 537 318 l 1
182 1040 m 1
 1006 1040 l 1
 1006 1004 l 1
 981 1000 l 1
 182 1000 l 1
 182 1040 l 1
EndSplineSet
Colour: ff00
EndChar

StartChar: uni01BB
Encoding: 443 443 424
Width: 1198
VWidth: 1000
Flags: HMW
LayerCount: 4
Fore
SplineSet
1035 505 m 9
 167 505 l 1
 167 547 l 9
 1035 547 l 1
 1035 505 l 9
217 987 m 1
 170 1000 l 0
 170 1300 353 1490 599 1490 c 0
 845 1490 1028 1320 1028 1040 c 0
 982 1040 l 0
 982 1280 829 1448 599 1448 c 0
 365 1448 216 1258 216 1000 c 0
 216 996 216 993 217 987 c 1
163 0 m 1
 163 116 166 303 599 553 c 0
 876 713 982 824 982 1040 c 1
 1028 1040 l 1
 1028 760 820 627 599 500 c 0
 379 373 209 230 209 0 c 1
 160 0 212 0 163 0 c 1
183 42 m 1
 1035 42 l 1
 1035 0 l 1
 209 0 l 1
 183 42 l 1
EndSplineSet
Colour: ffff
EndChar

StartChar: uni01BC
Encoding: 444 444 425
Width: 1198
VWidth: 1000
Flags: HMW
LayerCount: 4
Fore
SplineSet
224 706 m 1
 186 718 l 1
 258 877 373 976 598 976 c 0
 845 976 1050 774 1050 483 c 0
 1050 192 859 -10 598 -10 c 0
 337 -10 157 143 152 381 c 1
 198 394 l 0
 198 161 373 32 598 32 c 0
 855 32 1002 251 1002 483 c 0
 1002 715 845 934 598 934 c 0
 351 934 278 797 224 706 c 1
285 1459 m 1
 330 1459 l 1
 228 751 l 1
 186 718 l 1
 180 720 l 1
 285 1459 l 1
0 1438 m 1
 0 1480 l 1
 990 1480 l 1
 990 1438 l 1
 0 1438 l 1
EndSplineSet
Substitution2: "sous-table 'c2sc' Capitales vers petites capitales dans Latin lookup 0" uni01BD.sc
Colour: ffff
EndChar

StartChar: uni01BD
Encoding: 445 445 426
Width: 1060
Flags: HMW
LayerCount: 4
Fore
SplineSet
563 30 m 4
 733 30 875 177 875 347 c 0
 875 517 733 664 563 664 c 0
 401 664 331 571 276 477 c 1
 255 482 l 1
 288 589 378 704 563 704 c 0
 748 704 920 556 920 347 c 0
 920 138 748 -10 563 -10 c 4
 378 -10 229 118 206 295 c 5
 251 308 l 4
 267 154 393 30 563 30 c 4
313 1012 m 1
 355 1012 l 1
 284 515 l 1
 255 482 l 1
 238 486 l 1
 313 1012 l 1
140 1000 m 1
 140 1040 l 1
 867 1040 l 1
 867 1000 l 1
 140 1000 l 1
EndSplineSet
Substitution2: "sous-table 'smcp' Bas-de-casse vers petites capitales dans Latin lookup 0" uni01BD.sc
Colour: ff00
EndChar

StartChar: uni01BE
Encoding: 446 446 427
Width: 1141
VWidth: 1000
Flags: HMW
LayerCount: 4
Fore
SplineSet
359 1000 m 5
 359 780 l 17
 359 600 516 580 644 546 c 0
 850 492 1001 457 1001 261 c 0
 1001 85 846 -10 644 -10 c 0
 442 -10 313 108 279 253 c 1
 317 275 l 1
 357 105 512 30 644 30 c 0
 776 30 956 91 956 261 c 0
 956 441 772 466 644 500 c 0
 438 554 314 595 314 780 c 9
 314 1000 l 1
 70 1000 l 1
 70 1040 l 1
 148 1040 l 1
 298 1040 314 1056 314 1206 c 1
 314 1320 l 1
 359 1320 l 1
 359 1040 l 1
 665 1040 l 1
 665 1000 l 1
 359 1000 l 5
EndSplineSet
Colour: ff00
EndChar

StartChar: uni01BF
Encoding: 447 447 428
Width: 1090
VWidth: 1000
Flags: HMW
LayerCount: 4
Fore
SplineSet
905 572 m 4
 905 791 835 1010 565 1010 c 0
 295 1010 225 791 225 572 c 2
 225 -440 l 1
 180 -440 l 1
 180 1040 l 1
 225 1040 l 1
 225 820 l 1
 262 927 345 1050 575 1050 c 0
 813 1050 950 892 950 572 c 1
 950 182 565 -40 195 -40 c 1
 195 0 l 1
 557 0 905 213 905 572 c 4
EndSplineSet
Substitution2: "sous-table 'smcp' Bas-de-casse vers petites capitales dans Latin lookup 0" uni01BF.sc
Colour: ff00
EndChar

StartChar: uni01C0
Encoding: 448 448 429
Width: 364
Flags: HMW
LayerCount: 4
Fore
SplineSet
224 1480 m 25
 224 0 l 25
 180 0 l 5
 180 1480 l 1
 224 1480 l 25
EndSplineSet
Colour: ff00
EndChar

StartChar: uni01C1
Encoding: 449 449 430
Width: 630
Flags: HMW
LayerCount: 4
Fore
SplineSet
450 1480 m 29
 450 0 l 29
 405 0 l 1
 405 1480 l 1
 450 1480 l 29
225 1480 m 25
 225 0 l 25
 180 0 l 1
 180 1480 l 1
 225 1480 l 25
EndSplineSet
Colour: ff00
EndChar

StartChar: uni01C2
Encoding: 450 450 431
Width: 1176
Flags: HMW
LayerCount: 4
Fore
SplineSet
180 910 m 1
 180 955 l 1
 996 955 l 17
 996 910 l 1
 180 910 l 1
180 525 m 5
 180 570 l 5
 996 570 l 21
 996 525 l 5
 180 525 l 5
610 1480 m 25
 610 0 l 25
 566 0 l 1
 566 1480 l 1
 610 1480 l 25
EndSplineSet
Colour: ff00
EndChar

StartChar: uni01C3
Encoding: 451 451 432
Width: 488
VWidth: 1000
Flags: HMW
LayerCount: 4
Fore
SplineSet
180 54 m 4
 180 90 208 118 244 118 c 0
 280 118 308 90 308 54 c 0
 308 18 280 -10 244 -10 c 0
 208 -10 180 18 180 54 c 4
217 1480 m 1
 271 1480 l 1
 267 452 l 1
 221 452 l 1
 217 1480 l 1
EndSplineSet
Colour: ff00
EndChar

StartChar: uni01DD
Encoding: 477 477 450
Width: 1156
VWidth: 1000
Flags: HMW
LayerCount: 4
Fore
SplineSet
991 500 m 1
 157 500 l 1
 185 540 l 1
 991 540 l 1
 991 500 l 1
204 766 m 1
 165 788 l 1
 239 950 381 1050 578 1050 c 0
 825 1050 1016 832 1016 520 c 0
 1016 208 825 -10 578 -10 c 0
 331 -10 140 208 140 520 c 0
 140 527 140 533 140 540 c 1
 185 540 l 1
 185 533 185 527 185 520 c 0
 185 184 410 30 578 30 c 0
 746 30 971 184 971 520 c 0
 971 856 746 1010 578 1010 c 0
 432 1010 280 932 204 766 c 1
EndSplineSet
Substitution2: "sous-table 'smcp' Bas-de-casse vers petites capitales dans Latin lookup 0" uni01DD.sc
Colour: ff00
EndChar

StartChar: uni01E4
Encoding: 484 484 456
Width: 1512
Flags: HMW
LayerCount: 4
Fore
SplineSet
1512 299 m 5
 977 299 l 5
 977 311 977 329 977 341 c 5
 1512 341 l 5
 1512 299 l 5
1256 1097 m 1
 1149 1332 940 1448 757 1448 c 0
 497 1448 186 1215 186 740 c 0
 186 265 497 32 757 32 c 0
 940 32 1149 148 1256 383 c 1
 1296 360 l 1
 1192 132 992 -10 757 -10 c 0
 409 -10 140 301 140 740 c 0
 140 1179 409 1490 757 1490 c 0
 992 1490 1192 1348 1296 1120 c 1
 1256 1097 l 1
681 740 m 25
 1302 740 l 25
 1302 0 l 25
 1256 0 l 17
 1256 327 l 1
 1256 353 l 1
 1256 698 l 9
 681 698 l 25
 681 740 l 25
EndSplineSet
Substitution2: "'ss03' Simplified G and I lookups0-1" uni01E4.ss03
Substitution2: "sous-table 'c2sc' Capitales vers petites capitales dans Latin lookup 0" uni01E5.sc
Colour: ffff
EndChar

StartChar: uni01E5
Encoding: 485 485 457
Width: 1147
VWidth: 997
Flags: HMW
LayerCount: 4
Fore
SplineSet
606 1007 m 1
 656 1033 720 1050 805 1050 c 0
 849 1050 900 1035 937 1014 c 1
 916 972 l 1
 881 994 841 1010 795 1010 c 0
 737 1010 689 1000 648 982 c 1
 606 1007 l 1
484 340 m 0
 484 310 l 0
 345 310 174 290 174 175 c 0
 174 60 289 40 484 40 c 0
 484 0 l 0
 253 0 134 45 134 175 c 0
 134 305 273 340 484 340 c 0
937 -166 m 0
 937 -346 802 -450 484 -450 c 0
 166 -450 70 -345 70 -204 c 0
 70 -33 215 40 484 40 c 0
 484 14 l 0
 266 14 115 -49 115 -204 c 0
 115 -359 266 -410 484 -410 c 0
 830 -410 892 -270 892 -170 c 0
 892 -90 838 0 484 0 c 0
 484 40 l 0
 766 40 937 -6 937 -166 c 0
179 680 m 0
 179 460 344 350 484 350 c 0
 624 350 789 460 789 680 c 0
 789 900 624 1010 484 1010 c 0
 344 1010 179 900 179 680 c 0
134 680 m 0
 134 899 291 1050 484 1050 c 0
 677 1050 834 899 834 680 c 0
 834 461 677 310 484 310 c 0
 291 310 134 461 134 680 c 0
1147 -167 m 5
 622 -167 l 1
 622 -155 622 -139 622 -127 c 1
 1147 -127 l 5
 1147 -167 l 5
EndSplineSet
Substitution2: "sous-table 'smcp' Bas-de-casse vers petites capitales dans Latin lookup 0" uni01E5.sc
Substitution2: "'ss04' Simplified a and g lookups0-1" uni01E5.ss04
Colour: ff00
EndChar

StartChar: uni0292
Encoding: 658 658 471
Width: 1176
VWidth: 1000
Flags: HMW
LayerCount: 4
Fore
SplineSet
531 318 m 5
 501 356 l 5
 970 1040 l 5
 1000 1002 l 5
 531 318 l 5
1036 -50 m 4
 1036 -293 849 -450 585 -450 c 4
 324 -450 145 -297 140 -59 c 5
 186 -46 l 4
 186 -279 360 -408 585 -408 c 4
 810 -408 990 -283 990 -50 c 4
 990 183 771 316 585 316 c 5
 535 316 501 316 501 316 c 29
 501 356 l 5
 501 356 535 362 585 362 c 5
 801 362 1036 193 1036 -50 c 4
176 1040 m 5
 1000 1040 l 5
 1000 1002 l 5
 975 998 l 5
 176 998 l 5
 176 1040 l 5
EndSplineSet
Substitution2: "sous-table 'smcp' Bas-de-casse vers petites capitales dans Latin lookup 0" uni0292.sc
Colour: ffff
EndChar

StartChar: uni01F7
Encoding: 503 503 496
Width: 1298
VWidth: 1000
Flags: HMW
LayerCount: 4
Fore
SplineSet
1112 880 m 4
 1112 1110 1009 1448 669 1448 c 0
 329 1448 226 1110 226 880 c 2
 226 -440 l 1
 180 -440 l 1
 180 1480 l 1
 226 1480 l 1
 226 1150 l 1
 305 1414 477 1490 677 1490 c 0
 967 1490 1158 1260 1158 880 c 0
 1158 500 895 0 205 0 c 9
 205 42 l 1
 945 42 1112 620 1112 880 c 4
EndSplineSet
Substitution2: "sous-table 'c2sc' Capitales vers petites capitales dans Latin lookup 0" uni01BF.sc
Colour: ffff
EndChar

StartChar: uni01F6
Encoding: 502 502 497
Width: 2070
Flags: HMW
LayerCount: 4
Fore
SplineSet
1890 1040 m 1
 1890 468 l 5
 1890 148 1752 -10 1504 -10 c 0
 1256 -10 1118 148 1118 468 c 1
 1118 650 l 1
 1164 650 l 1
 1164 468 l 2
 1164 249 1234 32 1504 32 c 0
 1774 32 1844 249 1844 468 c 2
 1844 1040 l 1
 1890 1040 l 1
180 1480 m 25
 226 1480 l 25
 226 761 l 25
 1118 761 l 25
 1118 1480 l 25
 1164 1480 l 25
 1164 650 l 25
 1118 650 l 25
 1118 719 l 25
 226 719 l 25
 226 0 l 25
 180 0 l 25
 180 1480 l 25
EndSplineSet
Substitution2: "sous-table 'c2sc' Capitales vers petites capitales dans Latin lookup 0" uni0195.sc
Colour: ffff
EndChar

StartChar: uni030F
Encoding: 783 783 498
Width: 0
VWidth: 1000
Flags: HMW
AnchorPoint: "top_center" 642 1040 mark 0
LayerCount: 4
Fore
SplineSet
526 1224 m 5
 570 1224 l 5
 384 1480 l 5
 328 1480 l 5
 526 1224 l 5
768 1224 m 5
 812 1224 l 5
 626 1480 l 5
 570 1480 l 5
 768 1224 l 5
EndSplineSet
Colour: ffff00
EndChar

StartChar: uni0311
Encoding: 785 785 511
Width: 0
VWidth: 1000
Flags: HMW
AnchorPoint: "top_center" 642 1040 mark 0
LayerCount: 4
Fore
SplineSet
642 1490 m 4
 510 1490 396 1374 396 1234 c 5
 441 1234 l 5
 441 1360 532 1450 642 1450 c 4
 752 1450 843 1360 843 1234 c 5
 888 1234 l 5
 888 1374 774 1490 642 1490 c 4
EndSplineSet
Colour: ffff00
EndChar

StartChar: uni0326
Encoding: 806 806 528
Width: 0
VWidth: 1000
Flags: HMW
AnchorPoint: "bottom_center" 642 0 mark 0
LayerCount: 4
Fore
SplineSet
578 -196 m 0
 578 -160 606 -132 642 -132 c 0
 678 -132 706 -160 706 -196 c 4
 706 -232 678 -260 642 -260 c 0
 606 -260 578 -232 578 -196 c 0
578 -454 m 1
 628 -441 695 -380 695 -290 c 0
 695 -210 642 -177 642 -177 c 1
 642 -132 l 1
 704 -132 741 -210 741 -290 c 0
 741 -400 658 -476 590 -496 c 1
 578 -454 l 1
EndSplineSet
Colour: ffbf00
EndChar

StartChar: uni021C
Encoding: 540 540 529
Width: 1170
VWidth: 1000
Flags: HMW
LayerCount: 4
Fore
SplineSet
815 589 m 5
 901 517 984 403 984 265 c 0
 984 -15 770 -398 260 -398 c 0
 260 -440 l 0
 800 -440 1030 -45 1030 265 c 0
 1030 423 939 547 844 623 c 1
 815 589 l 5
569 1449 m 0
 799 1449 952 1281 952 1041 c 0
 952 761 770 378 260 378 c 0
 260 336 l 0
 800 336 998 731 998 1041 c 0
 998 1321 815 1491 569 1491 c 0
 323 1491 140 1301 140 1001 c 0
 187 988 l 1
 186 994 186 997 186 1001 c 0
 186 1259 335 1449 569 1449 c 0
EndSplineSet
Substitution2: "sous-table 'c2sc' Capitales vers petites capitales dans Latin lookup 0" uni021D.sc
Colour: ffff
EndChar

StartChar: uni021D
Encoding: 541 541 530
Width: 980
Flags: HMW
LayerCount: 4
Fore
SplineSet
667 369 m 1
 735 312 798 227 798 133 c 4
 798 -78 576 -400 218 -400 c 0
 218 -440 l 0
 572 -440 840 -144 840 135 c 4
 840 248 769 342 693 402 c 1
 667 369 l 1
478 1010 m 0
 655 1010 774 871 774 708 c 0
 774 497 576 175 218 175 c 0
 218 135 l 0
 572 135 816 431 816 710 c 0
 816 909 668 1050 478 1050 c 0
 288 1050 140 901 140 699 c 0
 187 686 l 1
 186 688 185 693 185 699 c 0
 185 862 301 1010 478 1010 c 0
EndSplineSet
Substitution2: "sous-table 'smcp' Bas-de-casse vers petites capitales dans Latin lookup 0" uni021D.sc
Colour: ff00
EndChar

StartChar: uni0220
Encoding: 544 544 531
Width: 1338
VWidth: 1000
Flags: HMW
LayerCount: 4
Fore
SplineSet
1158 880 m 0
 1158 1260 967 1490 677 1490 c 0
 477 1490 305 1414 226 1150 c 1
 226 1480 l 1
 180 1480 l 1
 180 0 l 1
 226 0 l 1
 226 880 l 2
 226 1110 329 1448 669 1448 c 0
 1009 1448 1112 1110 1112 880 c 0
 1112 -440 l 25
 1158 -440 l 25
 1158 880 l 0
EndSplineSet
Substitution2: "sous-table 'c2sc' Capitales vers petites capitales dans Latin lookup 0" uni019E.sc
Colour: ffff
EndChar

StartChar: uni0221
Encoding: 545 545 532
Width: 1349
VWidth: 1000
Flags: HMW
LayerCount: 4
Fore
SplineSet
935 520 m 1
 935 856 735 1010 560 1010 c 0
 385 1010 185 856 185 520 c 0
 185 184 385 30 560 30 c 0
 735 30 935 184 935 520 c 1
927 260 m 5
 896 144 770 -10 560 -10 c 0
 313 -10 140 208 140 520 c 0
 140 832 313 1050 560 1050 c 0
 760 1050 896 896 927 780 c 1
 927 1480 l 1
 972 1480 l 1
 972 201 l 1
 972 101 1038 30 1138 30 c 0
 1238 30 1304 101 1304 201 c 0
 1304 301 1238 372 1138 372 c 0
 832 372 714 -178 714 -178 c 1
 674 -155 l 1
 674 -155 789 412 1139 412 c 0
 1259 412 1349 321 1349 201 c 0
 1349 81 1258 -10 1138 -10 c 0
 1018 -10 927 81 927 201 c 1
 927 260 l 5
EndSplineSet
Substitution2: "sous-table 'smcp' Bas-de-casse vers petites capitales dans Latin lookup 0" uni0221.sc
Colour: ff00
EndChar

StartChar: uni0223
Encoding: 547 547 533
Width: 1181
VWidth: 1000
Flags: HMW
LayerCount: 4
Fore
SplineSet
694 1448 m 1
 706 1490 l 1
 884 1452 1001 1311 1001 1126 c 0
 1001 903 837 790 728 776 c 1
 842 752 1041 633 1041 390 c 0
 1041 147 854 -10 590 -10 c 0
 327 -10 140 147 140 390 c 0
 140 633 339 752 453 776 c 1
 344 790 180 903 180 1126 c 0
 180 1311 297 1452 475 1490 c 1
 487 1448 l 1
 337 1412 226 1294 226 1122 c 0
 226 927 391 796 590 796 c 0
 790 796 955 927 955 1122 c 0
 955 1294 844 1412 694 1448 c 1
590 756 m 0
 405 756 186 627 186 394 c 0
 186 161 366 32 590 32 c 0
 815 32 995 161 995 394 c 0
 995 627 776 756 590 756 c 0
EndSplineSet
Substitution2: "sous-table 'smcp' Bas-de-casse vers petites capitales dans Latin lookup 0" uni0223.sc
Colour: ffff
EndChar

StartChar: uni0222
Encoding: 546 546 534
Width: 1258
VWidth: 1000
Flags: HMW
LayerCount: 4
Fore
SplineSet
178 1054 m 0
 178 884 364 794 449 781 c 1
 331 752 140 612 140 390 c 0
 140 177 311 -10 628 -10 c 0
 945 -10 1118 177 1118 390 c 0
 1118 612 926 752 807 781 c 1
 902 804 1079 907 1079 1126 c 0
 1079 1366 843 1491 668 1491 c 0
 668 1449 l 0
 863 1449 1034 1302 1034 1122 c 0
 1034 955 903 796 628 796 c 0
 353 796 224 939 224 1054 c 0
 224 1179 331 1302 589 1302 c 0
 589 1344 l 0
 326 1344 178 1214 178 1054 c 0
628 756 m 0
 913 756 1072 584 1072 394 c 0
 1072 204 913 32 628 32 c 0
 343 32 186 204 186 394 c 0
 186 584 343 756 628 756 c 0
EndSplineSet
Substitution2: "sous-table 'c2sc' Capitales vers petites capitales dans Latin lookup 0" uni0223.sc
Colour: ffff
EndChar

StartChar: uni0224
Encoding: 548 548 535
Width: 1178
VWidth: 1000
Flags: HMW
LayerCount: 4
Fore
SplineSet
716 -269 m 1
 720 -270 724 -270 728 -270 c 0
 883 -270 993 -155 993 0 c 0
 1038 0 l 0
 1038 -178 906 -310 728 -310 c 0
 724 -310 720 -310 716 -309 c 1
 716 -269 l 1
170 0 m 1
 140 38 l 1
 990 1480 l 1
 1020 1442 l 1
 170 0 l 1
164 42 m 1
 1038 42 l 1
 1038 0 l 1
 712 0 466 0 140 0 c 1
 140 38 l 1
 164 42 l 1
995 1438 m 5
 158 1438 l 1
 158 1480 l 1
 484 1480 694 1480 1020 1480 c 1
 1020 1442 l 1
 995 1438 l 5
EndSplineSet
Substitution2: "sous-table 'c2sc' Capitales vers petites capitales dans Latin lookup 0" uni0225.sc
Colour: ffff
EndChar

StartChar: uni0225
Encoding: 549 549 536
Width: 1012
Flags: HMW
LayerCount: 4
Fore
SplineSet
510 -269 m 5
 514 -270 518 -270 522 -270 c 0
 677 -270 787 -155 787 0 c 0
 832 0 l 0
 832 -178 700 -310 522 -310 c 0
 518 -310 514 -310 510 -309 c 1
 510 -269 l 5
180 1040 m 1
 180 1000 l 1
 803 1000 l 1
 832 1008 l 1
 832 1040 l 1
 180 1040 l 1
832 40 m 1
 209 40 l 1
 180 32 l 1
 180 0 l 1
 832 0 l 1
 832 40 l 1
232 40 m 1
 832 1008 l 1
 780 1000 l 1
 180 32 l 1
 232 40 l 1
EndSplineSet
Substitution2: "sous-table 'smcp' Bas-de-casse vers petites capitales dans Latin lookup 0" uni0225.sc
Colour: ff00
EndChar

StartChar: uni0234
Encoding: 564 564 537
Width: 675
Flags: HMW
LayerCount: 4
Fore
SplineSet
298 201 m 5
 298 101 364 30 464 30 c 4
 564 30 630 101 630 201 c 4
 630 301 564 372 464 372 c 4
 158 372 40 -178 40 -178 c 5
 0 -155 l 5
 0 -155 115 412 465 412 c 4
 585 412 675 321 675 201 c 4
 675 81 584 -10 464 -10 c 4
 344 -10 253 81 253 201 c 5
 253 298 l 1
 253 1480 l 1
 298 1480 l 1
 298 578 l 1
 298 201 l 5
EndSplineSet
Substitution2: "sous-table 'smcp' Bas-de-casse vers petites capitales dans Latin lookup 0" uni0234.sc
Colour: ff00
EndChar

StartChar: uni0235
Encoding: 565 565 538
Width: 1327
VWidth: 1000
Flags: HMW
LayerCount: 4
Fore
SplineSet
950 201 m 1
 950 101 1016 30 1116 30 c 0
 1216 30 1282 101 1282 201 c 0
 1282 301 1216 372 1116 372 c 0
 810 372 692 -178 692 -178 c 1
 652 -155 l 1
 652 -155 767 412 1117 412 c 0
 1237 412 1327 321 1327 201 c 0
 1327 81 1236 -10 1116 -10 c 0
 996 -10 905 81 905 201 c 1
 905 297 l 5
 905 572 l 2
 905 791 835 1010 565 1010 c 0
 295 1010 225 791 225 572 c 2
 225 0 l 1
 180 0 l 1
 180 1040 l 1
 225 1040 l 1
 225 820 l 1
 262 927 345 1050 575 1050 c 0
 813 1050 950 892 950 572 c 1
 950 201 l 1
EndSplineSet
Substitution2: "sous-table 'smcp' Bas-de-casse vers petites capitales dans Latin lookup 0" uni0235.sc
Colour: ff00
EndChar

StartChar: uni0236
Encoding: 566 566 539
Width: 772
Flags: HMW
LayerCount: 4
Fore
SplineSet
368 434 m 1
 368 201 l 5
 368 101 434 30 534 30 c 4
 634 30 700 101 700 201 c 4
 700 301 634 372 534 372 c 4
 228 372 110 -178 110 -178 c 1
 70 -155 l 1
 70 -155 185 412 535 412 c 4
 655 412 745 321 745 201 c 4
 745 81 654 -10 534 -10 c 4
 414 -10 323 81 323 201 c 5
 323 292 l 1
 323 1000 l 1
 79 1000 l 1
 79 1040 l 1
 157 1040 l 1
 307 1040 323 1056 323 1206 c 1
 323 1320 l 1
 368 1320 l 1
 368 1040 l 1
 674 1040 l 1
 674 1000 l 1
 368 1000 l 1
 368 434 l 1
EndSplineSet
Substitution2: "sous-table 'smcp' Bas-de-casse vers petites capitales dans Latin lookup 0" uni0236.sc
Colour: ff00
EndChar

StartChar: uni0238
Encoding: 568 568 540
Width: 1899
VWidth: 1000
Flags: HMW
LayerCount: 4
Fore
SplineSet
929 520 m 1
 929 856 735 1010 560 1010 c 0
 385 1010 185 856 185 520 c 0
 185 184 385 30 560 30 c 0
 735 30 929 184 929 520 c 1
927 1480 m 5
 972 1480 l 1
 972 780 l 1
 1003 896 1139 1050 1339 1050 c 0
 1586 1050 1759 832 1759 520 c 0
 1759 208 1586 -10 1339 -10 c 0
 1129 -10 1003 144 972 260 c 1
 972 0 l 1
 927 0 l 1
 927 260 l 1
 896 144 770 -10 560 -10 c 0
 313 -10 140 208 140 520 c 0
 140 832 313 1050 560 1050 c 0
 760 1050 896 896 927 780 c 1
 927 1480 l 5
970 520 m 1
 970 184 1164 30 1339 30 c 0
 1514 30 1714 184 1714 520 c 0
 1714 856 1514 1010 1339 1010 c 0
 1164 1010 970 856 970 520 c 1
EndSplineSet
Colour: ff00
EndChar

StartChar: uni0239
Encoding: 569 569 541
Width: 1899
VWidth: 1000
Flags: HMW
LayerCount: 4
Fore
SplineSet
929 520 m 1
 929 184 735 30 560 30 c 0
 385 30 185 184 185 520 c 0
 185 856 385 1010 560 1010 c 0
 735 1010 929 856 929 520 c 1
927 -440 m 1
 972 -440 l 1
 972 260 l 1
 1003 144 1139 -10 1339 -10 c 0
 1586 -10 1759 208 1759 520 c 0
 1759 832 1586 1050 1339 1050 c 0
 1129 1050 1003 896 972 780 c 1
 972 1040 l 1
 927 1040 l 1
 927 780 l 1
 896 896 770 1050 560 1050 c 0
 313 1050 140 832 140 520 c 0
 140 208 313 -10 560 -10 c 0
 760 -10 896 144 927 260 c 1
 927 -440 l 1
970 520 m 1
 970 856 1164 1010 1339 1010 c 0
 1514 1010 1714 856 1714 520 c 0
 1714 184 1514 30 1339 30 c 0
 1164 30 970 184 970 520 c 1
EndSplineSet
Colour: ff00
EndChar

StartChar: uni0338
Encoding: 824 824 542
Width: 0
Flags: HMW
LayerCount: 4
Fore
SplineSet
1126 1526 m 5
 1158 1502 l 5
 -28 -46 l 5
 -60 -22 l 5
 1126 1526 l 5
EndSplineSet
Colour: ffff
EndChar

StartChar: uni0337
Encoding: 823 823 543
Width: 0
VWidth: 1000
Flags: HMW
LayerCount: 4
Fore
SplineSet
1048 1086 m 5
 1079 1060 l 5
 230 -46 l 5
 199 -21 l 5
 1048 1086 l 5
EndSplineSet
Colour: ff00
EndChar

StartChar: uni023A
Encoding: 570 570 544
Width: 1310
VWidth: 1000
Flags: HMW
LayerCount: 4
Fore
SplineSet
1232 1526 m 5
 1264 1502 l 5
 78 -46 l 5
 46 -22 l 5
 1232 1526 l 5
331 541 m 1
 987 541 l 1
 987 499 l 1
 331 499 l 1
 331 541 l 1
656 1408 m 1
 169 0 l 1
 120 0 l 1
 630 1480 l 1
 680 1480 l 1
 1190 0 l 1
 1141 0 l 1
 656 1408 l 1
EndSplineSet
Colour: ffff
EndChar

StartChar: uni023B
Encoding: 571 571 545
Width: 1436
Flags: HMW
LayerCount: 4
Fore
SplineSet
1334 1526 m 5
 1366 1502 l 5
 180 -46 l 5
 148 -22 l 5
 1334 1526 l 5
1256 1097 m 1
 1149 1332 940 1448 757 1448 c 0
 497 1448 186 1215 186 740 c 0
 186 265 497 32 757 32 c 0
 940 32 1149 148 1256 383 c 1
 1296 360 l 1
 1192 132 992 -10 757 -10 c 0
 409 -10 140 301 140 740 c 0
 140 1179 409 1490 757 1490 c 0
 992 1490 1192 1348 1296 1120 c 1
 1256 1097 l 1
EndSplineSet
Substitution2: "sous-table 'c2sc' Capitales vers petites capitales dans Latin lookup 0" uni023C.sc
Colour: ffff
EndChar

StartChar: uni023C
Encoding: 572 572 546
Width: 1101
VWidth: 1000
Flags: HMW
LayerCount: 4
Fore
SplineSet
987 1086 m 5
 1018 1060 l 5
 169 -46 l 5
 138 -21 l 5
 987 1086 l 5
185 520 m 0
 185 184 410 30 578 30 c 0
 698 30 846 108 922 274 c 1
 961 252 l 1
 887 90 745 -10 578 -10 c 0
 331 -10 140 208 140 520 c 0
 140 832 331 1050 578 1050 c 0
 745 1050 887 950 961 788 c 1
 922 766 l 1
 846 932 698 1010 578 1010 c 0
 410 1010 185 856 185 520 c 0
EndSplineSet
Substitution2: "sous-table 'smcp' Bas-de-casse vers petites capitales dans Latin lookup 0" uni023C.sc
Colour: ff00
EndChar

StartChar: uni023D
Encoding: 573 573 547
Width: 1206
Flags: HMW
LayerCount: 4
Fore
SplineSet
536 719 m 1
 0 719 l 1
 0 731 0 749 0 761 c 1
 536 761 l 1
 536 719 l 1
256 1480 m 17
 256 42 l 1
 1026 42 l 1
 1026 0 l 1
 210 0 l 25
 210 1480 l 1
 256 1480 l 17
EndSplineSet
Substitution2: "sous-table 'c2sc' Capitales vers petites capitales dans Latin lookup 0" uni019A.sc
Colour: ffff
EndChar

StartChar: uni023E
Encoding: 574 574 548
Width: 1344
Flags: HMW
LayerCount: 4
Fore
SplineSet
1249 1526 m 5
 1281 1502 l 5
 95 -46 l 5
 63 -22 l 5
 1249 1526 l 5
695 0 m 25
 649 0 l 25
 649 1438 l 25
 180 1438 l 25
 180 1480 l 25
 1164 1480 l 25
 1164 1438 l 25
 695 1438 l 25
 695 0 l 25
EndSplineSet
Colour: ffff
EndChar

StartChar: uni023F
Encoding: 575 575 549
Width: 1002
VWidth: 1000
Flags: HMW
LayerCount: 4
Fore
SplineSet
528 0 m 21
 528 -155 638 -270 793 -270 c 4
 797 -270 801 -270 805 -269 c 5
 805 -309 l 5
 801 -310 797 -310 793 -310 c 4
 615 -310 482 -178 482 0 c 13
 528 0 l 21
505 1050 m 0
 698 1050 810 953 844 808 c 1
 806 786 l 1
 763 964 621 1010 505 1010 c 0
 389 1010 220 950 220 780 c 0
 220 600 377 580 505 546 c 0
 711 492 862 457 862 261 c 0
 862 85 707 -10 505 -10 c 0
 303 -10 174 108 140 253 c 1
 178 275 l 1
 218 105 373 30 505 30 c 0
 637 30 817 91 817 261 c 0
 817 441 633 466 505 500 c 0
 299 554 175 595 175 780 c 0
 175 935 312 1050 505 1050 c 0
EndSplineSet
Colour: ff00
EndChar

StartChar: uni0240
Encoding: 576 576 550
Width: 1066
Flags: HMW
LayerCount: 4
Fore
SplineSet
1034 -155 m 1
 1066 -188 l 1
 985 -298 899 -355 812 -355 c 0
 774 -355 736 -345 699 -323 c 0
 533 -227 665 53 526 133 c 0
 502 147 472 157 438 157 c 0
 372 157 292 120 211 0 c 1
 180 33 l 1
 261 143 346 200 433 200 c 0
 471 200 509 190 546 168 c 0
 712 72 580 -208 719 -288 c 0
 743 -302 774 -312 808 -312 c 0
 874 -312 953 -275 1034 -155 c 1
180 1040 m 1
 832 1040 l 1
 832 1008 l 1
 803 1000 l 1
 180 1000 l 1
 180 1040 l 1
232 41 m 1
 180 33 l 1
 780 1000 l 1
 832 1008 l 1
 232 41 l 1
EndSplineSet
Colour: ff00
EndChar

StartChar: uni0241
Encoding: 577 577 551
Width: 1152
VWidth: 1000
Flags: HMW
LayerCount: 4
Fore
SplineSet
551 0 m 1
 597 0 l 5
 597 472 l 5
 551 472 l 1
 551 0 l 1
574 430 m 0
 821 430 1012 648 1012 960 c 0
 1012 1272 838 1490 574 1490 c 0
 336 1490 167 1306 140 1032 c 1
 186 1019 l 1
 191 1230 336 1448 574 1448 c 0
 812 1448 966 1240 966 960 c 0
 966 680 792 472 574 472 c 0
 574 430 l 0
EndSplineSet
Substitution2: "sous-table 'c2sc' Capitales vers petites capitales dans Latin lookup 0" uni0242.sc
Colour: ffff
EndChar

StartChar: uni0242
Encoding: 578 578 552
Width: 971
Flags: HMW
LayerCount: 4
Fore
SplineSet
463 0 m 1
 505 0 l 1
 505 298 l 1
 463 298 l 1
 463 0 l 1
484 258 m 0
 680 258 831 423 831 654 c 0
 831 885 693 1050 484 1050 c 0
 296 1050 162 904 140 697 c 1
 185 685 l 1
 189 822 300 1010 484 1010 c 0
 668 1010 786 838 786 654 c 4
 786 470 668 298 484 298 c 0
 484 258 l 0
EndSplineSet
Substitution2: "sous-table 'smcp' Bas-de-casse vers petites capitales dans Latin lookup 0" uni0242.sc
Colour: ff00
EndChar

StartChar: uni0243
Encoding: 579 579 553
Width: 1184
Flags: HMW
LayerCount: 4
Fore
SplineSet
536 429 m 1
 0 429 l 1
 0 441 0 459 0 471 c 1
 536 471 l 1
 536 429 l 1
625 1480 m 1
 819 1480 987 1362 987 1142 c 0
 987 922 819 804 625 804 c 1
 625 846 l 1
 815 846 941 962 941 1142 c 0
 941 1322 815 1438 625 1438 c 9
 256 1438 l 1
 256 1480 l 25
 625 1480 l 1
256 42 m 25
 625 42 l 17
 850 42 998 223 998 423 c 0
 998 623 850 804 625 804 c 9
 256 804 l 25
 256 42 l 25
210 1480 m 1
 256 1480 l 25
 256 846 l 1
 625 846 l 1
 849 846 1044 678 1044 423 c 0
 1044 168 849 0 625 0 c 1
 210 0 l 1
 210 1480 l 1
EndSplineSet
Substitution2: "sous-table 'c2sc' Capitales vers petites capitales dans Latin lookup 0" uni0180.sc
Colour: ffff
EndChar

StartChar: uni0244
Encoding: 580 580 554
Width: 1404
Flags: HMW
LayerCount: 4
Fore
SplineSet
1404 761 m 29
 1404 719 l 29
 0 719 l 25
 0 761 l 25
 1404 761 l 29
256 1480 m 25
 256 528 l 17
 256 178 462 32 702 32 c 0
 942 32 1148 178 1148 528 c 9
 1148 1480 l 25
 1194 1480 l 25
 1194 528 l 17
 1194 168 999 -10 702 -10 c 0
 405 -10 210 168 210 528 c 9
 210 1480 l 25
 256 1480 l 25
EndSplineSet
Colour: ffff
EndChar

StartChar: uni0245
Encoding: 581 581 555
Width: 1310
VWidth: 1000
Flags: HMW
LayerCount: 4
Fore
SplineSet
656 1408 m 1
 1141 0 l 1
 1190 0 l 1
 680 1480 l 1
 630 1480 l 1
 120 0 l 1
 169 0 l 1
 656 1408 l 1
EndSplineSet
Colour: ffff
EndChar

StartChar: uni0246
Encoding: 582 582 556
Width: 1176
Flags: HMW
LayerCount: 4
Fore
SplineSet
945 1660 m 5
 988 1660 l 5
 231 -180 l 5
 188 -180 l 5
 945 1660 l 5
913 761 m 17
 913 719 l 9
 226 719 l 17
 226 42 l 1
 996 42 l 1
 996 0 l 1
 180 0 l 25
 180 1480 l 1
 996 1480 l 17
 996 1438 l 1
 226 1438 l 1
 226 761 l 9
 913 761 l 17
EndSplineSet
Substitution2: "sous-table 'c2sc' Capitales vers petites capitales dans Latin lookup 0" uni0247.sc
Colour: ffff
EndChar

StartChar: uni0247
Encoding: 583 583 557
Width: 1156
VWidth: 1000
Flags: HMW
LayerCount: 4
Fore
SplineSet
789 1220 m 29
 409 -180 l 29
 367 -180 l 5
 747 1220 l 5
 789 1220 l 29
165 540 m 1
 999 540 l 1
 971 500 l 1
 165 500 l 1
 165 540 l 1
952 274 m 1
 991 252 l 1
 917 90 775 -10 578 -10 c 0
 331 -10 140 208 140 520 c 0
 140 832 331 1050 578 1050 c 0
 825 1050 1016 832 1016 520 c 0
 1016 513 1016 507 1016 500 c 1
 971 500 l 1
 971 507 971 513 971 520 c 0
 971 856 746 1010 578 1010 c 0
 410 1010 185 856 185 520 c 0
 185 184 410 30 578 30 c 0
 724 30 876 108 952 274 c 1
EndSplineSet
Substitution2: "sous-table 'smcp' Bas-de-casse vers petites capitales dans Latin lookup 0" uni0247.sc
Colour: ff00
EndChar

StartChar: uni0248
Encoding: 584 584 558
Width: 1166
VWidth: 1000
Flags: HMW
LayerCount: 4
Fore
SplineSet
187 447 m 1
 186 441 186 438 186 434 c 0
 186 146 380 32 548 32 c 0
 716 32 910 146 910 434 c 9
 910 1480 l 1
 956 1480 l 1
 956 434 l 17
 956 154 786 -10 548 -10 c 0
 310 -10 140 154 140 434 c 0
 187 447 l 1
1166 719 m 5
 630 719 l 5
 630 731 630 749 630 761 c 5
 1166 761 l 5
 1166 719 l 5
EndSplineSet
Substitution2: "sous-table 'c2sc' Capitales vers petites capitales dans Latin lookup 0" uni0249.sc
Colour: ffff
EndChar

StartChar: uni0249
Encoding: 585 585 559
Width: 635
Flags: HMW
LayerCount: 4
Fore
SplineSet
100 500 m 1
 100 512 100 528 100 540 c 1
 635 540 l 1
 635 500 l 1
 100 500 l 1
303 1352 m 0
 303 1388 331 1416 367 1416 c 0
 403 1416 431 1388 431 1352 c 0
 431 1316 403 1288 367 1288 c 0
 331 1288 303 1316 303 1352 c 0
81 -384 m 1
 112 -404 139 -410 153 -410 c 0
 206 -410 345 -400 345 -210 c 2
 345 0 l 1
 345 138 l 1
 345 1040 l 1
 390 1040 l 1
 390 138 l 1
 390 0 l 1
 390 -210 l 2
 390 -380 303 -450 153 -450 c 0
 125 -450 95 -443 70 -426 c 1
 81 -384 l 1
EndSplineSet
Substitution2: "sous-table 'smcp' Bas-de-casse vers petites capitales dans Latin lookup 0" uni0249.sc
LCarets2: 1 0
Ligature2: "'liga' Soft Dotted i j" j uni0307
Colour: ff00
EndChar

StartChar: uni024A
Encoding: 586 586 560
Width: 1651
Flags: HMW
LayerCount: 4
Fore
SplineSet
1651 -429 m 1
 1651 -469 l 1
 1647 -470 1643 -470 1639 -470 c 0
 1461 -470 1328 -338 1328 -160 c 9
 1374 -160 l 17
 1374 -315 1484 -430 1639 -430 c 0
 1643 -430 1647 -430 1651 -429 c 1
1374 1480 m 1
 1374 -160 l 1
 1328 -160 l 1
 1328 540 l 1
 1348 579 l 1
 1348 906 l 1
 1328 946 l 1
 1328 1480 l 1
 1374 1480 l 1
186 740 m 0
 186 265 497 32 757 32 c 0
 1017 32 1328 265 1328 740 c 0
 1328 1215 1017 1448 757 1448 c 0
 497 1448 186 1215 186 740 c 0
140 740 m 0
 140 1179 409 1490 757 1490 c 0
 1105 1490 1374 1179 1374 740 c 0
 1374 301 1105 -10 757 -10 c 0
 409 -10 140 301 140 740 c 0
EndSplineSet
Substitution2: "sous-table 'c2sc' Capitales vers petites capitales dans Latin lookup 0" uni024B.sc
Colour: ffff
EndChar

StartChar: uni024B
Encoding: 587 587 561
Width: 1249
VWidth: 1000
Flags: HMW
LayerCount: 4
Fore
SplineSet
1249 -429 m 5
 1249 -469 l 5
 1245 -470 1241 -470 1237 -470 c 4
 1059 -470 927 -338 927 -160 c 13
 972 -160 l 5
 972 -315 1082 -430 1237 -430 c 4
 1241 -430 1245 -430 1249 -429 c 5
935 520 m 1
 935 856 735 1010 560 1010 c 0
 385 1010 185 856 185 520 c 0
 185 184 385 30 560 30 c 0
 735 30 935 184 935 520 c 1
972 832 m 5
 972 -160 l 5
 927 -160 l 5
 927 260 l 5
 896 144 760 -10 560 -10 c 0
 313 -10 140 208 140 520 c 0
 140 832 313 1050 560 1050 c 0
 770 1050 896 896 927 780 c 1
 927 1040 l 1
 972 1040 l 1
 972 1040 972 930 972 832 c 5
EndSplineSet
Substitution2: "sous-table 'smcp' Bas-de-casse vers petites capitales dans Latin lookup 0" uni024B.sc
Colour: ff00
EndChar

StartChar: uni024C
Encoding: 588 588 562
Width: 1200
Flags: HMW
LayerCount: 4
Fore
SplineSet
235 634 m 1
 235 676 l 9
 0 676 l 17
 0 666 0 644 0 634 c 1
 235 634 l 1
575 643 m 1
 1006 0 l 1
 1060 0 l 1
 621 652 l 1
 575 643 l 1
256 1438 m 25
 625 1438 l 17
 850 1438 998 1257 998 1057 c 0
 998 857 850 676 625 676 c 9
 256 676 l 25
 256 1438 l 25
210 0 m 1
 256 0 l 25
 256 634 l 1
 625 634 l 1
 849 634 1044 802 1044 1057 c 0
 1044 1312 849 1480 625 1480 c 1
 210 1480 l 1
 210 0 l 1
EndSplineSet
Substitution2: "sous-table 'c2sc' Capitales vers petites capitales dans Latin lookup 0" uni024D.sc
Colour: ffff
EndChar

StartChar: uni024D
Encoding: 589 589 563
Width: 807
VWidth: 1000
Flags: HMW
LayerCount: 4
Fore
SplineSet
0 500 m 1
 0 512 0 528 0 540 c 1
 535 540 l 5
 535 500 l 5
 0 500 l 1
716 972 m 1
 681 994 641 1010 595 1010 c 0
 325 1010 255 791 255 572 c 2
 255 0 l 1
 210 0 l 1
 210 1040 l 1
 255 1040 l 1
 255 820 l 1
 292 927 375 1050 605 1050 c 0
 649 1050 700 1035 737 1014 c 1
 716 972 l 1
EndSplineSet
Substitution2: "sous-table 'smcp' Bas-de-casse vers petites capitales dans Latin lookup 0" uni024D.sc
Colour: ff00
EndChar

StartChar: uni024E
Encoding: 590 590 564
Width: 1342
VWidth: 1000
Flags: HMW
LayerCount: 4
Fore
SplineSet
1261 1132 m 29
 1261 1090 l 29
 81 1090 l 29
 81 1132 l 29
 1261 1132 l 29
648 0 m 1
 648 740 l 1
 694 740 l 1
 694 0 l 1
 648 0 l 1
685 719 m 1
 659 716 l 1
 120 1480 l 1
 174 1480 l 1
 671 778 l 1
 1168 1480 l 1
 1222 1480 l 1
 685 719 l 1
EndSplineSet
Substitution2: "sous-table 'c2sc' Capitales vers petites capitales dans Latin lookup 0" uni024F.sc
Colour: ffff
EndChar

StartChar: uni024F
Encoding: 591 591 565
Width: 1098
VWidth: 1000
Flags: HMW
LayerCount: 4
Fore
SplineSet
131 500 m 5
 131 512 131 528 131 540 c 5
 1015 540 l 5
 1015 500 l 5
 131 500 l 5
483 -312 m 1
 450 -401 381 -450 265 -450 c 0
 216 -450 160 -436 120 -418 c 1
 134 -375 l 1
 173 -403 227 -410 265 -410 c 0
 330 -410 405 -395 441 -296 c 1
 548 0 l 1
 168 1040 l 1
 216 1040 l 1
 573 56 l 1
 930 1040 l 1
 978 1040 l 1
 598 0 l 1
 483 -312 l 1
EndSplineSet
Substitution2: "sous-table 'smcp' Bas-de-casse vers petites capitales dans Latin lookup 0" uni024F.sc
Colour: ff00
EndChar

StartChar: uni0250
Encoding: 592 592 566
Width: 1141
Flags: HMW
LayerCount: 4
Fore
SplineSet
626 1050 m 0
 824 1050 1001 940 1001 700 c 1
 1001 460 814 350 616 350 c 0
 446 350 241 460 241 700 c 1
 241 940 436 1050 626 1050 c 0
276 700 m 0
 276 531 406 390 616 390 c 0
 826 390 956 501 956 700 c 0
 956 899 826 1010 616 1010 c 0
 406 1010 276 869 276 700 c 0
231 810 m 2
 231 931 175 991 120 1010 c 1
 133 1050 l 1
 225 1024 276 941 276 810 c 9
 259 775 l 25
 259 624 l 25
 276 592 l 1
 276 410 l 18
 276 96 470 30 618 30 c 0
 816 30 945 155 945 155 c 1
 970 114 l 1
 970 114 842 -10 618 -10 c 0
 402 -10 231 92 231 442 c 9
 231 810 l 2
EndSplineSet
Substitution2: "sous-table 'smcp' Bas-de-casse vers petites capitales dans Latin lookup 0" uni0250.sc
Substitution2: "'ss04' Simplified a and g lookups0-1" uni0250.ss04
Colour: ff00
EndChar

StartChar: uni0251
Encoding: 593 593 567
Width: 1140
VWidth: 1000
Flags: HMW
LayerCount: 4
Fore
SplineSet
923 520 m 1
 923 856 723 1010 548 1010 c 0
 373 1010 173 856 173 520 c 0
 173 184 373 30 548 30 c 0
 723 30 923 184 923 520 c 1
960 208 m 1
 960 110 972 0 972 0 c 1
 927 0 l 1
 927 0 915 110 915 260 c 1
 884 144 758 -10 548 -10 c 0
 301 -10 128 208 128 520 c 0
 128 832 301 1050 548 1050 c 0
 748 1050 884 896 915 780 c 1
 915 1040 l 5
 960 1040 l 5
 960 208 l 1
EndSplineSet
Substitution2: "sous-table 'smcp' Bas-de-casse vers petites capitales dans Latin lookup 0" uni0251.sc
Colour: ff00
EndChar

StartChar: uni0252
Encoding: 594 594 568
Width: 1152
VWidth: 1000
Flags: HMW
LayerCount: 4
Fore
SplineSet
217 520 m 1
 217 184 417 30 592 30 c 0
 767 30 967 184 967 520 c 0
 967 856 767 1010 592 1010 c 0
 417 1010 217 856 217 520 c 1
180 832 m 1
 180 930 168 1040 168 1040 c 1
 213 1040 l 1
 213 1040 225 930 225 780 c 1
 256 896 382 1050 592 1050 c 0
 839 1050 1012 832 1012 520 c 0
 1012 208 839 -10 592 -10 c 0
 392 -10 256 144 225 260 c 1
 225 0 l 5
 180 0 l 5
 180 832 l 1
EndSplineSet
Colour: ff00
EndChar

StartChar: uni0253
Encoding: 595 595 569
Width: 1152
VWidth: 1000
Flags: HMW
LayerCount: 4
Fore
SplineSet
217 520 m 1
 217 184 417 30 592 30 c 0
 767 30 967 184 967 520 c 0
 967 856 767 1010 592 1010 c 0
 417 1010 217 856 217 520 c 1
180 1180 m 5
 180 1358 312 1490 490 1490 c 5
 494 1490 498 1490 502 1489 c 5
 502 1449 l 5
 498 1450 494 1450 490 1450 c 5
 335 1450 225 1335 225 1180 c 5
 225 780 l 1
 256 896 392 1050 592 1050 c 0
 839 1050 1012 832 1012 520 c 0
 1012 208 839 -10 592 -10 c 0
 382 -10 256 144 225 260 c 1
 225 0 l 1
 180 0 l 1
 180 208 l 1
 180 358 180 1180 180 1180 c 5
EndSplineSet
Substitution2: "sous-table 'smcp' Bas-de-casse vers petites capitales dans Latin lookup 0" uni0253.sc
Colour: ff00
EndChar

StartChar: uni0254
Encoding: 596 596 570
Width: 1101
VWidth: 1000
Flags: HMW
AnchorPoint: "bottom_cedilla" 523 -20 basechar 0
AnchorPoint: "top_center" 523 1040 basechar 0
AnchorPoint: "bottom_center" 523 0 basechar 0
LayerCount: 4
Fore
SplineSet
916 520 m 4
 916 184 691 30 523 30 c 4
 403 30 255 108 179 274 c 5
 140 252 l 5
 214 90 356 -10 523 -10 c 4
 770 -10 961 208 961 520 c 4
 961 832 770 1050 523 1050 c 4
 356 1050 214 950 140 788 c 5
 179 766 l 5
 255 932 403 1010 523 1010 c 4
 691 1010 916 856 916 520 c 4
EndSplineSet
Substitution2: "sous-table 'smcp' Bas-de-casse vers petites capitales dans Latin lookup 0" uni0254.sc
Colour: ff00
EndChar

StartChar: uni0255
Encoding: 597 597 571
Width: 1101
Flags: HMW
LayerCount: 4
Fore
SplineSet
750 40 m 4
 850 40 916 111 916 211 c 4
 916 311 850 382 750 382 c 4
 444 382 326 -168 326 -168 c 5
 286 -145 l 5
 286 -145 401 422 751 422 c 4
 871 422 961 331 961 211 c 4
 961 91 870 0 750 0 c 4
 578 0 l 4
 331 0 140 208 140 520 c 0
 140 832 331 1050 578 1050 c 0
 745 1050 887 950 961 788 c 1
 922 766 l 1
 846 932 698 1010 578 1010 c 0
 410 1010 185 856 185 520 c 0
 185 184 410 40 578 40 c 4
 750 40 l 4
EndSplineSet
Colour: ff00
EndChar

StartChar: uni0256
Encoding: 598 598 572
Width: 1250
VWidth: 1000
Flags: HMW
LayerCount: 4
Fore
SplineSet
972 0 m 4
 972 0 972 110 972 208 c 5
 972 1480 l 5
 927 1480 l 5
 927 780 l 5
 896 896 760 1050 560 1050 c 4
 313 1050 140 832 140 520 c 4
 140 208 313 -10 560 -10 c 4
 770 -10 896 144 927 260 c 5
 927 0 l 4
 927 -178 1060 -310 1238 -310 c 4
 1242 -310 1246 -310 1250 -309 c 5
 1250 -269 l 5
 1246 -270 1242 -270 1238 -270 c 4
 1083 -270 972 -155 972 0 c 4
935 520 m 5
 935 184 735 30 560 30 c 4
 385 30 185 184 185 520 c 4
 185 856 385 1010 560 1010 c 4
 735 1010 935 856 935 520 c 5
EndSplineSet
Substitution2: "sous-table 'smcp' Bas-de-casse vers petites capitales dans Latin lookup 0" uni0256.sc
Colour: ff00
EndChar

StartChar: uni0257
Encoding: 599 599 573
Width: 1249
VWidth: 1000
Flags: HMW
LayerCount: 4
Fore
SplineSet
972 1180 m 5
 972 208 l 1
 972 110 984 0 984 0 c 1
 939 0 l 1
 939 0 927 110 927 260 c 1
 896 144 770 -10 560 -10 c 0
 313 -10 140 208 140 520 c 0
 140 832 313 1050 560 1050 c 0
 760 1050 896 896 927 780 c 1
 927 1180 l 5
 927 1358 1059 1490 1237 1490 c 5
 1241 1490 1245 1490 1249 1489 c 5
 1249 1449 l 5
 1245 1450 1241 1450 1237 1450 c 5
 1082 1450 972 1335 972 1180 c 5
935 520 m 1
 935 856 735 1010 560 1010 c 0
 385 1010 185 856 185 520 c 0
 185 184 385 30 560 30 c 0
 735 30 935 184 935 520 c 1
EndSplineSet
Substitution2: "sous-table 'smcp' Bas-de-casse vers petites capitales dans Latin lookup 0" uni0257.sc
Colour: ff00
EndChar

StartChar: uni0258
Encoding: 600 600 574
Width: 1156
VWidth: 1000
Flags: HMW
LayerCount: 4
Fore
SplineSet
991 540 m 1
 157 540 l 1
 185 500 l 1
 991 500 l 1
 991 540 l 1
204 274 m 1
 165 252 l 1
 239 90 381 -10 578 -10 c 0
 825 -10 1016 208 1016 520 c 0
 1016 832 825 1050 578 1050 c 0
 331 1050 140 832 140 520 c 0
 140 513 140 507 140 500 c 1
 185 500 l 1
 185 507 185 513 185 520 c 0
 185 856 410 1010 578 1010 c 0
 746 1010 971 856 971 520 c 0
 971 184 746 30 578 30 c 0
 432 30 280 108 204 274 c 1
EndSplineSet
Colour: ff00
EndChar

